<svg width="199.99999999999997" height="99.99999999999999" xmlns="http://www.w3.org/2000/svg" xml:space="preserve" enable-background="new 0 0 200 100" version="1.1">

 <g>
  <title>Layer 1</title>
  <path id="svg_1" d="m1,26.8067c0,-16.68756 7.32027,-21.77098 10.68731,-22.6736c3.36704,-0.90261 24.28385,-2.20373 33.11961,-3.00791c8.83576,-0.80418 32.4812,0.82656 41.46322,0.89238c12.89759,-0.42145 14.77666,-0.39168 17.12284,-0.29058c5.54898,0.00521 10.63086,-0.06091 16.10428,-0.07917c13.51223,0.32674 14.57841,0.83616 15.6894,0.96799c11.87306,1.40876 23.74092,2.87844 35.63457,4.09266c14.93016,1.5242 23.23591,8.72944 27.38482,22.97017c1.30696,18.07956 1.67871,33.95299 1.45181,50.35661c-5.44592,13.88267 -14.94427,18.57459 -28.04939,18.6614c-2.4832,0.01646 -13.35179,-0.10401 -14.12808,0.02022c-2.89291,2.00885 -110.73042,0.07528 -129.53983,0.1309c-14.80062,0.04375 -20.09572,-4.05873 -25.22936,-17.98775c-0.2895,-0.78549 -1.03472,-2.49689 -1.15358,-7.25035c-0.11886,-4.75346 -0.15237,-12.20944 -0.37175,-14.08922m12.23821,-44.74409c-1.32665,3.38476 -3.26279,7.34035 -3.22465,10.70966c0.18653,16.47727 0.61147,32.97942 1.83483,49.40703c0.73258,9.83733 5.23152,13.24529 15.03808,13.85782c2.32508,0.14523 4.66338,0.11079 6.9955,0.10624c27.97177,-0.05464 55.96269,-0.775 83.90875,0.04202c19.67023,0.57507 39.23921,1.76158 58.8275,-1.09648c8.66956,-1.26495 7.30899,-7.66129 7.26588,-16.57032c-0.0553,-11.43018 7.21664,-22.68181 6.46694,-34.09542c-0.93074,-14.16986 -11.517,-19.60323 -22.24928,-20.40476c-1.49413,-0.11159 -2.98007,-0.33236 -4.47414,-0.44531c-20.89288,-1.57951 -41.76306,-3.80305 -62.68597,-4.55343c-25.44805,-0.91268 -50.94129,-0.7262 -76.41335,-0.62063c-3.46138,0.01435 -7.47091,1.75742 -11.29009,3.66358z" fill="#080808"/>
  <path id="svg_9" d="m142.45807,101c3.09361,-0.26091 6.64531,-0.52183 10.36946,-0.39137c-3.18881,0.39137 -6.55011,0.39137 -10.36946,0.39137z" fill="#939393"/>
  <path id="svg_13" d="m14.16314,15.1878c3.63774,-1.57411 7.08965,-3.8748 10.55103,-3.88915c25.47206,-0.10557 50.9653,-0.29205 76.41335,0.62063c20.92291,0.75038 41.79309,2.97392 62.68597,4.55343c1.49407,0.11295 2.98001,0.33372 4.47414,0.44531c10.73228,0.80153 21.31854,6.2349 22.24928,20.40476c0.7497,11.41361 1.47032,22.85111 1.52562,34.28129c0.04311,8.90903 -6.58888,15.1195 -15.25844,16.38445c-19.58829,2.85806 -39.15727,1.67155 -58.8275,1.09648c-27.94606,-0.81702 -55.93698,-0.09666 -83.90875,-0.04202c-2.33212,0.00455 -4.67042,0.03899 -6.9955,-0.10624c-9.80656,-0.61253 -14.3055,-4.02049 -15.03808,-13.85782c-1.22336,-16.42761 -1.6483,-32.92976 -1.83483,-49.40703c-0.03814,-3.36931 2.45562,-6.76728 3.96371,-10.48409m70.82315,48.23882c-0.02207,-0.18336 -0.04415,-0.36674 0.59844,-0.86611c8.48358,-1.73387 14.29956,-6.32178 15.55574,-15.27226c0.68469,-4.87854 0.69502,-9.81742 -4.574,-12.66539c-5.27723,-2.85242 -11.70558,-1.90548 -16.15302,2.32468c-5.79746,5.51422 -7.94694,12.43237 -8.1857,20.25522c-0.48229,15.80288 9.28678,19.57294 22.85606,16.10384c3.08781,-0.78943 5.44117,-3.14014 3.96448,-6.20596c-0.84707,-1.75865 -3.89754,-2.95369 -6.15487,-3.40245c-2.51,-0.49899 -5.24601,0.13901 -7.90713,-0.27157m56.41502,-6.62647c-1.1207,-6.77165 1.49998,-14.6911 -7.53743,-18.74989c-5.25415,-2.35968 -10.18678,-2.84298 -15.35173,-1.31596c-4.9235,1.45565 -6.80169,5.42265 -6.94999,10.38573c-0.1636,5.47494 -0.52017,10.94414 -0.68219,16.41912c-0.11075,3.74225 1.09419,6.93016 4.71215,8.62564c3.91574,1.835 7.61146,0.95907 10.5842,-1.87796c2.00035,-1.90904 3.41162,-4.43531 5.43281,-7.15083c4.86259,9.35774 8.82689,12.34277 14.36336,10.95423c1.83804,-0.46096 4.30234,-2.61351 4.49792,-4.23222c0.18778,-1.55394 -1.93116,-4.57053 -3.49429,-4.92493c-4.28925,-0.97249 -4.97136,-3.85727 -5.57481,-8.13293m-110.2272,15.95786c3.80792,-0.10632 7.78104,0.39779 11.35591,-0.56967c1.86139,-0.50375 3.02038,-3.60291 4.49664,-5.52972c-1.97279,-1.35903 -3.78151,-3.33143 -5.96182,-3.91468c-2.46916,-0.6605 -5.48001,0.56206 -7.86783,-0.2189c-2.19578,-0.71814 -4.79653,-2.64569 -5.60193,-4.68047c-1.94298,-4.90877 1.73883,-14.5615 6.35453,-17.2186c1.64125,-0.94481 4.35004,-1.06101 6.17587,-0.42309c2.86372,1.00053 5.75423,1.49496 6.8838,-1.39099c0.7634,-1.9504 0.12773,-5.27287 -1.16827,-7.03654c-2.86892,-3.90417 -9.03993,-4.37688 -14.20772,-1.8532c-10.38509,5.07152 -14.03292,14.22097 -14.51554,24.92356c-0.44569,9.88346 3.64188,15.00289 14.05636,17.9123m138.51002,-33.84266c-1.73393,0.84477 -3.46787,1.68954 -5.22811,2.54712c-0.55,-1.46774 -0.66746,-3.13938 -1.55386,-3.84479c-1.52765,-1.21572 -3.63107,-2.64361 -5.30864,-2.44286c-1.37245,0.16424 -3.58478,2.62232 -3.52217,3.97542c0.45183,9.7629 1.157,19.53304 2.40004,29.22157c0.2059,1.60483 3.37715,3.79099 5.28291,3.90159c1.43924,0.08353 3.80623,-2.46791 4.40021,-4.28999c0.89804,-2.75482 0.56004,-5.90042 0.84001,-8.87122c0.74916,-7.94965 3.65903,-10.71794 11.65273,-10.95597c3.0253,-0.09009 5.33609,-1.09042 5.64329,-4.33613c0.32411,-3.42403 -1.82522,-5.42752 -4.9474,-5.69828c-2.91545,-0.25283 -5.90311,0.32719 -9.65901,0.79354m-109.64081,-20.35371c-1.13729,1.86388 -3.16855,3.6813 -3.26821,5.59911c-0.69862,13.44221 -1.03348,26.90419 -1.40078,40.36213c-0.08946,3.27805 0.9783,6.16792 4.77453,6.3996c3.52694,0.21524 5.12834,-2.32294 5.24901,-5.42521c0.5361,-13.78141 0.99543,-27.56809 1.23487,-41.35716c0.06102,-3.51375 -1.72393,-6.08494 -6.58942,-5.57847z" fill="#ffffff"/>
  <path id="svg_14" d="m141.48621,57.2264c0.51855,3.84941 1.20066,6.73419 5.48991,7.70668c1.56313,0.3544 3.68207,3.37099 3.49429,4.92493c-0.19558,1.61871 -2.65988,3.77126 -4.49792,4.23222c-5.53647,1.38854 -9.50077,-1.59649 -14.36336,-10.95423c-2.02119,2.71552 -3.43246,5.24179 -5.43281,7.15083c-2.97274,2.83703 -6.66846,3.71296 -10.5842,1.87796c-3.61796,-1.69548 -4.8229,-4.88339 -4.71215,-8.62564c0.16202,-5.47498 0.51859,-10.94418 0.68219,-16.41912c0.1483,-4.96308 2.02649,-8.93008 6.94999,-10.38573c5.16495,-1.52702 10.09758,-1.04372 15.35173,1.31596c9.03741,4.05879 6.41673,11.97824 7.62233,19.17614m-11.68988,-7.28108c0.15306,-7.05315 -4.79378,-2.87135 -8.05973,-4.12302c-0.31028,5.22687 -0.58137,9.79343 -0.85246,14.35998c0.48443,0.13802 0.96886,0.27603 1.45328,0.41405c2.42607,-3.2923 4.85212,-6.58459 7.45891,-10.65101z" fill="#090909"/>
  <path id="svg_15" d="m85.00979,63.98021c2.63762,-0.14301 5.37363,-0.78101 7.88363,-0.28202c2.25733,0.44876 5.3078,1.6438 6.15487,3.40245c1.47669,3.06582 -0.87667,5.41653 -3.96448,6.20596c-13.56928,3.4691 -23.33835,-0.30096 -22.85606,-16.10384c0.23876,-7.82285 2.38824,-14.741 8.1857,-20.25522c4.44744,-4.23016 10.87579,-5.1771 16.15302,-2.32468c5.26902,2.84797 5.25869,7.78685 4.574,12.66539c-1.25618,8.95048 -7.07216,13.53839 -16.24718,15.43882c-0.42213,0.52876 -0.15282,0.89094 0.1165,1.25314m3.35553,-20.34959c-1.99569,2.60735 -3.99139,5.21471 -5.98708,7.82206c4.99758,0.54123 7.93205,-1.15445 8.5894,-5.34137c0.12704,-0.80919 -1.23253,-1.85177 -2.60232,-2.48069z" fill="#080808"/>
  <path id="svg_16" d="m30.75783,72.66962c-9.9982,-2.82102 -14.08577,-7.94045 -13.64008,-17.82391c0.48262,-10.70259 4.13045,-19.85204 14.51554,-24.92356c5.16779,-2.52368 11.3388,-2.05097 14.20772,1.8532c1.296,1.76367 1.93167,5.08614 1.16827,7.03654c-1.12957,2.88595 -4.02008,2.39152 -6.8838,1.39099c-1.82583,-0.63792 -4.53462,-0.52172 -6.17587,0.42309c-4.6157,2.6571 -8.29751,12.30983 -6.35453,17.2186c0.8054,2.03478 3.40615,3.96233 5.60193,4.68047c2.38782,0.78096 5.39867,-0.4416 7.86783,0.2189c2.18031,0.58325 3.98903,2.55565 5.96182,3.91468c-1.47626,1.92681 -2.63525,5.02597 -4.49664,5.52972c-3.57487,0.96746 -7.54799,0.46335 -11.77219,0.48128z" fill="#0B0B0B"/>
  <path id="svg_17" d="m170.08414,38.78889c3.35589,-0.33989 6.34355,-0.91991 9.259,-0.66708c3.12218,0.27076 5.27151,2.27425 4.9474,5.69828c-0.3072,3.24571 -2.61799,4.24604 -5.64329,4.33613c-7.9937,0.23803 -10.90357,3.00632 -11.65273,10.95597c-0.27997,2.9708 0.05803,6.1164 -0.84001,8.87122c-0.59398,1.82208 -2.96097,4.37352 -4.40021,4.28999c-1.90576,-0.1106 -5.07701,-2.29676 -5.28291,-3.90159c-1.24304,-9.68853 -1.94821,-19.45867 -2.40004,-29.22157c-0.06261,-1.3531 2.14972,-3.81118 3.52217,-3.97542c1.67757,-0.20075 3.78099,1.22714 5.30864,2.44286c0.8864,0.70541 1.00386,2.37705 1.55386,3.84479c1.76024,-0.85758 3.49418,-1.70235 5.62812,-2.67358z" fill="#0A0A0A"/>
  <path id="svg_18" d="m60.40483,18.44297c4.50398,-0.3878 6.28893,2.18339 6.22791,5.69714c-0.23944,13.78907 -0.69877,27.57575 -1.23487,41.35716c-0.12067,3.10227 -1.72207,5.64045 -5.24901,5.42521c-3.79623,-0.23168 -4.86399,-3.12155 -4.77453,-6.3996c0.3673,-13.45794 0.70216,-26.91992 1.40078,-40.36213c0.09966,-1.91781 2.13092,-3.73523 3.62972,-5.71778z" fill="#0D0D0D"/>
  <path id="svg_19" d="m84.99804,63.70341c-0.25757,-0.0854 -0.52688,-0.44758 -0.43708,-0.81834c0.38118,0.17481 0.40326,0.35819 0.43708,0.81834z" fill="#B3B3B3"/>
  <path id="svg_20" d="m129.70596,50.33239c-2.51642,3.67935 -4.94247,6.97164 -7.36854,10.26394c-0.48442,-0.13802 -0.96885,-0.27603 -1.45328,-0.41405c0.27109,-4.56655 -0.55475,-13.38117 0.85246,-14.35998c1.40721,-0.97881 8.21279,-2.93013 7.96936,4.51009z" fill="#ffffff"/>
  <path id="svg_21" d="m88.71332,43.47762c1.02179,0.78192 2.38136,1.8245 2.25432,2.63369c-0.65735,4.18692 -3.59182,5.8826 -8.5894,5.34137c1.99569,-2.60735 3.99139,-5.21471 6.33508,-7.97506z" fill="#ffffff"/>
 </g>
</svg>