<svg width="300" height="100" xmlns="http://www.w3.org/2000/svg" xml:space="preserve" enable-background="new 0 0 300 100" version="1.1">

 <g>
  <title>Layer 1</title>
  <path id="svg_2" d="m289.01553,93.1749c-6.75418,4.05728 -13.86169,3.04086 -20.79742,2.88552c-10.97574,-0.24583 -21.94998,-0.65565 -32.91704,-1.16424c-8.30318,-0.38505 -16.58917,-1.33631 -24.89206,-1.47269c-7.46132,-0.12254 -14.93268,0.66036 -22.40413,0.797c-13.13813,0.2403 -26.28509,0.10593 -39.41821,0.48209c-10.46439,0.29972 -20.94338,0.80753 -31.36408,1.7789c-30.23458,2.81831 -60.47932,3.19199 -90.74598,0.89211c-11.04252,-0.83909 -18.2468,-9.23058 -19.20262,-23.05053c-1.10176,-15.93012 -1.60978,-31.90583 -2.09524,-47.87027c-0.09852,-3.23966 0.73206,-6.61586 1.6986,-9.75539c1.63397,-5.30743 5.48249,-8.14081 11.08215,-8.55364c16.7541,-1.23517 33.48912,-3.04419 50.2648,-3.57025c12.93219,-0.40553 25.91294,1.11626 38.87499,1.1783c13.26686,0.06351 26.53874,-0.55934 39.80543,-0.97634c6.48122,-0.20372 12.95289,-0.81436 19.43374,-0.90963c25.13191,-0.36943 50.27667,-1.16063 75.39451,-0.66719c13.37448,0.26274 26.72275,2.68722 40.04523,4.42446c6.77282,0.88318 9.54303,6.29493 10.14743,12.06096c1.49032,14.21763 2.65536,28.50146 3.09155,42.78493c0.24536,8.03585 -0.98779,16.15401 -2.05374,24.16873c-0.29623,2.22706 -2.37427,4.21712 -3.94791,6.53717m-117.51773,-78.98576c-7.64447,0.22354 -15.3081,0.18013 -22.92932,0.72751c-14.76594,1.06055 -29.41968,2.88681 -44.34148,1.04393c-11.02061,-1.36108 -22.27275,-1.73109 -33.3768,-1.32226c-15.94794,0.58718 -31.84039,2.6058 -47.78756,3.3318c-5.49875,0.25034 -7.90915,2.46967 -7.70448,7.29239c0.74036,17.44502 1.57268,34.89457 2.90735,52.30123c0.45043,5.8744 4.90382,9.3466 10.2828,9.77527c24.11066,1.9215 48.26275,2.04891 72.34758,0.18099c22.41368,-1.73832 44.75796,-3.50708 67.29349,-2.62651c9.91502,0.38744 19.91323,-1.80815 29.86016,-1.69023c21.63259,0.25643 43.25739,1.21902 64.88323,1.95577c4.81714,0.1641 9.62256,0.64908 14.43872,0.87163c3.84857,0.17784 6.59992,-1.37745 6.79062,-5.54555c0.34079,-7.44933 0.89545,-14.92916 0.55923,-22.35999c-0.54101,-11.95687 -1.68512,-23.88832 -2.68286,-35.82144c-0.26651,-3.18801 -2.08743,-5.12191 -5.44403,-5.47037c-11.55633,-1.19969 -23.08397,-2.8542 -34.66952,-3.53016c-7.43468,-0.43377 -14.94966,0.77344 -22.43257,0.84698c-15.66338,0.15395 -31.32935,0.04472 -47.99456,0.03901z" fill="#090909"/>
  <path id="svg_3" d="m171.99795,14.19142c16.16506,0.00343 31.83103,0.11266 47.49441,-0.04129c7.48291,-0.07354 14.99789,-1.28075 22.43257,-0.84698c11.58555,0.67596 23.11319,2.33047 34.66952,3.53016c3.3566,0.34846 5.17752,2.28236 5.44403,5.47037c0.99774,11.93312 2.14185,23.86457 2.68286,35.82144c0.33622,7.43083 -0.21844,14.91066 -0.55923,22.35999c-0.1907,4.1681 -2.94205,5.72339 -6.79062,5.54555c-4.81616,-0.22255 -9.62158,-0.70753 -14.43872,-0.87163c-21.62584,-0.73675 -43.25064,-1.69934 -64.88323,-1.95577c-9.94693,-0.11792 -19.94514,2.07767 -29.86016,1.69023c-22.53553,-0.88057 -44.87981,0.88819 -67.29349,2.62651c-24.08483,1.86792 -48.23692,1.74051 -72.34758,-0.18099c-5.37898,-0.42867 -9.83237,-3.90087 -10.2828,-9.77527c-1.33467,-17.40666 -2.16699,-34.85621 -2.90735,-52.30123c-0.20467,-4.82272 2.20573,-7.04205 7.70448,-7.29239c15.94717,-0.726 31.83962,-2.74462 47.78756,-3.3318c11.10405,-0.40883 22.35619,-0.03882 33.3768,1.32226c14.9218,1.84288 29.57554,0.01662 44.34148,-1.04393c7.62122,-0.54738 15.28485,-0.50397 23.42947,-0.72523m-135.8636,40.45554c0.50962,-3.44994 0.82729,-6.9416 1.56643,-10.34164c1.88908,-8.68976 4.48237,-10.06178 12.91508,-6.86073c2.86446,1.08735 5.83524,1.1438 6.74562,-1.80998c0.62148,-2.01642 -0.15022,-5.52614 -1.6476,-6.94878c-6.72285,-6.38727 -23.35456,-2.65831 -25.77028,6.2043c-2.32937,8.54577 -3.33453,17.57545 -3.83076,26.4535c-0.31607,5.6547 3.1795,10.57561 8.92075,11.88156c5.89404,1.34071 12.11179,1.58761 18.18621,1.57397c1.51424,-0.00339 4.37167,-3.01842 4.20766,-4.35399c-0.22986,-1.87177 -2.409,-4.2493 -4.30585,-4.98138c-2.33636,-0.9017 -5.23987,-0.33266 -7.8982,-0.40163c-7.71996,-0.20032 -9.41453,-1.96587 -9.08906,-10.4152m227.60997,2.58994c1.23905,-1.11361 2.8649,-2.01238 3.6297,-3.38938c1.25873,-2.26637 3.077,-5.13343 2.5398,-7.19496c-0.42331,-1.62447 -4.00324,-3.33647 -6.24136,-3.42134c-9.9775,-0.37833 -19.98497,-0.40643 -29.96151,-0.02931c-2.21277,0.08364 -5.39909,1.85671 -6.21847,3.70326c-0.83324,1.87778 -0.02358,5.3597 1.34887,7.16363c3.10573,4.08208 6.84568,7.7294 10.60968,11.25224c6.39864,5.98868 9.78089,5.79428 16.15888,-0.38146c2.51326,-2.43357 5.0829,-4.80893 8.13441,-7.70268m-145.99372,7.45793c5.75552,5.474 12.7939,6.91053 19.79272,4.06077c6.68311,-2.7212 5.07498,-9.66148 5.35802,-15.32951c0.04896,-0.98069 0.15033,-2.20275 -0.34261,-2.9233c-1.90045,-2.778 -3.51848,-6.2025 -6.18669,-7.90582c-5.25046,-3.35176 -13.81673,-1.72637 -17.37978,2.39082c-5.04153,5.82563 -5.69498,13.04929 -1.24166,19.70704m-52.5109,-16.75319c-3.6238,6.13253 -3.08199,12.79568 1.41835,17.44271c4.75528,4.91027 15.5434,7.4908 20.28985,4.3367c1.8489,-1.22863 3.18388,-3.73646 3.94762,-5.94067c0.67488,-1.94773 0.32095,-4.28569 0.26292,-6.44711c-0.15813,-5.88952 -2.83466,-10.45387 -8.33976,-12.47204c-5.93018,-2.17402 -12.28316,-4.36811 -17.57898,3.08041m133.53845,-2.55691c1.64853,-4.73039 0.18016,-7.3813 -4.52748,-8.17365c-5.62073,-0.94604 -11.56662,2.95821 -13.34845,8.90442c-2.14479,7.15753 -0.63895,13.13869 6.1727,17.93207c-1.9541,0.77459 -3.67419,0.55896 -5.31467,0.8283c-2.12622,0.34909 -4.572,0.60307 -6.1295,1.84185c-0.87671,0.6973 -0.8381,3.57267 -0.17753,4.98209c1.9498,4.16022 9.48735,6.39284 13.55217,4.3871c9.53434,-4.70459 10.95279,-15.79855 2.98469,-22.60849c-0.82316,-0.70351 -1.52206,-2.28059 -1.32187,-3.25595c0.21581,-1.05134 1.39661,-2.19497 2.44568,-2.71689c1.57572,-0.78391 3.40337,-1.06145 5.66426,-2.12085m-37.79672,16.23301c0.45639,-9.92841 0.74062,-9.9694 9.92171,-10.50381c2.05276,-0.11948 5.08084,-2.19208 5.70327,-4.02862c1.08019,-3.18712 -1.64343,-5.75932 -4.65478,-5.6555c-6.03036,0.20789 -12.06262,1.13129 -18.01334,2.20633c-1.14108,0.20615 -2.62013,2.40686 -2.73436,3.78742c-0.61612,7.44692 -1.15489,14.93224 -0.98613,22.3877c0.03814,1.6848 2.90747,4.48642 4.63405,4.61475c1.674,0.12443 4.29547,-2.18727 5.15494,-4.05005c1.0517,-2.27943 0.70297,-5.20502 0.97464,-8.75822m-62.05741,4.61784c0.33748,3.44349 1.56514,6.7993 5.49773,6.15826c1.80876,-0.29483 4.42983,-3.40344 4.49746,-5.31351c0.42947,-12.1295 0.28134,-24.28073 0.24697,-36.42457c-0.00953,-3.36642 -1.33881,-6.10599 -5.15051,-5.99975c-3.81337,0.10629 -4.88931,3.02612 -4.92428,6.29733c-0.12266,11.47632 -0.15892,22.95356 -0.16737,35.28224z" fill="#ffffff"/>
  <path id="svg_4" d="m36.10753,55.09315c-0.29865,8.00314 1.39592,9.76869 9.11588,9.96901c2.65833,0.06897 5.56184,-0.50007 7.8982,0.40163c1.89685,0.73208 4.07599,3.10961 4.30585,4.98138c0.16401,1.33557 -2.69342,4.3506 -4.20766,4.35399c-6.07442,0.01364 -12.29217,-0.23326 -18.18621,-1.57397c-5.74125,-1.30595 -9.23682,-6.22686 -8.92075,-11.88156c0.49623,-8.87805 1.50139,-17.90773 3.83076,-26.4535c2.41572,-8.86261 19.04743,-12.59157 25.77028,-6.2043c1.49738,1.42264 2.26908,4.93236 1.6476,6.94878c-0.91038,2.95378 -3.88116,2.89733 -6.74562,1.80998c-8.43271,-3.20105 -11.026,-1.82903 -12.91508,6.86073c-0.73914,3.40004 -1.05681,6.8917 -1.59325,10.78783z" fill="#0A0A0A"/>
  <path id="svg_5" d="m263.1353,60.32476c-2.79773,2.64781 -4.30165,4.13507 -6.81491,6.56864c-6.37799,6.17574 -6.74071,6.37014 -13.13935,0.38146c-3.764,-3.52284 -11.23396,-9.12398 -14.33969,-13.20606c-1.37245,-1.80393 -2.18211,-5.28585 -1.34887,-7.16363c0.81938,-1.84655 4.0057,-3.61962 6.21847,-3.70326c9.97654,-0.37712 19.98401,-0.34902 29.96151,0.02931c2.23812,0.08487 5.81805,1.79687 6.24136,3.42134c0.5372,2.06153 -1.28107,4.92859 -2.5398,7.19496c-0.7648,1.377 -2.74589,5.11769 -4.23872,6.47724z" fill="#070707"/>
  <path id="svg_6" d="m117.50521,64.41715c-4.20793,-6.38007 -3.55448,-13.60373 1.48705,-19.42936c3.56305,-4.11719 12.12932,-5.74258 17.37978,-2.39082c2.66821,1.70332 4.28624,5.12782 6.18669,7.90582c0.49294,0.72055 0.39157,1.94261 0.34261,2.9233c-0.28304,5.66803 1.32509,12.60831 -5.35802,15.32951c-6.99882,2.84976 -14.0372,1.41323 -20.03811,-4.33845" fill="#090909"/>
  <path id="svg_7" d="m65.49419,47.65447c5.04133,-7.16135 11.39431,-4.96726 17.32449,-2.79324c5.5051,2.01817 8.18163,6.58252 8.33976,12.47204c0.05803,2.16142 0.41196,4.49938 -0.26292,6.44711c-0.76374,2.20421 -2.09872,4.71204 -3.94762,5.94067c-4.74645,3.1541 -15.53457,0.57357 -20.28985,-4.3367c-4.50034,-4.64703 -5.04215,-11.31018 -1.16386,-17.72988" fill="#080808"/>
  <path id="svg_8" d="m198.50797,45.66801c-1.99071,0.77612 -3.81836,1.05366 -5.39408,1.83757c-1.04907,0.52192 -2.22987,1.66555 -2.44568,2.71689c-0.20019,0.97536 0.49871,2.55244 1.32187,3.25595c7.9681,6.80994 6.54965,17.9039 -2.98469,22.60849c-4.06482,2.00574 -11.60237,-0.22688 -13.55217,-4.3871c-0.66057,-1.40942 -0.69918,-4.28479 0.17753,-4.98209c1.5575,-1.23878 4.00328,-1.49276 6.1295,-1.84185c1.64048,-0.26934 3.36057,-0.05371 5.31467,-0.8283c-6.81165,-4.79338 -8.31749,-10.77454 -6.1727,-17.93207c1.78183,-5.94621 7.72772,-9.85046 13.34845,-8.90442c4.70764,0.79235 6.17601,3.44326 4.2573,8.45693z" fill="#0B0B0B"/>
  <path id="svg_9" d="m160.974,62.07125c-0.26424,3.09969 0.08449,6.02528 -0.96721,8.30471c-0.85947,1.86278 -3.48094,4.17448 -5.15494,4.05005c-1.72658,-0.12833 -4.59591,-2.92995 -4.63405,-4.61475c-0.16876,-7.45546 0.37001,-14.94078 0.98613,-22.3877c0.11423,-1.38056 1.59328,-3.58127 2.73436,-3.78742c5.95072,-1.07504 11.98298,-1.99844 18.01334,-2.20633c3.01135,-0.10382 5.73497,2.46838 4.65478,5.6555c-0.62243,1.83654 -3.65051,3.90914 -5.70327,4.02862c-9.18109,0.53441 -9.46532,0.5754 -9.92914,10.95732z" fill="#0B0B0B"/>
  <path id="svg_10" d="m98.89371,65.80969c0.03876,-11.90279 0.07502,-23.38003 0.19768,-34.85635c0.03497,-3.27121 1.11091,-6.19104 4.92428,-6.29733c3.8117,-0.10624 5.14098,2.63333 5.15051,5.99975c0.03437,12.14384 0.1825,24.29507 -0.24697,36.42457c-0.06763,1.91007 -2.6887,5.01868 -4.49746,5.31351c-3.93259,0.64104 -5.16025,-2.71477 -5.52804,-6.58415z" fill="#0E0E0E"/>
  <path id="svg_11" d="m130.52193,59.26905c-2.48248,0.7583 -7.78062,-1.53384 -6.02434,-4.96788c0.72757,-1.42263 3.77927,-4.8845 5.24309,-4.83937c1.0814,0.03334 4.64693,2.93945 4.80792,5.02028c0.16099,2.08083 -1.54419,4.02867 -4.02666,4.78697z" fill="#ffffff"/>
  <path id="svg_12" d="m77.3507,52.31891c2.97359,-0.17079 5.0856,6.16764 2.44546,8.16276c-2.64014,1.99512 -7.22462,0.57219 -7.10571,-4.56034c0.11891,-5.13253 1.68666,-3.43163 4.66025,-3.60242z" fill="#ffffff"/>
 </g>
</svg>