<svg version="1.1" id="Layer_1" xmlns="http://www.w3.org/2000/svg" xmlns:xlink="http://www.w3.org/1999/xlink" x="0px" y="0px"
	 width="100%" viewBox="0 0 200 80" enable-background="new 0 0 200 80" xml:space="preserve">
<path fill="#F9F9F9" opacity="1.000000" stroke="none" 
	d="
M146.000000,81.000000 
	C97.333336,81.000000 49.166679,81.000000 1.000013,81.000000 
	C1.000009,54.333344 1.000009,27.666685 1.000004,1.000020 
	C67.666649,1.000013 134.333298,1.000013 200.999969,1.000007 
	C200.999969,27.666647 200.999969,54.333294 200.999985,80.999969 
	C182.833328,81.000000 164.666672,81.000000 146.000000,81.000000 
M191.334595,13.467385 
	C189.293594,12.105411 187.420319,10.011545 185.184601,9.499139 
	C169.586044,5.924101 153.931152,3.046404 137.746414,5.476866 
	C131.029404,6.485559 124.138359,6.803157 117.338661,6.691534 
	C105.024895,6.489393 92.716919,5.232024 80.412621,5.315475 
	C60.328178,5.451693 40.249992,6.368985 20.166328,6.834364 
	C12.550076,7.010848 8.743356,9.411610 7.985782,17.054968 
	C6.625237,30.781845 5.889024,44.583660 5.339864,58.372002 
	C5.091404,64.610367 8.183059,69.462143 14.576828,70.974892 
	C21.324955,72.571487 28.188425,74.369019 35.056576,74.630104 
	C50.528992,75.218262 66.038414,75.127075 81.527214,74.912010 
	C98.971695,74.669785 116.408623,73.922142 133.852005,73.537773 
	C138.998260,73.424370 144.164108,73.655960 149.305267,73.979408 
	C157.509262,74.495544 165.494568,73.951050 173.461334,71.517525 
	C183.597534,68.421333 190.375565,62.493744 192.236328,51.813271 
	C192.801575,48.568855 193.009598,45.208740 192.920792,41.914028 
	C192.670868,32.643848 192.181427,23.380119 191.334595,13.467385 
z"/>
<path fill="#0A0A0A" opacity="1.000000" stroke="none" 
	d="
M191.560501,13.790617 
	C192.181427,23.380119 192.670868,32.643848 192.920792,41.914028 
	C193.009598,45.208740 192.801575,48.568855 192.236328,51.813271 
	C190.375565,62.493744 183.597534,68.421333 173.461334,71.517525 
	C165.494568,73.951050 157.509262,74.495544 149.305267,73.979408 
	C144.164108,73.655960 138.998260,73.424370 133.852005,73.537773 
	C116.408623,73.922142 98.971695,74.669785 81.527214,74.912010 
	C66.038414,75.127075 50.528992,75.218262 35.056576,74.630104 
	C28.188425,74.369019 21.324955,72.571487 14.576828,70.974892 
	C8.183059,69.462143 5.091404,64.610367 5.339864,58.372002 
	C5.889024,44.583660 6.625237,30.781845 7.985782,17.054968 
	C8.743356,9.411610 12.550076,7.010848 20.166328,6.834364 
	C40.249992,6.368985 60.328178,5.451693 80.412621,5.315475 
	C92.716919,5.232024 105.024895,6.489393 117.338661,6.691534 
	C124.138359,6.803157 131.029404,6.485559 137.746414,5.476866 
	C153.931152,3.046404 169.586044,5.924101 185.184601,9.499139 
	C187.420319,10.011545 189.293594,12.105411 191.560501,13.790617 
M171.040985,13.440991 
	C161.785187,12.810834 152.385544,10.858640 143.305771,11.846423 
	C127.959221,13.515963 112.755386,12.812552 97.446342,12.527072 
	C77.843933,12.161529 58.203690,12.259364 38.625175,13.152840 
	C32.913380,13.413501 27.259731,14.391264 21.527445,13.472261 
	C17.223623,12.782271 14.596996,14.663597 14.309320,18.906513 
	C13.420648,32.013485 12.717258,45.133919 12.060566,58.255062 
	C11.902505,61.413227 13.481605,63.837955 16.664352,64.518936 
	C22.802561,65.832260 28.969078,67.650871 35.175858,67.885742 
	C53.305305,68.571770 71.459908,68.747398 89.605537,68.796532 
	C101.416046,68.828522 113.227837,68.278381 125.039566,68.011864 
	C133.989792,67.809914 142.947205,67.353409 151.889618,67.549057 
	C159.804108,67.722198 167.422470,67.170845 174.626663,63.377071 
	C174.204544,62.053963 173.465454,60.929020 173.580460,59.899464 
	C174.205261,54.305420 174.985214,49.295597 172.571548,43.284138 
	C170.141052,37.230747 179.252853,41.837143 180.998856,38.009586 
	C182.249466,39.441391 184.413605,40.798264 184.538635,42.322395 
	C184.730728,44.664356 183.555496,47.130493 182.899078,49.527126 
	C181.987213,52.856472 181.018570,56.170265 180.074219,59.490715 
	C180.797424,59.699352 181.520630,59.907993 182.243851,60.116634 
	C183.563141,55.508293 185.599182,50.965405 186.027451,46.275696 
	C186.614685,39.844986 185.841980,33.301567 185.903519,26.808836 
	C186.010742,15.498178 185.756042,15.123756 174.380844,13.900671 
	C173.553009,13.811662 172.728806,13.688791 171.040985,13.440991 
z"/>
<path fill="#F8F8F8" opacity="1.000000" stroke="none" 
	d="
M171.471954,13.511327 
	C172.728806,13.688791 173.553009,13.811662 174.380844,13.900671 
	C185.756042,15.123756 186.010742,15.498178 185.903519,26.808836 
	C185.841980,33.301567 186.614685,39.844986 186.027451,46.275696 
	C185.599182,50.965405 183.563141,55.508293 182.243851,60.116634 
	C181.520630,59.907993 180.797424,59.699352 180.074219,59.490715 
	C181.018570,56.170265 181.987213,52.856472 182.899078,49.527126 
	C183.555496,47.130493 184.730728,44.664356 184.538635,42.322395 
	C184.413605,40.798264 182.249466,39.441391 180.998856,38.009590 
	C179.252853,41.837143 170.141052,37.230747 172.571548,43.284138 
	C174.985214,49.295597 174.205261,54.305420 173.580460,59.899464 
	C173.465454,60.929020 174.204544,62.053963 174.626663,63.377071 
	C167.422470,67.170845 159.804108,67.722198 151.889618,67.549057 
	C142.947205,67.353409 133.989792,67.809914 125.039566,68.011864 
	C113.227837,68.278381 101.416046,68.828522 89.605537,68.796532 
	C71.459908,68.747398 53.305305,68.571770 35.175858,67.885742 
	C28.969078,67.650871 22.802561,65.832260 16.664352,64.518936 
	C13.481605,63.837955 11.902505,61.413227 12.060566,58.255062 
	C12.717258,45.133919 13.420648,32.013485 14.309320,18.906513 
	C14.596996,14.663597 17.223623,12.782271 21.527445,13.472261 
	C27.259731,14.391264 32.913380,13.413501 38.625175,13.152840 
	C58.203690,12.259364 77.843933,12.161529 97.446342,12.527072 
	C112.755386,12.812552 127.959221,13.515963 143.305771,11.846423 
	C152.385544,10.858640 161.785187,12.810834 171.471954,13.511327 
M127.635429,50.694080 
	C119.904427,48.675591 121.316437,42.609371 121.528076,37.020554 
	C121.666061,33.376820 121.893532,29.700047 121.527786,26.094177 
	C121.406067,24.894161 119.621582,23.074951 118.494392,22.995354 
	C117.451912,22.921736 115.337921,24.763474 115.300766,25.818233 
	C115.014847,33.934551 114.787918,42.083031 115.236191,50.183147 
	C115.480865,54.604523 119.487732,55.013363 123.136841,55.251480 
	C126.214371,55.452297 127.899323,54.274437 128.726883,51.141991 
	C130.689316,51.691460 132.840729,53.047691 134.579071,52.640484 
	C139.988373,51.373337 142.769150,41.069073 138.850052,37.108482 
	C137.976410,36.225597 135.774719,35.905319 134.493134,36.308105 
	C129.021133,38.027901 127.059372,42.945099 127.635429,50.694080 
M83.381706,35.681122 
	C83.381706,35.681122 83.374664,35.567760 83.262558,34.769928 
	C82.812790,32.192093 82.612267,29.533529 81.813858,27.068624 
	C81.378914,25.725834 79.929535,24.711630 78.937683,23.549231 
	C77.732567,24.667849 76.289909,25.629423 75.408783,26.962231 
	C74.853951,27.801487 75.140045,29.196680 75.052567,30.296400 
	C70.034775,31.723560 70.034775,31.723560 69.365555,36.493988 
	C67.243195,33.847660 64.610985,32.661514 61.514622,34.532890 
	C58.185482,36.544952 55.386070,39.722080 56.994331,43.538025 
	C58.062969,46.073605 61.476318,47.620987 63.840141,49.610703 
	C64.133080,49.259167 64.426018,48.907631 64.718956,48.556099 
	C65.653801,50.308731 66.215202,52.521408 67.636322,53.674999 
	C68.873566,54.679325 71.081528,54.487823 72.860550,54.824741 
	C72.956558,53.196209 73.382263,51.505032 73.086967,49.950844 
	C72.188553,45.222328 71.011795,40.546700 70.601921,36.281948 
	C72.271461,36.887566 73.941002,37.493183 75.864807,38.191036 
	C75.864807,40.147411 75.835915,42.118458 75.872894,44.088264 
	C75.910271,46.078964 75.557602,48.244167 76.235695,50.001038 
	C76.748207,51.328911 78.614273,52.134357 79.877937,53.172314 
	C80.595482,51.919640 81.777016,50.722046 81.933617,49.402786 
	C82.255974,46.687214 82.030563,43.906620 82.030563,41.152782 
	C82.483665,41.032581 82.936768,40.912380 83.389862,40.792183 
	C83.890266,41.851738 84.783867,42.895130 84.828201,43.973442 
	C85.151482,51.835487 87.595261,54.696053 95.082474,54.710819 
	C96.708481,54.714031 98.338211,52.825924 99.966232,51.808929 
	C98.641853,50.586224 97.461151,49.127258 95.951500,48.209240 
	C94.526848,47.342911 92.756088,47.045715 91.137581,46.498169 
	C91.263321,45.909992 91.389053,45.321812 91.514793,44.733635 
	C93.675323,44.733635 96.047638,45.295280 97.939209,44.582012 
	C99.996002,43.806442 102.775200,42.059170 103.087723,40.343594 
	C103.411308,38.567268 101.619904,35.334663 99.908638,34.525089 
	C97.683525,33.472412 94.605133,33.957901 91.930344,34.193764 
	C89.095940,34.443703 86.304184,35.177128 83.381706,35.681122 
M157.478745,49.956600 
	C157.478745,49.956600 157.972260,50.012009 158.097656,50.765205 
	C158.270889,55.959988 162.974731,54.773682 165.825974,55.985397 
	C166.760437,56.382519 168.811539,55.480133 169.642136,54.542919 
	C172.068176,51.805466 170.482681,43.282524 166.978210,42.142277 
	C163.532913,41.021290 162.912323,38.920189 162.533340,36.031982 
	C162.209595,33.564774 162.026001,30.973034 161.084625,28.728149 
	C160.389633,27.070787 158.574753,25.883043 157.258835,24.486059 
	C156.400650,26.192875 154.840668,27.894382 154.827698,29.607590 
	C154.799103,33.388031 155.550003,37.174370 155.508209,41.176945 
	C155.337830,41.213272 155.167465,41.249603 154.368576,40.805550 
	C152.821686,40.366173 151.274780,39.926800 149.694489,39.477936 
	C148.893921,35.795338 148.080994,32.090420 147.284882,28.381893 
	C146.734512,25.818094 145.868240,22.957661 142.687866,24.124989 
	C141.533264,24.548775 140.795303,27.834080 140.937347,29.733744 
	C141.330231,34.988373 142.912262,40.208748 142.846176,45.427750 
	C142.779404,50.702465 145.456375,52.689548 149.686859,54.119900 
	C153.892960,55.542007 154.934250,51.881405 157.478745,49.956600 
M18.575695,26.251072 
	C15.127596,31.681238 15.293115,45.382481 19.409475,49.848446 
	C20.700804,51.249451 23.601938,51.166664 25.766232,51.763039 
	C25.595776,49.917328 26.017929,47.707371 25.147797,46.291714 
	C22.092394,41.320759 22.452127,34.194771 26.013321,29.197338 
	C26.776884,28.125832 26.704762,25.352562 25.858370,24.448374 
	C23.363144,21.782755 21.108871,23.824284 18.575695,26.251072 
M42.444653,47.689213 
	C43.747646,51.427689 45.977257,54.299786 50.285370,53.827656 
	C51.864147,53.654629 53.273544,51.936020 54.760208,50.922466 
	C53.637451,49.717018 52.588531,48.428318 51.361706,47.340210 
	C50.719986,46.771053 49.765713,46.554298 48.746922,46.083302 
	C50.490513,43.450665 52.606884,41.337357 53.299072,38.830761 
	C53.762920,37.151035 52.206051,34.913292 51.553364,32.925236 
	C49.723282,33.607265 46.872047,33.794083 46.255825,35.064774 
	C44.453682,38.780899 43.542591,42.929146 42.444653,47.689213 
M29.091681,49.135921 
	C30.485506,49.715683 32.699127,51.130699 33.119232,50.718369 
	C34.372440,49.488358 35.373833,47.612980 35.651211,45.859600 
	C36.204849,42.359879 35.261036,38.323513 40.650223,37.647213 
	C41.445877,37.547367 42.690224,35.232849 42.451679,34.253654 
	C42.195217,33.200882 40.541439,32.011654 39.314129,31.753693 
	C33.595516,30.551733 28.112558,35.513275 28.397736,41.416515 
	C28.509218,43.724270 28.697878,46.028301 29.091681,49.135921 
z"/>
<path fill="#0C0C0C" opacity="1.000000" stroke="none" 
	d="
M155.982864,40.958302 
	C155.550003,37.174370 154.799103,33.388031 154.827698,29.607590 
	C154.840668,27.894382 156.400650,26.192875 157.258835,24.486061 
	C158.574753,25.883043 160.389633,27.070787 161.084625,28.728149 
	C162.026001,30.973034 162.209595,33.564774 162.533340,36.031982 
	C162.912323,38.920189 163.532913,41.021290 166.978210,42.142277 
	C170.482681,43.282524 172.068176,51.805466 169.642136,54.542919 
	C168.811539,55.480133 166.760437,56.382519 165.825974,55.985397 
	C162.974731,54.773682 158.270889,55.959988 158.252060,50.234135 
	C158.244675,49.271648 158.082886,48.840237 157.921112,48.408821 
	C157.613861,48.881443 157.306625,49.354065 156.999405,49.826691 
	C154.934250,51.881405 153.892960,55.542007 149.686859,54.119900 
	C145.456375,52.689548 142.779404,50.702465 142.846176,45.427750 
	C142.912262,40.208748 141.330231,34.988373 140.937347,29.733744 
	C140.795303,27.834080 141.533264,24.548775 142.687866,24.124989 
	C145.868240,22.957661 146.734512,25.818094 147.284882,28.381893 
	C148.080994,32.090420 148.893921,35.795338 149.694489,39.477936 
	C151.274780,39.926800 152.821686,40.366173 154.691269,41.373955 
	C155.729340,42.821014 156.444717,43.699677 157.160095,44.578335 
	C157.475204,44.289879 157.790298,44.001427 158.105392,43.712971 
	C157.397873,42.794746 156.690369,41.876526 155.982864,40.958302 
z"/>
<path fill="#090909" opacity="1.000000" stroke="none" 
	d="
M70.047035,35.969536 
	C70.034775,31.723560 70.034775,31.723560 75.052567,30.296400 
	C75.140045,29.196680 74.853951,27.801487 75.408783,26.962231 
	C76.289909,25.629423 77.732567,24.667849 78.937683,23.549229 
	C79.929535,24.711630 81.378914,25.725834 81.813858,27.068624 
	C82.612267,29.533529 82.812790,32.192093 83.119156,35.266380 
	C82.966095,35.949722 82.956436,36.136608 82.946777,36.323494 
	C83.129112,36.115456 83.311455,35.907421 83.493797,35.699387 
	C86.304184,35.177128 89.095940,34.443703 91.930344,34.193764 
	C94.605133,33.957901 97.683525,33.472412 99.908638,34.525089 
	C101.619904,35.334663 103.411308,38.567268 103.087723,40.343594 
	C102.775200,42.059170 99.996002,43.806442 97.939209,44.582012 
	C96.047638,45.295280 93.675323,44.733635 91.514793,44.733635 
	C91.389053,45.321812 91.263321,45.909992 91.137581,46.498169 
	C92.756088,47.045715 94.526848,47.342911 95.951500,48.209240 
	C97.461151,49.127258 98.641853,50.586224 99.966232,51.808929 
	C98.338211,52.825924 96.708481,54.714031 95.082474,54.710819 
	C87.595261,54.696053 85.151482,51.835487 84.828201,43.973442 
	C84.783867,42.895130 83.890266,41.851738 83.389862,40.792183 
	C82.936768,40.912380 82.483665,41.032581 82.030563,41.152782 
	C82.030563,43.906620 82.255974,46.687214 81.933617,49.402786 
	C81.777016,50.722046 80.595482,51.919640 79.877930,53.172314 
	C78.614273,52.134357 76.748207,51.328911 76.235695,50.001038 
	C75.557602,48.244167 75.910271,46.078964 75.872894,44.088264 
	C75.835915,42.118458 75.864807,40.147411 75.864807,38.191036 
	C73.941002,37.493183 72.271461,36.887566 70.286255,36.106697 
	C69.970596,35.931442 70.047035,35.969536 70.047035,35.969536 
z"/>
<path fill="#0C0C0C" opacity="1.000000" stroke="none" 
	d="
M128.014603,51.112988 
	C127.899323,54.274437 126.214371,55.452297 123.136841,55.251480 
	C119.487732,55.013363 115.480865,54.604523 115.236191,50.183147 
	C114.787918,42.083031 115.014847,33.934551 115.300766,25.818233 
	C115.337921,24.763474 117.451912,22.921736 118.494392,22.995354 
	C119.621582,23.074951 121.406067,24.894161 121.527786,26.094177 
	C121.893532,29.700047 121.666061,33.376820 121.528076,37.020554 
	C121.316437,42.609371 119.904427,48.675591 127.857742,50.944077 
	C128.080063,51.194069 128.014603,51.112988 128.014603,51.112988 
z"/>
<path fill="#0A0A0A" opacity="1.000000" stroke="none" 
	d="
M69.957001,35.890961 
	C71.011795,40.546700 72.188553,45.222328 73.086967,49.950844 
	C73.382263,51.505032 72.956558,53.196209 72.860550,54.824741 
	C71.081528,54.487823 68.873566,54.679325 67.636322,53.674999 
	C66.215202,52.521408 65.653801,50.308731 64.718956,48.556099 
	C64.426018,48.907631 64.133080,49.259167 63.840141,49.610703 
	C61.476318,47.620987 58.062969,46.073605 56.994331,43.538025 
	C55.386070,39.722080 58.185482,36.544952 61.514622,34.532890 
	C64.610985,32.661514 67.243195,33.847660 69.706299,36.231762 
	C70.047035,35.969536 69.970596,35.931442 69.957001,35.890961 
z"/>
<path fill="#0F0F0F" opacity="1.000000" stroke="none" 
	d="
M18.832867,25.971745 
	C21.108871,23.824284 23.363144,21.782755 25.858370,24.448374 
	C26.704762,25.352562 26.776884,28.125832 26.013321,29.197338 
	C22.452127,34.194771 22.092394,41.320759 25.147797,46.291714 
	C26.017929,47.707371 25.595776,49.917328 25.766232,51.763039 
	C23.601938,51.166664 20.700804,51.249451 19.409475,49.848446 
	C15.293115,45.382481 15.127596,31.681238 18.832867,25.971745 
z"/>
<path fill="#0E0E0E" opacity="1.000000" stroke="none" 
	d="
M42.363487,47.298637 
	C43.542591,42.929146 44.453682,38.780899 46.255825,35.064774 
	C46.872047,33.794083 49.723282,33.607265 51.553360,32.925236 
	C52.206051,34.913292 53.762920,37.151035 53.299072,38.830761 
	C52.606884,41.337357 50.490513,43.450665 48.746922,46.083302 
	C49.765713,46.554298 50.719986,46.771053 51.361706,47.340210 
	C52.588531,48.428318 53.637451,49.717018 54.760208,50.922462 
	C53.273544,51.936020 51.864147,53.654629 50.285370,53.827656 
	C45.977257,54.299786 43.747646,51.427689 42.363487,47.298637 
z"/>
<path fill="#101010" opacity="1.000000" stroke="none" 
	d="
M28.971535,48.734974 
	C28.697878,46.028301 28.509218,43.724270 28.397736,41.416515 
	C28.112558,35.513275 33.595516,30.551733 39.314129,31.753693 
	C40.541439,32.011654 42.195217,33.200882 42.451679,34.253654 
	C42.690224,35.232849 41.445877,37.547367 40.650223,37.647213 
	C35.261036,38.323513 36.204849,42.359879 35.651211,45.859600 
	C35.373833,47.612980 34.372440,49.488358 33.119232,50.718369 
	C32.699127,51.130699 30.485506,49.715683 28.971535,48.734974 
z"/>
<path fill="#080808" opacity="1.000000" stroke="none" 
	d="
M128.115768,51.232018 
	C127.059372,42.945099 129.021133,38.027901 134.493134,36.308105 
	C135.774719,35.905319 137.976410,36.225597 138.850052,37.108482 
	C142.769150,41.069073 139.988373,51.373337 134.579071,52.640484 
	C132.840729,53.047691 130.689316,51.691460 128.370743,51.127487 
	C128.014603,51.112988 128.080063,51.194069 128.115768,51.232018 
z"/>
<path fill="#0C0C0C" opacity="1.000000" stroke="none" 
	d="
M155.745544,41.067623 
	C156.690369,41.876526 157.397873,42.794746 158.105392,43.712971 
	C157.790298,44.001427 157.475204,44.289879 157.160095,44.578335 
	C156.444717,43.699677 155.729340,42.821014 155.005539,41.614143 
	C155.167465,41.249603 155.337830,41.213272 155.745544,41.067623 
z"/>
<path fill="#0C0C0C" opacity="1.000000" stroke="none" 
	d="
M157.239075,49.891644 
	C157.306625,49.354065 157.613861,48.881443 157.921112,48.408821 
	C158.082886,48.840237 158.244675,49.271648 158.189362,49.857536 
	C157.972260,50.012009 157.478745,49.956600 157.239075,49.891644 
z"/>
<path fill="#0C0C0C" opacity="1.000000" stroke="none" 
	d="
M83.437752,35.690254 
	C83.311455,35.907421 83.129112,36.115456 82.946777,36.323494 
	C82.956436,36.136608 82.966095,35.949722 83.175209,35.665298 
	C83.374664,35.567760 83.381706,35.681122 83.437752,35.690254 
z"/>
</svg>