<svg width="400" height="150" xmlns="http://www.w3.org/2000/svg" xml:space="preserve" enable-background="new 0 0 400 150" version="1.1">

 <g>
  <title>Layer 1</title>
  <path id="svg_2" d="m226.40826,8.55607c24.79517,0.1408 49.12162,0.16995 73.44477,0.46781c11.14883,0.13653 22.28985,1.07962 33.43698,1.13473c8.29495,0.04102 16.59912,-1.16343 24.88989,-1.06087c7.31122,0.09044 14.54068,1.22014 20.91004,5.59623c7.70684,5.29503 9.42611,13.49131 10.6737,21.72583c1.11774,7.37731 1.56696,14.88337 1.86923,22.35052c0.49167,12.14483 1.2154,24.32764 0.737,36.45085c-0.46389,11.75509 -2.05572,23.49148 -3.66003,35.16631c-0.99286,7.22547 -5.89209,12.02409 -12.9527,12.6973c-11.71316,1.1168 -23.52862,1.29767 -35.30789,1.54591c-11.9574,0.25197 -23.92374,0.04585 -35.88498,0.16261c-6.49182,0.06336 -12.9808,0.5438 -19.47165,0.55677c-31.15276,0.06228 -62.30652,0.16281 -93.45821,-0.02916c-14.48236,-0.08924 -28.96026,-1.12776 -43.4412,-1.15288c-12.64162,-0.02194 -25.29528,1.32675 -37.92471,1.08437c-21.12704,-0.40546 -42.25794,-1.29293 -63.34772,-2.61001c-8.07841,-0.50451 -16.15867,-2.32684 -24.0145,-4.39707c-3.22735,-0.85048 -7.15975,-3.32029 -8.5086,-6.13709c-3.09432,-6.46182 -6.14419,-13.4662 -6.78658,-20.47269c-1.3492,-14.71568 -1.44792,-29.57534 -1.40886,-44.37417c0.01512,-5.72639 1.54867,-11.50359 2.82453,-17.15973c2.23044,-9.88796 4.60645,-19.75243 7.29107,-29.5252c1.69209,-6.15966 5.86868,-10.11977 12.53033,-10.41866c14.42065,-0.64702 28.84919,-1.12966 43.27711,-1.59943c10.65025,-0.34678 21.3034,-0.72501 31.95745,-0.8077c17.63343,-0.13685 35.26877,-0.09444 52.90302,-0.0392c17.82721,0.05585 35.65433,0.18929 53.48089,0.3539c5.15824,0.04763 10.31443,0.31968 15.94162,0.49072m146.80091,125.6003c3.97949,-0.67303 6.20199,-3.11218 6.65481,-7.02459c1.18369,-10.22697 2.88437,-20.44651 3.21381,-30.70643c0.39477,-12.29358 -0.29739,-24.63043 -0.75485,-36.93976c-0.25891,-6.96687 -0.60047,-13.97422 -1.62333,-20.85655c-0.96609,-6.50043 -1.53451,-13.93424 -8.65093,-16.97137c-4.76468,-2.03346 -10.2262,-3.17708 -15.41218,-3.31065c-8.27322,-0.21308 -16.5808,1.19658 -24.86639,1.119c-19.63852,-0.18385 -39.27035,-1.02334 -58.909,-1.26233c-36.47038,-0.44381 -72.94369,-0.64686 -109.41572,-0.95831c-1.16461,-0.00994 -2.32829,-0.15493 -3.49274,-0.16008c-17.29565,-0.07651 -34.59232,-0.28069 -51.88676,-0.16235c-13.98111,0.09567 -27.96125,0.52234 -41.93859,0.91672c-11.42456,0.32235 -22.84423,0.81715 -34.26632,1.22853c-4.08053,0.14696 -6.34762,2.29895 -7.27673,6.21943c-2.10681,8.88985 -4.47106,17.72129 -6.43344,26.64185c-1.24499,5.65944 -2.69237,11.42815 -2.75635,17.16227c-0.14279,12.79753 0.07171,25.63909 1.05777,38.39181c0.47331,6.12129 2.6917,12.20559 4.83824,18.04242c0.68171,1.85369 3.55737,3.81129 5.64486,4.08691c12.00134,1.58456 24.05296,2.85018 36.11746,3.86993c6.62426,0.55993 13.33616,0.09183 19.95825,0.66664c18.58839,1.61352 37.10667,2.31314 55.81963,1.24631c16.40106,-0.93505 32.93087,0.61693 49.4056,0.69616c31.97992,0.15383 63.96113,0.07042 95.94171,0.02234c5.99164,-0.009 11.98196,-0.35608 17.97436,-0.47044c12.30732,-0.23485 24.616,-0.39794 36.9234,-0.62804c11.10422,-0.20761 22.20756,-0.46516 34.13343,-0.85942z" fill="#090909"/>
  <path id="svg_3" d="m372.7981,134.23573c-11.5148,0.3149 -22.61814,0.57245 -33.72236,0.78006c-12.3074,0.2301 -24.61608,0.39319 -36.9234,0.62804c-5.9924,0.11436 -11.98272,0.46144 -17.97436,0.47044c-31.98058,0.04808 -63.96179,0.13149 -95.94171,-0.02234c-16.47473,-0.07923 -33.00454,-1.63121 -49.4056,-0.69616c-18.71296,1.06683 -37.23124,0.36721 -55.81963,-1.24631c-6.62209,-0.57481 -13.33399,-0.10671 -19.95825,-0.66664c-12.0645,-1.01975 -24.11612,-2.28537 -36.11746,-3.86993c-2.08749,-0.27562 -4.96315,-2.23322 -5.64486,-4.08691c-2.14654,-5.83683 -4.36493,-11.92113 -4.83824,-18.04242c-0.98606,-12.75272 -1.20056,-25.59428 -1.05777,-38.39181c0.06398,-5.73412 1.51136,-11.50283 2.75635,-17.16227c1.96238,-8.92056 4.32663,-17.752 6.43344,-26.64185c0.92911,-3.92048 3.1962,-6.07247 7.27673,-6.21943c11.42209,-0.41138 22.84176,-0.90618 34.26632,-1.22853c13.97734,-0.39438 27.95748,-0.82105 41.93859,-0.91672c17.29444,-0.11834 34.59111,0.08584 51.88676,0.16235c1.16445,0.00515 2.32813,0.15014 3.49274,0.16008c36.47203,0.31145 72.94534,0.5145 109.41572,0.95831c19.63865,0.23899 39.27048,1.07848 58.909,1.26233c8.28559,0.07758 16.59317,-1.33208 24.86639,-1.119c5.18598,0.13357 10.6475,1.27719 15.41218,3.31065c7.11642,3.03713 7.68484,10.47094 8.65093,16.97137c1.02286,6.88233 1.36442,13.88968 1.62333,20.85655c0.45746,12.30933 1.14962,24.64618 0.75485,36.93976c-0.32944,10.25992 -2.03012,20.47946 -3.21381,30.70643c-0.45282,3.91241 -2.67532,6.35156 -7.06588,7.10395m-302.75698,-93.21485c-4.78655,-2.62274 -7.5031,-1.28683 -7.92658,4.20054c-0.5251,6.80412 -0.67301,13.63664 -1.13982,20.4462c-0.35685,5.20556 -0.95605,10.39451 -1.58149,17.00826c-2.02608,-2.74123 -3.32973,-4.06059 -4.11376,-5.63819c-4.94249,-9.9452 -9.6371,-20.01654 -14.75236,-29.87034c-0.96444,-1.85784 -3.55489,-4.14841 -5.20793,-4.00969c-1.62444,0.13632 -4.24218,3.06278 -4.31041,4.84576c-0.65532,17.12204 -0.97582,34.26098 -1.00876,51.39583c-0.003,1.56031 2.66235,3.12575 4.08859,4.68882c1.5899,-1.59471 3.97798,-2.93946 4.57473,-4.84517c0.80984,-2.58616 0.26692,-5.60171 0.27145,-8.43315c0.01117,-6.98464 0.00366,-13.96932 0.00366,-20.95398c6.50373,9.02566 11.93446,18.15876 17.65594,27.10594c0.91927,1.43755 3.17363,2.87359 4.74316,2.80313c1.56615,-0.0703 3.42664,-1.76943 4.45654,-3.24434c0.98491,-1.41048 1.3423,-3.42647 1.50318,-5.21873c1.38327,-15.41015 2.68022,-30.82824 3.9234,-46.25037c0.08847,-1.09755 -0.45255,-2.24585 -1.17954,-4.03052m188.77565,0.50495c-1.26111,2.09175 -3.63574,4.20002 -3.60498,6.27259c0.22225,14.97144 0.78642,29.94431 1.68143,44.89044c0.10382,1.73414 2.68542,3.61825 4.50873,4.859c1.52447,1.03738 3.60843,1.27865 5.46695,1.79149c1.73642,0.47913 3.54116,1.32909 5.2485,1.18994c8.12799,-0.66246 15.14462,-3.9268 18.43033,-11.67525c3.26166,-7.69184 2.52893,-15.70527 -3.68289,-21.77161c-2.68933,-2.62635 -7.05301,-4.49194 -10.81131,-4.79808c-3.65759,-0.29794 -7.51358,1.83906 -11.81162,3.05686c0,-5.54056 -0.00955,-11.52418 0.00382,-17.50775c0.00735,-3.29737 -0.75403,-6.00835 -5.42896,-6.30763m-109.07516,43.75383c1.34172,-4.79554 3.03071,-9.53344 3.84103,-14.41716c0.29251,-1.76285 -1.52331,-3.87549 -2.37704,-5.82851c-2.0485,0.93897 -4.78365,1.36266 -5.9724,2.94678c-1.50061,1.99973 -1.75291,4.94188 -2.52087,7.48439c-1.16636,3.86146 -2.31302,7.72887 -3.46807,11.59375c-2.38247,-4.2486 -3.33607,-8.48387 -5.00238,-12.41721c-0.86004,-2.03011 -3.04516,-4.96808 -4.52661,-4.908c-2.02513,0.08214 -4.42343,2.28885 -5.80106,4.20399c-1.80764,2.51294 -2.77687,5.62898 -4.55819,9.45554c-0.39452,-5.90209 -0.68473,-10.52425 -1.01897,-15.14323c-0.21544,-2.97738 -1.57893,-5.81545 -4.70818,-4.9999c-1.83946,0.47941 -4.38575,3.67168 -4.24124,5.45105c0.88446,10.891 2.24838,21.75884 3.97874,32.55003c0.29311,1.82793 3.07446,4.42548 4.81734,4.51547c1.66011,0.08571 4.14725,-2.31056 5.06782,-4.20134c2.03759,-4.18509 3.31999,-8.73786 5.01612,-13.4334c2.38175,4.47156 4.08947,8.70917 6.73749,12.24195c1.46541,1.95501 4.73306,4.02585 6.7697,3.66722c1.97737,-0.3482 4.07672,-3.49189 4.94804,-5.84317c1.42843,-3.85463 1.90636,-8.06148 3.01873,-12.91825m147.6878,-45.50462c-0.60748,2.62838 -1.83499,5.28517 -1.71603,7.88028c0.54022,11.78939 1.5343,23.55713 2.20984,35.34155c0.31174,5.43784 0.25433,10.5324 5.40549,14.54958c3.16015,2.46448 5.824,3.64654 9.4122,2.4189c9.77386,-3.34395 19.5271,-20.24115 17.66973,-30.42666c-0.8869,-4.86354 -4.24816,-8.50746 -9.14773,-8.23287c-5.04859,0.28294 -10.02356,1.87901 -15.22275,2.9397c-0.41806,-5.95839 -0.81067,-12.89667 -1.42755,-19.81495c-0.34122,-3.82667 -1.96661,-6.44704 -7.1832,-4.65553m-52.1091,60.81692c0.491,-8.02208 1.39461,-16.04908 1.29888,-24.06414c-0.04785,-4.00507 -1.47444,-8.17881 -3.07598,-11.93583c-2.27737,-5.34247 -4.94302,-5.84278 -10.009,-2.92656c-0.77327,0.44513 -1.82408,0.57644 -2.74428,0.56913c-4.17379,-0.03314 -6.78763,2.31431 -8.76285,5.62195c-7.00222,11.72581 -1.04275,29.50145 11.63797,34.47075c3.81772,1.49609 7.7416,2.08323 11.65526,-1.7353m-61.16879,-46.06428c0.00043,4.82043 -0.11385,9.6442 0.02609,14.46058c0.2605,8.9662 0.40726,17.94849 1.1032,26.88499c0.50796,6.5228 3.02646,8.63642 9.21342,8.66489c4.81006,0.02213 9.62651,-0.22556 14.43111,-0.5071c3.44565,-0.20189 6.61311,-1.38779 6.06343,-5.55545c-0.52242,-3.96091 -3.86279,-3.78279 -7.01094,-3.67437c-4.40386,0.15167 -8.81682,0.03826 -13.57155,0.03826c-0.13231,-2.55545 -0.3206,-4.84648 -0.35825,-7.13999c-0.22636,-13.78936 -0.42228,-27.57925 -0.61848,-41.3691c-0.04768,-3.35123 -0.42296,-6.87806 -4.71562,-6.75919c-4.19858,0.11627 -4.53556,3.66736 -4.55701,6.98983c-0.01504,2.32701 -0.0045,4.65418 -0.0054,7.96665m-96.13867,7.62151c-9.7902,3.7362 -15.34702,16.14999 -12.50312,27.93166c2.0532,8.50598 8.20341,13.19732 17.0383,13.01161c3.37006,-0.07085 6.85579,-0.66232 7.01102,-4.697c0.16597,-4.31376 -3.29485,-4.54566 -6.73083,-4.57796c-5.63208,-0.05294 -7.35847,-1.75002 -7.8755,-7.09281c13.6444,-1.8669 17.96445,-5.24327 17.40602,-13.60385c-0.43586,-6.52562 -5.67542,-10.80765 -14.34589,-10.97165m253.39831,54.97318c2.13001,-1.67565 5.10798,-2.9096 6.24909,-5.10034c6.29053,-12.0767 12.21957,-24.34567 18.06604,-36.64687c1.43033,-3.00943 1.71893,-6.56094 -2.33118,-7.91635c-3.79434,-1.26982 -5.18298,1.72365 -6.39609,4.65153c-1.4584,3.51996 -3.0834,6.9709 -4.63629,10.45173c-2.32693,-4.55824 -3.47711,-8.72132 -4.69189,-12.86547c-0.86273,-2.94318 -2.34803,-5.54514 -5.93079,-4.52385c-3.37997,0.96348 -3.89914,3.825 -3.04434,6.88255c1.38721,4.96185 1.94693,10.48793 4.5798,14.69769c5.10559,8.16339 0.10627,13.81725 -3.34067,20.08412c-0.47665,0.86655 -1.25064,1.5665 -1.75451,2.42163c-2.04959,3.4783 -1.97708,6.33821 3.23083,7.86363z" fill="#ffffff"/>
  <path id="svg_4" d="m70.28046,41.35087c0.48765,1.45468 1.02867,2.60298 0.9402,3.70053c-1.24318,15.42213 -2.54013,30.84022 -3.9234,46.25037c-0.16088,1.79226 -0.51827,3.80825 -1.50318,5.21873c-1.0299,1.47491 -2.89039,3.17404 -4.45654,3.24434c-1.56953,0.07046 -3.82389,-1.36558 -4.74316,-2.80313c-5.72148,-8.94718 -11.15221,-18.08028 -17.65594,-27.10594c0,6.98466 0.00751,13.96934 -0.00366,20.95398c-0.00453,2.83144 0.53839,5.84699 -0.27145,8.43315c-0.59675,1.90571 -2.01535,5.2751 -4.57473,4.84517c-2.55938,-0.42993 -4.09159,-3.12851 -4.08859,-4.68882c0.03294,-17.13485 0.35344,-34.27379 1.00876,-51.39583c0.06823,-1.78298 2.68597,-4.70944 4.31041,-4.84576c1.65304,-0.13872 4.24349,2.15185 5.20793,4.00969c5.11526,9.8538 9.80987,19.92514 14.75236,29.87034c0.78403,1.5776 2.08768,2.89696 4.11376,5.63819c0.62544,-6.61375 1.22464,-11.8027 1.58149,-17.00826c0.46681,-6.80956 0.61472,-13.64208 1.13982,-20.4462c0.42348,-5.48737 3.14003,-6.82328 8.16592,-3.87055z" fill="#090909"/>
  <path id="svg_5" d="m259.19244,41.46196c4.29926,0.36315 5.06064,3.07413 5.05329,6.3715c-0.01337,5.98357 -0.00382,11.96719 -0.00382,17.50775c4.29804,-1.2178 8.15403,-3.3548 11.81162,-3.05686c3.7583,0.30614 8.12198,2.17173 10.81131,4.79808c6.21182,6.06634 6.94455,14.07977 3.68289,21.77161c-3.28571,7.74845 -10.30234,11.01279 -18.43033,11.67525c-1.70734,0.13915 -3.51208,-0.71081 -5.2485,-1.18994c-1.85852,-0.51284 -3.94248,-0.75411 -5.46695,-1.79149c-1.82331,-1.24075 -4.40491,-3.12486 -4.50873,-4.859c-0.89501,-14.94613 -1.45918,-29.919 -1.68143,-44.89044c-0.03076,-2.07257 0.92687,-4.78813 3.98065,-6.33646m20.98252,46.15759c3.62051,-4.60721 3.58615,-10.69401 -0.08161,-14.46528c-3.05999,-3.1463 -6.61554,-2.68138 -8.19482,1.36491c-1.86441,4.77686 -3.3248,9.71138 -4.92893,14.48396c4.69687,2.72023 8.80423,2.47059 13.20536,-1.38359z" fill="#090909"/>
  <path id="svg_6" d="m149.62482,85.67889c-0.99558,4.45754 -1.47351,8.66439 -2.90194,12.51902c-0.87132,2.35128 -2.97067,5.49497 -4.94804,5.84317c-2.03664,0.35863 -5.30429,-1.71221 -6.7697,-3.66722c-2.64802,-3.53278 -4.35574,-7.77039 -6.73749,-12.24195c-1.69613,4.69554 -2.97853,9.24831 -5.01612,13.4334c-0.92057,1.89078 -3.40771,4.28705 -5.06782,4.20134c-1.74288,-0.08999 -4.52423,-2.68754 -4.81734,-4.51547c-1.73036,-10.79119 -3.09428,-21.65903 -3.97874,-32.55003c-0.14451,-1.77937 2.40178,-4.97164 4.24124,-5.45105c3.12925,-0.81555 4.49274,2.02252 4.70818,4.9999c0.33424,4.61898 0.62445,9.24114 1.01897,15.14323c1.78132,-3.82656 2.75055,-6.9426 4.55819,-9.45554c1.37763,-1.91514 3.77593,-4.12185 5.80106,-4.20399c1.48145,-0.06008 3.66657,2.87789 4.52661,4.908c1.66631,3.93334 2.61991,8.16861 5.00238,12.41721c1.15505,-3.86488 2.30171,-7.73229 3.46807,-11.59375c0.76796,-2.54251 1.02026,-5.48466 2.52087,-7.48439c1.18875,-1.58412 4.05484,-4.01328 5.9724,-2.94678c1.91756,1.0665 2.66955,4.06566 2.37704,5.82851c-0.81032,4.88372 -2.49931,9.62162 -3.95782,14.81639z" fill="#090909"/>
  <path id="svg_7" d="m297.76065,39.56113c4.88535,-1.5776 6.51074,1.04277 6.85196,4.86944c0.61688,6.91828 1.00949,13.85656 1.42755,19.81495c5.19919,-1.06069 10.17416,-2.65676 15.22275,-2.9397c4.89957,-0.27459 8.26083,3.36933 9.14773,8.23287c1.85737,10.18551 -7.89587,27.08271 -17.66973,30.42666c-3.5882,1.22764 -6.25205,0.04558 -9.4122,-2.4189c-5.15116,-4.01718 -5.09375,-9.11174 -5.40549,-14.54958c-0.67554,-11.78442 -1.66962,-23.55216 -2.20984,-35.34155c-0.11896,-2.59511 1.10855,-5.2519 2.04727,-8.09419m11.54627,48.09793c0.92047,0.56863 2.62063,1.67352 2.65069,1.62977c3.21295,-4.6716 6.45932,-9.33898 9.26202,-14.25824c0.56199,-0.98635 -0.13549,-3.69116 -1.07458,-4.27035c-1.09494,-0.67532 -3.34201,-0.33398 -4.63272,0.3853c-1.45679,0.81183 -2.95184,2.35238 -3.46811,3.89751c-1.29077,3.863 -2.0372,7.90789 -2.7373,12.61601z" fill="#0A0A0A"/>
  <path id="svg_8" d="m245.0894,100.90974c-3.68275,3.50075 -7.60663,2.91361 -11.42435,1.41752c-12.68072,-4.9693 -18.64019,-22.74494 -11.63797,-34.47075c1.97522,-3.30764 4.58906,-5.65509 8.76285,-5.62195c0.9202,0.00731 1.97101,-0.124 2.74428,-0.56913c5.06598,-2.91622 7.73163,-2.41591 10.009,2.92656c1.60154,3.75702 3.02813,7.93076 3.07598,11.93583c0.09573,8.01506 -0.80788,16.04206 -1.52979,24.38192m-6.91823,-18.23133c-0.72641,-4.32498 -1.4528,-8.64995 -2.16974,-12.91858c-6.40602,1.05816 -7.61755,5.30157 -7.56561,10.28322c0.06258,6.00273 3.82381,11.43602 9.73923,13.53894c0,-3.47404 0,-6.7212 -0.00388,-10.90358z" fill="#090909"/>
  <path id="svg_9" d="m184.15152,54.03499c0.0009,-2.81978 -0.00964,-5.14695 0.0054,-7.47396c0.02145,-3.32247 0.35843,-6.87356 4.55701,-6.98983c4.29266,-0.11887 4.66794,3.40796 4.71562,6.75919c0.1962,13.78985 0.39212,27.57974 0.61848,41.3691c0.03765,2.29351 0.22594,4.58454 0.35825,7.13999c4.75473,0 9.16769,0.11341 13.57155,-0.03826c3.14815,-0.10842 6.48852,-0.28654 7.01094,3.67437c0.54968,4.16766 -2.61778,5.35356 -6.06343,5.55545c-4.8046,0.28154 -9.62105,0.52923 -14.43111,0.5071c-6.18696,-0.02847 -8.70546,-2.14209 -9.21342,-8.66489c-0.69594,-8.9365 -0.8427,-17.91879 -1.1032,-26.88499c-0.13994,-4.81638 -0.02566,-9.64015 -0.02609,-14.95327z" fill="#0C0C0C"/>
  <path id="svg_10" d="m88.4155,62.102c8.26782,0.21119 13.50738,4.49322 13.94324,11.01884c0.55843,8.36058 -3.76162,11.73695 -17.40602,13.60385c0.51703,5.34279 2.24342,7.03987 7.8755,7.09281c3.43598,0.0323 6.8968,0.2642 6.73083,4.57796c-0.15523,4.03468 -3.64096,4.62615 -7.01102,4.697c-8.83489,0.18571 -14.9851,-4.50563 -17.0383,-13.01161c-2.8439,-11.78167 2.71292,-24.19546 12.90577,-27.97885m0.03527,10.09337c-0.92832,1.41906 -1.85665,2.83812 -2.78497,4.25718c0.3543,0.46423 0.7086,0.92845 1.06289,1.39269c2.10555,-1.08475 4.2111,-2.16949 6.31664,-3.25424c-1.32336,-0.92138 -2.64673,-1.84275 -4.59456,-2.39563z" fill="#0A0A0A"/>
  <path id="svg_11" d="m341.01538,117.10045c-4.81213,-1.5035 -4.88464,-4.36341 -2.83505,-7.84171c0.50387,-0.85513 1.27786,-1.55508 1.75451,-2.42163c3.44694,-6.26687 8.44626,-11.92073 3.34067,-20.08412c-2.63287,-4.20976 -3.19259,-9.73584 -4.5798,-14.69769c-0.8548,-3.05755 -0.33563,-5.91907 3.04434,-6.88255c3.58276,-1.02129 5.06806,1.58067 5.93079,4.52385c1.21478,4.14415 2.36496,8.30723 4.69189,12.86547c1.55289,-3.48083 3.17789,-6.93177 4.63629,-10.45173c1.21311,-2.92788 2.60175,-5.92135 6.39609,-4.65153c4.05011,1.35541 3.76151,4.90692 2.33118,7.91635c-5.84647,12.3012 -11.77551,24.57017 -18.06604,36.64687c-1.14111,2.19074 -4.11908,3.42469 -6.64487,5.07842z" fill="#0B0B0B"/>
  <path id="svg_12" d="m279.892,88.08004c-4.11817,3.59612 -11.08523,3.67139 -12.9224,1.12553c-1.83717,-2.54586 0.23051,-8.08767 2.09492,-12.86453c1.57928,-4.04629 7.96884,-6.13064 11.02883,-2.98434c3.66776,3.77127 3.70212,9.85807 -0.20135,14.72334z" fill="#ffffff"/>
  <path id="svg_13" d="m307.95999,86.88609c0.83246,-4.34001 2.79346,-7.98004 4.08423,-11.84304c0.51627,-1.54513 2.01132,-3.08568 3.46811,-3.89751c1.29071,-0.71928 3.53778,-1.06062 4.63272,-0.3853c0.93909,0.57919 1.63657,3.284 1.07458,4.27035c-2.8027,4.91926 -3.01263,9.18178 -7.44016,13.04367c-4.42752,3.86188 -4.76666,-0.25142 -5.81949,-1.18816z" fill="#ffffff"/>
  <path id="svg_14" d="m238.17311,83.14601c0.00194,3.71478 0.00194,6.96194 0.00194,10.43598c-5.91542,-2.10292 -9.67665,-7.53621 -9.73923,-13.53894c-0.05194,-4.98165 1.15959,-9.22506 7.56561,-10.28322c0.71694,4.26863 1.44333,8.5936 2.17168,13.38618z" fill="#ffffff"/>
  <path id="svg_15" d="m88.763,70.66432c1.46725,-0.44132 4.03097,-0.02002 4.28233,3.92668c0.25136,3.9467 -4.88449,8.2301 -8.00014,5.10609c-3.11565,-3.124 -1.14946,-3.84568 0.11556,-5.93814c1.26502,-2.09246 2.135,-2.65331 3.60225,-3.09463z" fill="#ffffff"/>
 </g>
</svg>