<svg width="150" height="150" xmlns="http://www.w3.org/2000/svg" xml:space="preserve" enable-background="new 0 0 150 150" version="1.1">

 <g>
  <title>Layer 1</title>
  <path id="svg_2" d="m77.39999,151c-1.45541,-0.6611 -2.42929,-1.5762 -3.5785,-1.94511c-16.75867,-5.37952 -33.55415,-10.64438 -50.31017,-16.03202c-6.05653,-1.94739 -9.10494,-6.30292 -9.52271,-12.6372c-1.36919,-20.76035 -2.74685,-41.52031 -4.20739,-62.27436c-0.51423,-7.30708 2.53182,-11.66057 8.98362,-15.57268c15.19583,-9.21416 29.77817,-19.45168 44.46868,-29.48029c4.24596,-2.89854 7.19888,-3.11865 11.42195,0.21221c1.00601,0.79346 2.34158,1.17089 3.52912,1.73215c14.57912,6.89029 29.3227,13.45987 43.66294,20.81578c6.28539,3.22413 11.88956,7.87328 17.47611,12.28901c1.26692,1.0014 2.25777,4.66706 1.53354,5.49498c-4.52922,5.17777 -2.23451,11.07629 -2.40927,16.67234c-0.45151,14.45725 -0.49865,28.93563 -1.38939,43.36346c-0.17769,2.87797 -2.74597,6.66324 -5.30577,8.16241c-13.32241,7.80238 -27.01137,14.97747 -40.54282,22.4253c-3.47681,1.91365 -6.84529,4.02413 -10.23674,6.40911c-1.03986,0.36491 -2.10653,0.36491 -3.5732,0.36491m49.54988,-38.64532c0.12016,-0.76232 0.24032,-1.52465 0.7716,-2.80278c0.03006,-1.50752 0.06013,-3.01505 0.2424,-5.30672c0,-14.75414 0,-29.50827 0,-45.35338c-15.15147,4.64474 -29.7501,9.04215 -44.26189,13.70959c-1.22198,0.39303 -2.65594,2.60631 -2.64072,3.95874c0.08943,7.94961 0.24189,15.92781 1.01551,23.8335c1.12484,11.49474 2.79492,22.93611 4.36862,35.48575c12.73925,-7.43605 25.13988,-14.67445 38.11716,-21.64914c0.56021,-0.51742 1.12043,-1.03483 2.38732,-1.87556m-103.67083,-10.25765c0.23619,5.15347 0.2195,10.3373 0.8327,15.4455c0.2462,2.05101 1.37798,4.98571 2.95365,5.73346c15.2105,7.2183 31.32537,11.75456 48.83576,15.92568c-2.14419,-22.35759 -4.21169,-43.91545 -6.32054,-65.90445c-15.83618,-3.42778 -32.53114,-7.04144 -49.67507,-10.75228c1.09019,12.81422 2.18845,25.72332 3.3735,39.55209m61.38798,-40.86419c13.00931,-3.85066 26.01863,-7.70131 39.02278,-11.55045c-0.10321,-0.36331 -0.09626,-0.60272 -0.20169,-0.67261c-16.59544,-11.00081 -34.66189,-18.9843 -53.29164,-25.76396c-1.12529,-0.40951 -2.96493,0.19775 -4.10227,0.91691c-9.28544,5.87131 -18.52565,11.81713 -27.6897,17.87628c-4.87758,3.22499 -9.57702,6.71942 -15.46115,10.87145c14.67119,3.09766 27.99945,5.98209 41.36106,8.70276c6.50594,1.32472 13.076,2.67509 20.36261,-0.38038z" fill="#090909"/>
  <path id="svg_3" d="m23.23565,101.63719c-1.14166,-13.36893 -2.23992,-26.27803 -3.33011,-39.09225c17.14393,3.71084 33.83889,7.3245 49.67507,10.75228c2.10885,21.989 4.17635,43.54686 6.32054,65.90445c-17.51039,-4.17112 -33.62526,-8.70738 -48.83576,-15.92568c-1.57567,-0.74775 -2.70745,-3.68245 -2.95365,-5.73346c-0.6132,-5.1082 -0.59651,-10.29203 -0.87609,-15.90534m25.181,-1.68369c2.86087,-4.01598 0.54163,-7.38546 -1.67438,-10.44257c-1.89998,-2.62112 -5.91887,-2.30584 -7.72858,0.4203c-2.34881,3.53823 -1.51355,7.11156 0.9792,10.14028c2.2772,2.76682 5.13168,2.72807 8.42376,-0.11801z" fill="#FAFAFA"/>
  <path id="svg_4" d="m123.98589,113.96654c-12.40062,7.23839 -24.80125,14.47679 -37.5405,21.91284c-1.5737,-12.54964 -3.24378,-23.99101 -4.36862,-35.48575c-0.77362,-7.90569 -0.92608,-15.88389 -1.01551,-23.8335c-0.01522,-1.35243 1.41874,-3.56571 2.64072,-3.95874c14.51179,-4.66744 29.11042,-9.06485 44.26189,-13.70959c0,15.84511 0,30.59924 -0.5629,45.737c-0.88705,0.39989 -1.21121,0.41616 -1.77153,0.19882c-2.39235,-2.81719 -5.16106,-3.36153 -7.52281,-1.13843c-1.28859,1.21294 -2.25337,3.85666 -1.87866,5.52059c0.74894,3.3257 3.66241,3.78522 6.85333,3.25273c0.38944,0.65058 0.64702,1.07731 0.90459,1.50403m-35.40765,-32.13496c-0.22291,4.25629 1.72618,6.93294 6.0401,6.68728c3.69856,-0.21062 5.84109,-2.93904 5.20425,-6.53197c-0.34018,-1.91922 -2.09441,-4.45013 -3.80883,-5.08236c-3.47593,-1.2818 -5.98351,0.82526 -7.43552,4.92705m24.00565,16.05015c0.38218,-1.41185 1.44374,-3.10875 0.99725,-4.1729c-0.7935,-1.89119 -2.22304,-4.24653 -3.91332,-4.80059c-1.36759,-0.44829 -4.64129,1.10354 -5.05869,2.41039c-0.73994,2.31676 -0.83767,5.70434 0.40261,7.58325c1.82146,2.75931 4.8588,2.01211 7.57215,-1.02015z" fill="#F9F9F9"/>
  <path id="svg_5" d="m84.28288,61.38315c-6.90247,2.90516 -13.47253,1.55479 -19.97847,0.23007c-13.36161,-2.72067 -26.68987,-5.6051 -41.36106,-8.70276c5.88413,-4.15203 10.58357,-7.64646 15.46115,-10.87145c9.16405,-6.05915 18.40426,-12.00497 27.6897,-17.87628c1.13734,-0.71916 2.97698,-1.32642 4.10227,-0.91691c18.62975,6.77966 36.6962,14.76315 53.29164,25.76396c0.10543,0.06989 0.09848,0.3093 0.20169,0.67261c-13.00415,3.84914 -26.01347,7.69979 -39.40692,11.70076m-16.38118,-7.60119c1.2419,1.00557 2.34197,2.51993 3.75442,2.91362c3.20563,0.89352 6.78232,0.58897 7.91579,-2.96711c0.5615,-1.76166 -0.55195,-4.94801 -2.01216,-6.26678c-2.56927,-2.32043 -6.02478,-2.01094 -8.41281,0.69843c-1.02934,1.16785 -1.01507,3.25554 -1.24524,5.62184m3.49978,-13.78848c3.51539,-0.49548 6.63053,-2.24832 5.33413,-5.9639c-0.73765,-2.11414 -4.15816,-4.44136 -6.43526,-4.50952c-1.85749,-0.05561 -4.98629,2.82548 -5.46772,4.8903c-0.89277,3.82895 2.22972,5.3504 6.56885,5.58312z" fill="#F7F7F7"/>
  <path id="svg_6" d="m125.86558,105.06123c0.32418,-0.01627 0.64834,-0.03254 1.4593,-0.04036c0.45672,1.51598 0.42665,3.02351 -0.20885,4.70635c-0.87595,0.14477 -1.14644,0.11423 -1.40659,-0.31423c0.05895,-1.71584 0.10755,-3.0338 0.15614,-4.35176z" fill="#C1C1C1"/>
  <path id="svg_7" d="m124.27422,114.09839c-0.5459,-0.55857 -0.80348,-0.9853 -1.00527,-1.8748c0.71164,-0.93177 1.36749,-1.40074 2.22523,-1.27404c0.38426,0.97328 0.56663,1.35087 0.74901,1.72844c-0.56021,0.51742 -1.12043,1.03483 -1.96897,1.4204z" fill="#C1C1C1"/>
  <path id="svg_8" d="m126.59653,112.51634c-0.53572,-0.21592 -0.71809,-0.59351 -1.04358,-1.73469c-0.14312,-0.7636 0.14614,-0.97076 0.14614,-0.97076c0.2705,0.03056 0.54099,0.0611 1.21138,0.17423c0.27972,0.84491 0.15956,1.60724 -0.31394,2.53122z" fill="#F9F9F9"/>
  <path id="svg_9" d="m48.16394,100.24971c-3.03937,2.54987 -5.89385,2.58862 -8.17105,-0.1782c-2.49275,-3.02872 -3.32801,-6.60205 -0.9792,-10.14028c1.80971,-2.72614 5.8286,-3.04142 7.72858,-0.4203c2.21601,3.05711 4.53525,6.42659 1.42167,10.73878z" fill="#101010"/>
  <path id="svg_10" d="m88.66062,81.48096c1.36963,-3.75117 3.87721,-5.85823 7.35314,-4.57643c1.71442,0.63223 3.46865,3.16314 3.80883,5.08236c0.63684,3.59293 -1.50569,6.32135 -5.20425,6.53197c-4.31392,0.24566 -6.26301,-2.43099 -5.95772,-7.0379z" fill="#131313"/>
  <path id="svg_11" d="m112.36531,98.18022c-2.49477,2.73377 -5.53211,3.48097 -7.35357,0.72166c-1.24028,-1.87891 -1.14255,-5.26649 -0.40261,-7.58325c0.4174,-1.30685 3.6911,-2.85868 5.05869,-2.41039c1.69028,0.55406 3.11982,2.9094 3.91332,4.80059c0.44649,1.06415 -0.61507,2.76105 -1.21583,4.47139z" fill="#141414"/>
  <path id="svg_12" d="m125.70944,109.41299c-0.01035,0.3979 -0.29961,0.60506 -0.35838,0.77297c-0.71462,0.63689 -1.37047,1.10586 -2.21398,1.81376c-3.2467,0.99528 -6.16017,0.53576 -6.90911,-2.78994c-0.37471,-1.66393 0.59007,-4.30765 1.87866,-5.52059c2.36175,-2.2231 5.13046,-1.67876 7.52281,1.13843c0.18755,1.55157 0.13895,2.86953 0.08,4.58537z" fill="#131313"/>
  <path id="svg_13" d="m67.78687,53.43372c0.345,-2.01806 0.33073,-4.10575 1.36007,-5.2736c2.38803,-2.70937 5.84354,-3.01886 8.41281,-0.69843c1.46021,1.31877 2.57366,4.50512 2.01216,6.26678c-1.13347,3.55608 -4.71016,3.86063 -7.91579,2.96711c-1.41245,-0.39369 -2.51252,-1.90805 -3.86925,-3.26186z" fill="#111111"/>
  <path id="svg_14" d="m71.00667,39.99766c-3.94432,-0.2369 -7.06681,-1.75835 -6.17404,-5.5873c0.48143,-2.06482 3.61023,-4.94591 5.46772,-4.8903c2.2771,0.06816 5.69761,2.39538 6.43526,4.50952c1.2964,3.71558 -1.81874,5.46842 -5.72894,5.96808z" fill="#121212"/>
 </g>
</svg>