<svg version="1.1" id="Layer_1" xmlns="http://www.w3.org/2000/svg" xmlns:xlink="http://www.w3.org/1999/xlink" x="0px" y="0px"
	 width="100%" viewBox="0 0 200 80" enable-background="new 0 0 200 80" xml:space="preserve">
<path fill="#FBFBFB" opacity="1.000000" stroke="none" 
	d="
M151.000000,81.000000 
	C100.666672,81.000000 50.833344,81.000000 1.000013,81.000000 
	C1.000009,54.333344 1.000009,27.666685 1.000005,1.000021 
	C67.666649,1.000014 134.333298,1.000014 200.999969,1.000007 
	C200.999969,27.666647 200.999969,54.333294 200.999985,80.999969 
	C184.500000,81.000000 168.000000,81.000000 151.000000,81.000000 
M121.016876,12.637435 
	C112.525024,12.688149 103.883858,13.780530 95.570076,12.588897 
	C73.099731,9.368169 50.621201,7.870885 27.952719,8.960853 
	C26.205599,9.044860 24.429976,8.261950 22.650600,7.995527 
	C13.753419,6.663369 9.480152,7.317959 8.906777,17.508612 
	C8.421517,26.133179 7.459814,34.730843 6.968598,43.355202 
	C6.669403,48.608223 6.320358,53.955662 6.955937,59.142788 
	C8.014074,67.778519 10.898405,70.915337 19.623919,71.949989 
	C29.511677,73.122475 39.530659,73.777245 49.483204,73.681564 
	C65.953682,73.523209 82.412582,72.404938 98.884071,72.030296 
	C111.825783,71.735939 124.779785,71.874313 137.727036,71.979172 
	C143.647263,72.027122 149.685165,71.796745 155.457504,72.852600 
	C167.075012,74.977631 177.201904,72.481972 185.911346,64.687340 
	C188.161179,62.673836 190.283554,60.012062 191.305878,57.223347 
	C195.061966,46.977318 194.156235,36.303902 193.568649,25.646851 
	C192.941208,14.267084 183.074615,7.719786 173.642395,8.304277 
	C156.388962,9.373434 139.175354,11.085838 121.016876,12.637435 
z"/>
<path fill="#0B0B0B" opacity="1.000000" stroke="none" 
	d="
M121.481010,12.583710 
	C139.175354,11.085838 156.388962,9.373434 173.642395,8.304277 
	C183.074615,7.719786 192.941208,14.267084 193.568649,25.646851 
	C194.156235,36.303902 195.061966,46.977318 191.305878,57.223347 
	C190.283554,60.012062 188.161179,62.673836 185.911346,64.687340 
	C177.201904,72.481972 167.075012,74.977631 155.457504,72.852600 
	C149.685165,71.796745 143.647263,72.027122 137.727036,71.979172 
	C124.779785,71.874313 111.825783,71.735939 98.884071,72.030296 
	C82.412582,72.404938 65.953682,73.523209 49.483204,73.681564 
	C39.530659,73.777245 29.511677,73.122475 19.623919,71.949989 
	C10.898405,70.915337 8.014074,67.778519 6.955937,59.142788 
	C6.320358,53.955662 6.669403,48.608223 6.968598,43.355202 
	C7.459814,34.730843 8.421517,26.133179 8.906777,17.508612 
	C9.480152,7.317959 13.753419,6.663369 22.650600,7.995527 
	C24.429976,8.261950 26.205599,9.044860 27.952719,8.960853 
	C50.621201,7.870885 73.099731,9.368169 95.570076,12.588897 
	C103.883858,13.780530 112.525024,12.688149 121.481010,12.583710 
M15.216396,20.980816 
	C14.382285,30.406752 13.615810,39.839291 12.696310,49.256893 
	C11.634983,60.127083 15.035900,65.491592 23.814638,65.945374 
	C33.774967,66.460220 43.757130,67.093048 53.717995,66.934227 
	C69.845497,66.677094 85.977486,65.105942 102.081001,65.426025 
	C115.882950,65.700356 129.613068,66.863487 143.377380,64.701103 
	C146.580338,64.197914 150.091629,64.562378 153.283615,65.297729 
	C161.575256,67.207924 169.243683,67.822784 177.087265,62.724354 
	C182.775513,59.026909 186.406509,54.858891 186.748230,48.200569 
	C187.062759,42.072422 186.772858,35.912510 187.109848,29.786432 
	C187.666351,19.669971 181.184189,14.288992 171.118576,15.006498 
	C161.178024,15.715092 151.272324,17.058567 141.324051,17.481203 
	C124.398293,18.200264 107.424347,19.217215 90.519371,18.651924 
	C66.219856,17.839365 41.964203,15.717700 17.688007,14.183670 
	C17.250582,14.156029 16.790380,14.488865 16.199476,14.705258 
	C15.908255,16.507166 15.619155,18.295938 15.216396,20.980816 
z"/>
<path fill="#F8F8F8" opacity="1.000000" stroke="none" 
	d="
M15.273226,20.532764 
	C15.619155,18.295938 15.908255,16.507166 16.199476,14.705258 
	C16.790380,14.488865 17.250582,14.156029 17.688007,14.183670 
	C41.964203,15.717700 66.219856,17.839365 90.519371,18.651924 
	C107.424347,19.217215 124.398293,18.200264 141.324051,17.481203 
	C151.272324,17.058567 161.178024,15.715092 171.118576,15.006498 
	C181.184189,14.288992 187.666351,19.669971 187.109848,29.786432 
	C186.772858,35.912510 187.062759,42.072422 186.748230,48.200569 
	C186.406509,54.858891 182.775513,59.026909 177.087265,62.724354 
	C169.243683,67.822784 161.575256,67.207924 153.283615,65.297729 
	C150.091629,64.562378 146.580338,64.197914 143.377380,64.701103 
	C129.613068,66.863487 115.882950,65.700356 102.081001,65.426025 
	C85.977486,65.105942 69.845497,66.677094 53.717995,66.934227 
	C43.757130,67.093048 33.774967,66.460220 23.814638,65.945374 
	C15.035900,65.491592 11.634983,60.127083 12.696310,49.256893 
	C13.615810,39.839291 14.382285,30.406752 15.273226,20.532764 
M50.788113,36.508320 
	C53.926655,36.518784 55.341820,38.033012 55.630581,41.225300 
	C55.973755,45.019154 56.393944,48.915180 57.626656,52.473927 
	C58.254131,54.285412 60.734951,55.454918 62.377998,56.914619 
	C62.921116,54.927956 64.048302,52.892742 63.888004,50.964554 
	C63.534199,46.708683 62.531803,42.506737 61.967308,39.274830 
	C63.782719,37.306370 65.289894,36.213234 65.928032,34.742931 
	C66.229286,34.048828 64.984909,31.794006 64.233780,31.685961 
	C60.849419,31.199133 60.330379,28.992231 59.620270,26.242550 
	C59.289845,24.963079 57.148048,24.151402 55.827335,23.127676 
	C54.928867,24.366961 53.846809,25.519665 53.205223,26.880098 
	C52.856277,27.620001 53.255756,28.712860 53.345711,30.069407 
	C48.121151,29.198601 48.242302,32.728252 47.173668,36.023037 
	C34.864784,33.513031 32.721500,41.350807 33.835381,49.831932 
	C31.252983,49.407646 28.670586,48.983356 25.799839,48.511692 
	C25.799839,46.502514 25.799839,44.442818 25.799839,43.493919 
	C27.972248,41.643955 29.681759,40.531921 30.798908,38.990559 
	C31.071692,38.614197 29.645926,36.457348 28.581280,35.761139 
	C24.979887,33.406059 25.003378,31.512423 28.633270,29.085182 
	C29.665913,28.394674 30.837206,26.657631 30.623690,25.692942 
	C30.387222,24.624563 28.757339,23.405432 27.523560,23.098293 
	C22.775196,21.916231 19.432526,24.545151 19.219585,29.636986 
	C18.963226,35.767071 18.866280,41.909653 18.916403,48.045055 
	C18.964485,53.930180 20.655861,55.467312 26.780504,55.783100 
	C33.216549,56.114944 34.090763,55.418121 35.204563,50.076946 
	C39.814240,52.349426 40.499817,49.338276 41.273834,45.857937 
	C41.564259,44.552059 43.019596,43.505253 43.943832,42.340332 
	C44.519299,43.538403 45.115551,44.727242 45.654877,45.941364 
	C45.781738,46.226952 45.588310,46.704750 45.760929,46.911800 
	C46.728409,48.072266 47.762878,49.176880 48.774479,50.300560 
	C49.902493,49.126568 52.037323,47.891190 51.970184,46.790062 
	C51.766857,43.455326 50.710300,40.172611 50.788113,36.508320 
M145.932587,47.350723 
	C147.269073,52.185928 156.889908,55.715614 160.801758,52.715790 
	C161.480026,52.195656 161.992096,51.071632 162.050323,50.191433 
	C162.508957,43.260418 163.016556,36.322186 163.068085,29.382898 
	C163.079315,27.869801 161.318207,26.343544 160.373352,24.823353 
	C158.988098,26.156384 156.840317,27.271328 156.383133,28.869799 
	C155.542816,31.807865 155.697739,35.030582 155.441345,38.092690 
	C148.910172,38.175045 147.170471,39.785732 145.932587,47.350723 
M141.555237,37.900772 
	C137.743027,33.948257 134.449570,35.927914 131.340546,38.878910 
	C128.525925,41.550453 127.675957,49.026165 129.893570,51.816082 
	C132.506042,55.102768 136.032516,54.838715 139.365036,53.483414 
	C144.566971,51.367840 145.551605,45.281609 141.555237,37.900772 
M77.989716,53.895329 
	C82.902351,51.667259 82.947563,50.461342 78.938637,46.858925 
	C79.672447,43.802620 80.873291,41.142673 80.794243,38.521324 
	C80.701180,35.435551 78.432205,33.818336 75.202904,34.705029 
	C71.009346,35.856472 66.288300,42.908569 66.752922,47.067112 
	C67.260544,51.610378 70.383072,53.664749 77.989716,53.895329 
M120.032005,53.858231 
	C121.618546,53.326622 123.368050,53.030964 124.690758,52.117363 
	C125.079628,51.848763 124.625183,49.542507 123.933357,48.658176 
	C119.347076,42.795757 119.273392,38.333324 123.276588,32.148746 
	C124.161186,30.782131 123.572182,28.461676 123.661728,26.580433 
	C121.894829,26.962019 119.636627,26.779119 118.442314,27.818590 
	C111.676270,33.707371 112.292175,48.205135 120.032005,53.858231 
M172.134995,52.669788 
	C173.965164,51.986122 177.083847,51.659672 177.390488,50.553638 
	C178.423111,46.828762 178.695328,42.829250 178.738419,38.929047 
	C178.753189,37.592888 177.523285,35.743576 176.327820,35.051445 
	C175.371277,34.497643 173.313004,34.912731 172.250061,35.638947 
	C167.725281,38.730320 167.353760,48.716438 172.134995,52.669788 
M92.915192,48.844120 
	C92.915192,46.880356 92.915192,44.916592 92.915192,42.916065 
	C94.374786,42.342968 95.716888,42.076168 96.745026,41.359173 
	C99.015541,39.775761 98.620171,36.902504 96.118622,35.891853 
	C90.633430,33.675770 85.335869,37.417526 85.674911,43.273487 
	C85.751274,44.592445 85.567154,46.019680 86.017700,47.200703 
	C86.609894,48.753063 87.418663,50.629662 88.705101,51.356377 
	C89.466011,51.786209 91.328400,50.266171 92.915192,48.844120 
z"/>
<path fill="#101010" opacity="1.000000" stroke="none" 
	d="
M34.845249,49.354794 
	C34.090763,55.418121 33.216549,56.114944 26.780504,55.783100 
	C20.655861,55.467312 18.964485,53.930180 18.916403,48.045055 
	C18.866280,41.909653 18.963226,35.767071 19.219585,29.636986 
	C19.432526,24.545151 22.775196,21.916231 27.523560,23.098293 
	C28.757339,23.405432 30.387222,24.624563 30.623690,25.692942 
	C30.837206,26.657631 29.665913,28.394674 28.633270,29.085182 
	C25.003378,31.512423 24.979887,33.406059 28.581280,35.761139 
	C29.645926,36.457348 31.071692,38.614197 30.798908,38.990559 
	C29.681759,40.531921 27.972248,41.643955 25.799839,43.493919 
	C25.799839,44.442818 25.799839,46.502514 25.799839,48.511692 
	C28.670586,48.983356 31.252983,49.407646 34.306168,49.500038 
	C34.776955,49.168144 34.845249,49.354794 34.845249,49.354794 
z"/>
<path fill="#080808" opacity="1.000000" stroke="none" 
	d="
M145.931274,46.939350 
	C147.170471,39.785732 148.910172,38.175045 155.441345,38.092690 
	C155.697739,35.030582 155.542816,31.807865 156.383133,28.869799 
	C156.840317,27.271328 158.988098,26.156384 160.373352,24.823349 
	C161.318207,26.343544 163.079315,27.869801 163.068085,29.382898 
	C163.016556,36.322186 162.508957,43.260418 162.050323,50.191433 
	C161.992096,51.071632 161.480026,52.195656 160.801758,52.715790 
	C156.889908,55.715614 147.269073,52.185928 145.931274,46.939350 
z"/>
<path fill="#0D0D0D" opacity="1.000000" stroke="none" 
	d="
M48.099262,36.051277 
	C48.242302,32.728252 48.121151,29.198601 53.345711,30.069407 
	C53.255756,28.712860 52.856277,27.620001 53.205223,26.880098 
	C53.846809,25.519665 54.928867,24.366961 55.827335,23.127676 
	C57.148048,24.151402 59.289845,24.963079 59.620270,26.242550 
	C60.330379,28.992231 60.849419,31.199133 64.233780,31.685961 
	C64.984909,31.794006 66.229286,34.048828 65.928032,34.742931 
	C65.289894,36.213234 63.782719,37.306370 61.967308,39.274830 
	C62.531803,42.506737 63.534199,46.708683 63.888004,50.964554 
	C64.048302,52.892742 62.921116,54.927956 62.377998,56.914619 
	C60.734951,55.454918 58.254131,54.285412 57.626656,52.473927 
	C56.393944,48.915180 55.973755,45.019154 55.630581,41.225300 
	C55.341820,38.033012 53.926655,36.518784 50.427914,36.732712 
	C50.067715,36.957100 50.072338,37.077553 50.050278,36.638561 
	C49.319939,36.134232 48.611656,36.068893 47.959305,35.986935 
	C48.015232,35.970318 48.099262,36.051277 48.099262,36.051277 
z"/>
<path fill="#0D0D0D" opacity="1.000000" stroke="none" 
	d="
M141.806061,38.210228 
	C145.551605,45.281609 144.566971,51.367840 139.365036,53.483414 
	C136.032516,54.838715 132.506042,55.102768 129.893570,51.816082 
	C127.675957,49.026165 128.525925,41.550453 131.340546,38.878910 
	C134.449570,35.927914 137.743027,33.948257 141.806061,38.210228 
z"/>
<path fill="#0C0C0C" opacity="1.000000" stroke="none" 
	d="
M77.585930,53.912018 
	C70.383072,53.664749 67.260544,51.610378 66.752922,47.067112 
	C66.288300,42.908569 71.009346,35.856472 75.202904,34.705029 
	C78.432205,33.818336 80.701180,35.435551 80.794243,38.521324 
	C80.873291,41.142673 79.672447,43.802620 78.938637,46.858925 
	C82.947563,50.461342 82.902351,51.667259 77.585930,53.912018 
z"/>
<path fill="#0F0F0F" opacity="1.000000" stroke="none" 
	d="
M119.671021,53.701920 
	C112.292175,48.205135 111.676270,33.707371 118.442314,27.818590 
	C119.636627,26.779119 121.894829,26.962019 123.661728,26.580433 
	C123.572182,28.461676 124.161186,30.782131 123.276588,32.148746 
	C119.273392,38.333324 119.347076,42.795757 123.933357,48.658176 
	C124.625183,49.542507 125.079628,51.848763 124.690758,52.117363 
	C123.368050,53.030964 121.618546,53.326622 119.671021,53.701920 
z"/>
<path fill="#080808" opacity="1.000000" stroke="none" 
	d="
M35.024906,49.715870 
	C34.845249,49.354794 34.776955,49.168144 34.722919,49.170776 
	C32.721500,41.350807 34.864784,33.513031 47.636467,36.037155 
	C48.099262,36.051277 48.015232,35.970318 48.154015,36.239571 
	C48.885979,36.698402 49.479156,36.887978 50.072338,37.077553 
	C50.072338,37.077553 50.067715,36.957100 50.026955,36.913361 
	C50.710300,40.172611 51.766857,43.455326 51.970184,46.790062 
	C52.037323,47.891190 49.902493,49.126568 48.774479,50.300560 
	C47.762878,49.176880 46.728409,48.072266 45.760929,46.911800 
	C45.588310,46.704750 45.781738,46.226952 45.654877,45.941364 
	C45.115551,44.727242 44.519299,43.538403 43.943832,42.340332 
	C43.019596,43.505253 41.564259,44.552059 41.273834,45.857937 
	C40.499817,49.338276 39.814240,52.349426 35.024906,49.715870 
z"/>
<path fill="#0D0D0D" opacity="1.000000" stroke="none" 
	d="
M171.793549,52.504299 
	C167.353760,48.716438 167.725281,38.730320 172.250061,35.638947 
	C173.313004,34.912731 175.371277,34.497643 176.327820,35.051445 
	C177.523285,35.743576 178.753189,37.592888 178.738419,38.929047 
	C178.695328,42.829250 178.423111,46.828762 177.390488,50.553638 
	C177.083847,51.659672 173.965164,51.986122 171.793549,52.504299 
z"/>
<path fill="#0B0B0B" opacity="1.000000" stroke="none" 
	d="
M92.805328,49.233536 
	C91.328400,50.266171 89.466011,51.786209 88.705101,51.356377 
	C87.418663,50.629662 86.609894,48.753063 86.017700,47.200703 
	C85.567154,46.019680 85.751274,44.592445 85.674911,43.273487 
	C85.335869,37.417526 90.633430,33.675770 96.118622,35.891853 
	C98.620171,36.902504 99.015541,39.775761 96.745026,41.359173 
	C95.716888,42.076168 94.374786,42.342968 92.915192,42.916065 
	C92.915192,44.916592 92.915192,46.880356 92.805328,49.233536 
z"/>
<path fill="#F8F8F8" opacity="1.000000" stroke="none" 
	d="
M50.050278,36.638565 
	C49.479156,36.887978 48.885979,36.698402 48.098087,36.256187 
	C48.611656,36.068893 49.319939,36.134232 50.050278,36.638565 
z"/>
</svg>