<svg width="400.00000000000006" height="150" xmlns="http://www.w3.org/2000/svg" xml:space="preserve" enable-background="new 0 0 400 150" version="1.1">

 <g>
  <title>Layer 1</title>
  <path id="svg_2" d="m74.76118,139.90027c-14.12526,-0.19441 -27.78496,-0.1125 -41.41857,-0.66941c-14.09819,-0.57586 -24.42106,-11.26427 -24.52477,-25.4936c-0.07256,-9.95355 1.8504,-19.99788 1.05199,-29.85341c-1.4906,-18.39995 0.37186,-36.55455 1.88302,-54.77577c0.24638,-2.97082 0.76631,-5.94139 1.42845,-8.85094c1.76463,-7.75402 5.13416,-13.21218 15.53482,-12.62592c9.8871,0.55731 19.7629,-0.09876 29.67658,-0.66348c16.19515,-0.92253 32.36636,0.3759 48.73457,-1.31459c17.21766,-1.77823 34.8689,0.70603 52.33342,1.23727c21.45919,0.65276 42.92406,1.76033 64.38118,1.64915c19.44963,-0.10077 38.89595,-2.32417 58.33675,-2.22634c18.59253,0.09356 37.17895,1.92632 55.76214,3.08883c6.97306,0.43621 13.95881,0.90179 20.88819,1.76154c22.54913,2.79772 29.54986,11.85786 30.80722,32.69527c1.22208,20.2524 0.73413,40.65122 0.0885,60.95685c-0.3873,12.18073 -5.10174,22.27756 -15.88791,30.06102c-7.6271,5.50383 -14.68951,7.50708 -23.82526,7.26927c-15.27127,-0.39755 -30.58828,1.21559 -45.87295,1.0099c-15.43967,-0.20776 -30.85596,-1.79153 -46.29739,-2.38607c-7.45232,-0.28693 -14.94481,0.60901 -22.40867,0.45652c-23.62727,-0.48272 -47.24774,-1.29757 -70.87492,-1.7864c-7.64366,-0.15815 -15.30083,0.47006 -22.95024,0.43119c-17.97152,-0.09135 -35.94179,-0.41281 -53.91328,-0.53642c-4.15047,-0.02856 -8.30381,0.36304 -12.93287,0.56554m135.73824,-121.98848c-7.16298,-0.03657 -14.33579,0.15588 -21.48714,-0.15127c-24.6011,-1.05663 -49.18519,-2.74246 -73.79527,-3.25851c-12.06657,-0.25302 -24.16483,1.83813 -36.27042,2.29923c-7.27871,0.27725 -14.89509,-1.96208 -21.828,-0.51788c-9.23851,1.92448 -18.18472,0.75403 -27.22508,0.48474c-4.9371,-0.14707 -7.13314,1.81735 -7.71151,6.21613c-0.99665,7.58 -2.16906,15.16138 -2.63312,22.78083c-0.60572,9.94569 -0.62228,19.9284 -0.83844,29.89635c-0.18328,8.45215 -0.28892,16.90597 -0.43108,25.35903c-0.0755,4.48919 -0.91116,9.12559 -0.07084,13.43569c1.57898,8.09877 6.51066,16.42789 16.77041,15.78847c8.27291,-0.51561 16.62533,0.38603 24.94364,0.42821c17.8018,0.0903 35.60479,0.10774 53.40647,0.00749c12.64062,-0.07118 25.28539,-0.72356 37.91858,-0.51822c26.7932,0.43545 53.57794,1.37222 80.37039,1.87917c12.62354,0.23883 25.26456,-0.33097 37.88342,0.003c11.12406,0.29443 22.22678,1.88681 33.34168,1.91779c16.29709,0.04544 32.64294,-1.73154 48.87939,-0.93193c11.53486,0.56808 18.23865,-6.01313 23.85086,-13.31448c3.59348,-4.67503 4.68799,-12.11388 4.90357,-18.38246c0.61813,-17.97295 0.48504,-35.98728 0.05765,-53.97132c-0.13129,-5.52398 -1.89734,-11.08019 -3.46262,-16.46231c-0.58658,-2.01683 -2.37955,-4.39243 -4.23288,-5.19524c-5.11008,-2.21352 -10.42993,-4.31236 -15.87613,-5.28693c-6.845,-1.22488 -13.89084,-1.40043 -20.86224,-1.83148c-18.58563,-1.14916 -37.17661,-3.03746 -55.76764,-3.06307c-22.94354,-0.0316 -45.8893,1.52096 -69.83365,2.38897z" fill="#080808"/>
  <path id="svg_3" d="m210.99919,17.91179c23.44458,-0.86801 46.39034,-2.42057 69.33388,-2.38897c18.59103,0.02561 37.18201,1.91391 55.76764,3.06307c6.9714,0.43105 14.01724,0.6066 20.86224,1.83148c5.4462,0.97457 10.76605,3.07341 15.87613,5.28693c1.85333,0.80281 3.6463,3.17841 4.23288,5.19524c1.56528,5.38212 3.33133,10.93833 3.46262,16.46231c0.42739,17.98404 0.56048,35.99837 -0.05765,53.97132c-0.21558,6.26858 -1.31009,13.70743 -4.90357,18.38246c-5.61221,7.30135 -12.316,13.88256 -23.85086,13.31448c-16.23645,-0.79961 -32.5823,0.97737 -48.87939,0.93193c-11.1149,-0.03098 -22.21762,-1.62336 -33.34168,-1.91779c-12.61886,-0.33397 -25.25988,0.23583 -37.88342,-0.003c-26.79245,-0.50695 -53.57719,-1.44372 -80.37039,-1.87917c-12.63319,-0.20534 -25.27796,0.44704 -37.91858,0.51822c-17.80168,0.10025 -35.60467,0.08281 -53.40647,-0.00749c-8.31831,-0.04218 -16.67073,-0.94382 -24.94364,-0.42821c-10.25975,0.63942 -15.19143,-7.6897 -16.77041,-15.78847c-0.84032,-4.3101 -0.00466,-8.9465 0.07084,-13.43569c0.14216,-8.45306 0.2478,-16.90688 0.43108,-25.35903c0.21616,-9.96795 0.23272,-19.95066 0.83844,-29.89635c0.46406,-7.61945 1.63647,-15.20083 2.63312,-22.78083c0.57837,-4.39878 2.77441,-6.3632 7.71151,-6.21613c9.04036,0.26929 17.98657,1.43974 27.22508,-0.48474c6.93291,-1.4442 14.54929,0.79513 21.828,0.51788c12.10559,-0.4611 24.20385,-2.55225 36.27042,-2.29923c24.61008,0.51605 49.19417,2.20188 73.79527,3.25851c7.15135,0.30715 14.32416,0.1147 21.98691,0.15127m-152.91035,44.57828c-1.00332,7.53223 -1.64189,15.14391 -3.25359,22.54363c-0.42981,1.97339 -3.64348,4.01111 -5.95554,4.64404c-1.31758,0.36069 -3.82894,-1.72866 -5.02742,-3.30446c-1.67554,-2.20307 -2.71384,-4.91778 -3.86581,-7.48491c-1.29655,-2.88935 -2.78183,-5.84341 -6.53471,-4.49952c-4.07843,1.46048 -3.35968,4.92417 -2.08537,7.98472c1.46424,3.5167 3.17419,6.94337 4.96792,10.30757c2.39417,4.49031 6.0987,6.90286 11.35788,6.62974c5.8138,-0.30191 11.97145,-0.8052 14.1852,-7.14166c2.43519,-6.97032 4.37548,-14.27677 5.23469,-21.58915c0.88158,-7.50281 0.19548,-15.18983 0.19548,-23.47873c5.37782,0.42733 10.12377,0.88377 14.88029,1.15444c3.15097,0.17931 6.45193,-0.21286 6.71713,-4.19099c0.26389,-3.95829 -2.80285,-4.74059 -6.0625,-4.99454c-8.94797,-0.6971 -17.88291,-1.58299 -26.83826,-2.15542c-4.64096,-0.29666 -9.36373,-0.47857 -13.94652,0.10154c-1.64089,0.20771 -3.85702,2.65553 -4.1542,4.36832c-0.20673,1.19143 2.17111,3.35207 3.84089,4.19267c1.48394,0.74705 3.58221,0.31413 5.40993,0.32937c3.5668,0.02974 7.13402,0.00873 10.93432,0.00873c0,5.94377 0,10.76237 0.00019,16.57461m214.62576,6.57993c-0.92349,-6.91542 -1.82916,-13.83329 -2.77805,-20.74523c-0.47186,-3.43708 -1.21408,-7.13391 -5.72503,-6.56729c-4.34821,0.54619 -3.93265,4.16197 -3.52689,7.43003c1.08405,8.73018 2.23023,17.45412 3.17505,26.19964c0.71304,6.60025 1.16324,13.22915 1.71133,19.84688c0.27271,3.29297 1.39313,5.75754 5.17783,6.20883c1.07327,0.12798 2.10288,0.88901 3.08466,1.47368c5.60113,3.33559 11.34069,1.81507 14.15353,-3.99273c3.75253,-7.74822 3.97153,-15.73646 0.71314,-23.67692c-3.18134,-7.75269 -7.37595,-9.05508 -14.77524,-4.97779c-0.20685,0.11396 -0.69611,-0.28454 -1.21033,-1.1991m23.9776,27.35448c0.20343,3.38621 1.29556,7.46763 5.04422,6.33964c3.58627,-1.07911 6.27417,0.00078 9.42368,0.28122c2.3125,0.2059 4.9996,-0.58031 7.09387,-1.71227c7.79529,-4.21337 9.86789,-20.28906 3.40875,-26.38316c-1.31036,-1.23633 -3.55774,-2.1693 -5.32346,-2.09292c-3.96151,0.17138 -7.89181,1.06482 -12.03048,1.69404c0,-0.56408 -0.04303,-1.53978 0.00683,-2.51072c0.38339,-7.46167 0.71476,-14.9271 1.21393,-22.38121c0.20926,-3.1248 -0.14954,-5.95981 -3.74118,-6.48052c-3.60715,-0.52297 -4.89984,2.20586 -5.46295,5.1831c-0.36917,1.95178 -0.61826,3.96729 -0.58221,5.94809c0.25024,13.74932 0.58935,27.49702 0.949,42.11471m-190.78496,-14.67493c-0.81946,-10.74706 -8.90171,-18.6286 -18.71051,-17.94033c-1.78028,0.12491 -3.98384,1.02522 -5.10125,2.33026c-2.13221,2.49024 -3.75627,5.45639 -5.35249,8.35642c-3.51886,6.39307 -2.63503,13.18769 2.27452,18.88835c4.39435,5.10243 13.51864,7.80455 19.63101,5.36185c6.85734,-2.74039 6.84979,-9.10442 7.25758,-15.11672c0.02246,-0.33112 0.00275,-0.6651 0.00114,-1.87983m39.969,-14.8397c-1.47175,-0.08224 -3.10648,-0.60763 -4.37616,-0.14058c-1.80582,0.66426 -4.5203,1.81608 -4.80039,3.17984c-1.56471,7.61859 -2.82127,15.3387 -3.45117,23.08365c-0.15402,1.89359 2.02661,5.10128 3.85231,5.78424c3.23146,1.20886 5.14818,-1.54841 5.84575,-4.55525c0.93524,-4.03147 1.79288,-8.103 2.29837,-12.20482c0.37225,-3.02042 0.7347,-5.85014 4.44617,-6.06663c3.44909,-0.20118 5.77766,1.58361 6.30221,5.07796c0.68854,4.58676 1.28379,9.1973 1.65292,13.81887c0.25391,3.17853 0.50341,6.46693 4.49785,6.50126c4.2782,0.03677 4.87641,-3.40312 4.73328,-6.76179c-0.18379,-4.31316 -0.2713,-8.67995 -1.03406,-12.90935c-2.054,-11.38935 -7.24626,-15.30181 -19.96708,-14.8074m108.08487,25.34512c0.84524,-3.19197 1.97366,-6.33967 2.48088,-9.58448c1.33892,-8.56593 -2.8023,-13.91626 -12.22147,-16.22283c-5.12633,-1.25532 -13.25604,3.33282 -14.63599,9.34642c-1.31367,5.72485 -1.99237,11.87588 -1.32663,17.65241c0.31797,2.75882 3.96207,6.38556 6.85727,7.35386c7.69011,2.57194 14.17162,-0.663 18.84594,-8.54538m-49.70704,9.72526c4.97521,0.06414 10.00011,0.54851 14.89917,-0.0311c1.76041,-0.20827 3.21767,-2.97891 4.81327,-4.58014c-1.70826,-1.44957 -3.23819,-3.75795 -5.16437,-4.15785c-3.31951,-0.68918 -6.88556,-0.19085 -11.07236,-0.19085c-0.62295,-6.46331 -1.43556,-12.66468 -1.76745,-18.89168c-0.43276,-8.11913 -0.23473,-16.27884 -0.89205,-24.37367c-0.14729,-1.81372 -2.71579,-3.43083 -4.1696,-5.13846c-1.57843,1.60119 -3.25418,3.12248 -4.67502,4.85306c-0.41731,0.50828 -0.16719,1.61269 -0.12901,2.43954c0.58176,12.59651 0.9024,25.21481 1.92419,37.77595c0.35355,4.34645 0.17864,9.60312 6.23323,12.2952m130.09478,8.53037c2.68176,2.8219 5.51901,2.0887 7.97238,-0.07456c9.6629,-8.52021 14.78238,-19.5639 16.6774,-32.07036c0.25528,-1.68495 -2.23969,-3.78661 -3.46109,-5.69532c-1.7844,1.36542 -4.18936,2.38144 -5.20267,4.18104c-1.3971,2.4812 -1.74347,5.55403 -2.65216,8.77063c-1.55963,-0.9752 -2.88211,-1.46306 -3.71915,-2.38953c-2.44256,-2.70359 -4.39007,-5.93959 -7.13385,-8.25249c-1.53702,-1.29565 -4.26715,-1.17587 -6.45971,-1.69385c-0.45014,2.09258 -1.42054,4.24557 -1.18671,6.25869c0.18881,1.62559 1.74444,3.14694 2.84283,4.60199c3.08841,4.09119 6.25379,8.12429 9.3888,12.18029c-0.39209,1.58306 -3.05588,4.11068 -5.10474,7.06478c-1.26242,1.82019 -1.58652,4.29118 -1.96133,7.11869m-216.55526,-43.90711c-0.50685,0.65117 -1.42228,1.28068 -1.45814,1.95683c-0.41237,7.77485 -0.90942,15.56006 -0.79279,23.33364c0.01965,1.30965 2.84236,2.57724 4.36994,3.86427c1.45371,-1.72768 3.95092,-3.33244 4.17155,-5.20537c0.75585,-6.41639 0.7992,-12.92492 0.94561,-19.40213c0.10526,-4.65644 -1.59493,-5.85064 -7.23617,-4.54724m4.10422,-17.75016c-1.61979,-1.08111 -3.12864,-2.56949 -4.91069,-3.05485c-0.77788,-0.21186 -3.07995,1.72233 -3.00409,2.52201c0.17463,1.8408 0.93686,4.57651 2.2586,5.16901c3.20468,1.43657 5.31249,-0.3653 5.65618,-4.63617z" fill="#ffffff"/>
  <path id="svg_4" d="m58.08875,61.99324c-0.0001,-5.31541 -0.0001,-10.13401 -0.0001,-16.07778c-3.8003,0 -7.36752,0.02101 -10.93432,-0.00873c-1.82772,-0.01524 -3.92599,0.41768 -5.40993,-0.32937c-1.66978,-0.8406 -4.04762,-3.00124 -3.84089,-4.19267c0.29718,-1.71279 2.51331,-4.16061 4.1542,-4.36832c4.58279,-0.58011 9.30556,-0.3982 13.94652,-0.10154c8.95535,0.57243 17.89029,1.45832 26.83826,2.15542c3.25965,0.25395 6.32639,1.03625 6.0625,4.99454c-0.2652,3.97813 -3.56616,4.3703 -6.71713,4.19099c-4.75652,-0.27067 -9.50247,-0.72711 -14.88029,-1.15444c0,8.2889 0.6861,15.97592 -0.19548,23.47873c-0.85921,7.31238 -2.7995,14.61883 -5.23469,21.58915c-2.21375,6.33646 -8.3714,6.83975 -14.1852,7.14166c-5.25918,0.27312 -8.96371,-2.13943 -11.35788,-6.62974c-1.79373,-3.3642 -3.50368,-6.79087 -4.96792,-10.30757c-1.27431,-3.06055 -1.99306,-6.52424 2.08537,-7.98472c3.75288,-1.34389 5.23816,1.61017 6.53471,4.49952c1.15197,2.56713 2.19027,5.28184 3.86581,7.48491c1.19848,1.5758 3.70984,3.66515 5.02742,3.30446c2.31206,-0.63293 5.52573,-2.67065 5.95554,-4.64404c1.6117,-7.39972 2.25027,-15.0114 3.2535,-23.04046z" fill="#090909"/>
  <path id="svg_5" d="m272.79294,69.44752c0.43588,0.53704 0.92514,0.93554 1.13199,0.82158c7.39929,-4.07729 11.5939,-2.7749 14.77524,4.97779c3.25839,7.94046 3.03939,15.9287 -0.71314,23.67692c-2.81284,5.8078 -8.5524,7.32832 -14.15353,3.99273c-0.98178,-0.58467 -2.01139,-1.3457 -3.08466,-1.47368c-3.7847,-0.45129 -4.90512,-2.91586 -5.17783,-6.20883c-0.54809,-6.61773 -0.99829,-13.24663 -1.71133,-19.84688c-0.94482,-8.74552 -2.091,-17.46946 -3.17505,-26.19964c-0.40576,-3.26806 -0.82132,-6.88384 3.52689,-7.43003c4.51095,-0.56662 5.25317,3.13021 5.72503,6.56729c0.94889,6.91194 1.85456,13.82981 2.85639,21.12275m3.91742,14.81094c-0.46842,3.85134 -3.77469,8.45654 2.88293,10.61321c2.49701,-5.44589 3.04788,-10.72569 -0.26892,-16.8463c-0.987,2.23748 -1.69766,3.84845 -2.61401,6.23309z" fill="#090909"/>
  <path id="svg_6" d="m296.66766,95.98975c-0.33511,-14.18296 -0.67422,-27.93066 -0.92446,-41.67998c-0.03605,-1.9808 0.21304,-3.99631 0.58221,-5.94809c0.56311,-2.97724 1.8558,-5.70607 5.46295,-5.1831c3.59164,0.52071 3.95044,3.35572 3.74118,6.48052c-0.49917,7.45411 -0.83054,14.91954 -1.21393,22.38121c-0.04986,0.97094 -0.00683,1.94664 -0.00683,2.51072c4.13867,-0.62922 8.06897,-1.52266 12.03048,-1.69404c1.76572,-0.07638 4.0131,0.85659 5.32346,2.09292c6.45914,6.0941 4.38654,22.16979 -3.40875,26.38316c-2.09427,1.13196 -4.78137,1.91817 -7.09387,1.71227c-3.14951,-0.28044 -5.83741,-1.36033 -9.42368,-0.28122c-3.74866,1.12799 -4.84079,-2.95343 -5.06876,-6.77437m11.30677,-8.18357c-0.43546,2.19699 -0.87091,4.39398 -1.34195,6.77049c1.95334,-0.28843 3.24994,-0.50039 4.55221,-0.66828c3.73517,-0.48154 5.11457,-2.97476 4.85279,-6.31284c-0.15,-1.91251 -1.13935,-3.75917 -1.7508,-5.6355c-2.02099,1.69182 -4.04199,3.38365 -6.31225,5.84613z" fill="#090909"/>
  <path id="svg_7" d="m105.90801,82.19059c0.00084,0.77369 0.02055,1.10767 -0.00191,1.43879c-0.40779,6.0123 -0.40024,12.37633 -7.25758,15.11672c-6.11237,2.4427 -15.23666,-0.25942 -19.63101,-5.36185c-4.90955,-5.70066 -5.79338,-12.49528 -2.27452,-18.88835c1.59622,-2.90003 3.22028,-5.86618 5.35249,-8.35642c1.11741,-1.30504 3.32097,-2.20535 5.10125,-2.33026c9.8088,-0.68827 17.89105,7.19327 18.71128,18.38137m-19.75939,5.09882c1.72537,0.89866 3.36934,2.17723 5.20307,2.57006c1.35109,0.28943 3.57388,-0.08045 4.32475,-1.02129c2.51982,-3.15733 0.9129,-11.25114 -2.44433,-13.63108c-0.70079,-0.49678 -1.81242,-0.86679 -2.61086,-0.70049c-5.71332,1.18998 -8.046,6.997 -4.47263,12.7828z" fill="#090909"/>
  <path id="svg_8" d="m146.31714,66.85445c12.27992,-0.43901 17.47218,3.47345 19.52618,14.8628c0.76276,4.2294 0.85027,8.59619 1.03406,12.90935c0.14313,3.35867 -0.45508,6.79856 -4.73328,6.76179c-3.99444,-0.03433 -4.24394,-3.32273 -4.49785,-6.50126c-0.36913,-4.62157 -0.96438,-9.23211 -1.65292,-13.81887c-0.52455,-3.49435 -2.85312,-5.27914 -6.30221,-5.07796c-3.71147,0.21649 -4.07392,3.04621 -4.44617,6.06663c-0.50549,4.10182 -1.36313,8.17335 -2.29837,12.20482c-0.69757,3.00684 -2.61429,5.76411 -5.84575,4.55525c-1.8257,-0.68296 -4.00633,-3.89065 -3.85231,-5.78424c0.6299,-7.74495 1.88646,-15.46506 3.45117,-23.08365c0.28009,-1.36376 2.99457,-2.51558 4.80039,-3.17984c1.26968,-0.46705 2.90441,0.05834 4.81706,0.08518z" fill="#0A0A0A"/>
  <path id="svg_9" d="m253.81421,92.60492c-4.52742,7.53243 -11.00893,10.76737 -18.69904,8.19543c-2.8952,-0.9683 -6.5393,-4.59504 -6.85727,-7.35386c-0.66574,-5.77653 0.01296,-11.92756 1.32663,-17.65241c1.37995,-6.0136 9.50966,-10.60174 14.63599,-9.34642c9.41917,2.30657 13.56039,7.6569 12.22147,16.22283c-0.50722,3.24481 -1.63564,6.39251 -2.62778,9.93443m-7.49848,-14.91727c-2.0128,-0.99496 -4.0256,0.7047 -7.27095,-0.8995c-0.97906,6.51397 -0.30871,7.52291 -1.1492,13.11493c8.39574,0.615 10.26281,-2.49505 8.42015,-12.21543z" fill="#090909"/>
  <path id="svg_10" d="m203.84335,101.86154c-5.64387,-2.57339 -5.46896,-7.83006 -5.82251,-12.17651c-1.02179,-12.56114 -1.34243,-25.17944 -1.92419,-37.77595c-0.03818,-0.82685 -0.45711,0.45965 0.12901,-2.43954c0.58612,-2.89919 2.26187,-4.75437 4.67502,-4.85306c2.41315,-0.09869 4.02231,3.32474 4.1696,5.13846c0.65732,8.09483 0.45929,16.25454 0.89205,24.37367c0.33189,6.227 1.1445,12.42837 1.76745,18.89168c4.1868,0 7.75285,-0.49833 11.07236,0.19085c1.92618,0.3999 4.9236,1.05412 5.16438,4.15785c0.24078,3.10373 -3.05287,4.37187 -4.81328,4.58014c-4.89906,0.57961 -9.92396,0.09524 -15.30989,-0.08759z" fill="#090909"/>
  <path id="svg_11" d="m334.16357,110.18624c0.56009,-2.50315 0.88419,-4.97414 2.14661,-6.79433c2.04886,-2.9541 4.71265,-5.48172 5.10474,-7.06478c-3.13501,-4.056 -6.30039,-8.0891 -9.3888,-12.18029c-1.09839,-1.45505 -2.65402,-2.9764 -2.84283,-4.60199c-0.23383,-2.01312 -1.43229,-5.07091 1.18671,-6.25869c2.619,-1.18778 4.92269,0.3982 6.45971,1.69385c2.74378,2.3129 4.69129,5.5489 7.13385,8.25249c0.83704,0.92647 2.15952,1.41433 3.71915,2.38953c0.90869,-3.2166 1.25506,-6.28943 2.65216,-8.77063c1.01331,-1.7996 2.48873,-5.66331 5.20267,-4.18104c2.71394,1.48227 3.71637,4.01037 3.46109,5.69532c-1.89502,12.50646 -7.0145,23.55015 -16.6774,32.07036c-2.45337,2.16326 -5.29062,2.89646 -8.15766,-0.2498z" fill="#0A0A0A"/>
  <path id="svg_12" d="m118.09942,66.36905c5.33541,-1.06896 7.0356,0.12524 6.93034,4.78168c-0.14641,6.47721 -0.18976,12.98574 -0.94561,19.40213c-0.22063,1.87293 -1.6423,5.49073 -4.17155,5.20537c-2.52925,-0.28536 -4.35029,-2.55462 -4.36994,-3.86427c-0.11663,-7.77358 0.38042,-15.55879 0.79279,-23.33364c0.03586,-0.67615 0.95129,-1.30566 1.76397,-2.19127z" fill="#0C0C0C"/>
  <path id="svg_13" d="m121.94577,49.22998c-0.39165,3.89422 -2.49946,5.69609 -5.70414,4.25952c-1.32174,-0.5925 -2.08397,-3.32821 -2.2586,-5.16901c-0.07586,-0.79968 2.22621,-2.73387 3.00409,-2.52201c1.78205,0.48536 3.2909,1.97374 4.95865,3.4315z" fill="#181818"/>
  <path id="svg_14" d="m276.81323,83.87163c0.81348,-1.99781 1.52414,-3.60878 2.51114,-5.84626c3.3168,6.12061 2.76593,11.40041 0.26892,16.8463c-6.65762,-2.15667 -3.35135,-6.76187 -2.78006,-11.00004z" fill="#ffffff"/>
  <path id="svg_15" d="m308.09906,87.42085c2.14563,-2.07715 4.16663,-3.76898 6.18762,-5.46079c0.61145,1.87632 1.6008,3.72298 1.7508,5.63549c0.26178,3.33808 -1.11762,5.8313 -4.85279,6.31284c-1.30227,0.16789 -2.59887,0.37985 -4.55221,0.66828c0.47104,-2.37651 0.90649,-4.5735 1.46658,-7.15582z" fill="#ffffff"/>
  <path id="svg_16" d="m85.8863,86.99657c-3.31105,-5.49296 -0.97837,-11.29998 4.73495,-12.48996c0.79844,-0.1663 1.91007,0.20371 2.61086,0.70049c3.35723,2.37994 4.96415,10.47375 2.44433,13.63108c-0.75087,0.94084 -2.97366,1.31072 -4.32475,1.02129c-1.83373,-0.39283 -3.4777,-1.6714 -5.46539,-2.8629z" fill="#ffffff"/>
  <path id="svg_17" d="m247.75083,82.38781c-0.1529,7.19419 -3.51391,13.46786 -9.55586,9.61108c-6.04194,-3.85678 -3.1323,-12.0895 0.47593,-15.9365c3.60823,-3.847 9.23283,-0.86877 9.07993,6.32542z" fill="#ffffff"/>
 </g>
</svg>