<svg width="475" height="140" xmlns="http://www.w3.org/2000/svg" xml:space="preserve" enable-background="new 0 0 475 140" version="1.1">

 <g>
  <title>Layer 1</title>
  <path id="svg_1" d="m308,141c-102.66664,0 -204.83328,0 -306.99993,0c-0.00002,-46.66663 -0.00002,-93.33324 -0.00005,-139.9999c158.33322,-0.00003 316.66645,-0.00003 474.9998,-0.00007c0.00006,46.66653 0.00006,93.33309 0.00012,139.99982c-55.83328,0.00015 -111.6666,0.00015 -167.99994,0.00015m-16.16104,-10.04021c6.50494,0.76796 8.15213,-4.26423 9.80014,-8.70407c2.12518,-5.72538 3.63458,-11.67932 6.01251,-17.15285c0.87351,1.57553 1.72659,3.1628 2.62488,4.72407c1.71661,2.98355 4.00464,5.20677 7.5997,3.2858c3.27676,-1.75092 2.42032,-4.54153 1.07742,-7.29153c-3.02151,-6.18747 -5.94836,-12.42118 -8.47259,-19.22106c2.24588,-6.64603 4.49176,-13.29206 7.25982,-20.27103c1.64048,-2.81665 3.28098,-5.63331 5.18308,-9.18318c0.33838,-2.08392 0.67676,-4.16783 1.26065,-6.89871c2.81613,-4.56271 3.59817,-10.95347 10.63663,-11.39391c-1.16959,-7.81477 -6.01309,-12.09773 -11.33756,-9.97025c-7.66488,3.06264 -13.12182,8.66838 -17.34546,16.4368c-0.71923,1.80441 -1.43847,3.60883 -2.68551,5.93023c-2.8945,3.99652 -2.03101,8.28051 -1.32236,13.27992c-0.77936,2.36691 -1.55869,4.73384 -3.20431,7.32781c-11.65345,-1.20418 -18.79749,4.09411 -23.71064,14.60305c-2.92132,6.24858 -1.65783,12.31489 -2.33163,18.46114c-1.10373,10.06775 3.31109,13.67999 12.98947,15.24126c-0.00324,1.95419 -0.08572,3.91219 0.00818,5.8617c0.15567,3.23143 1.47385,5.32378 5.95758,4.93481m-217.02706,-78.29493c-1.65941,4.84373 1.11538,8.45237 3.27517,13.14337c0.31031,6.28074 0.31041,12.59592 1.00319,18.83418c1.05488,9.49886 2.41162,18.97533 4.04655,28.39073c0.40401,2.32667 1.90225,5.2881 3.77831,6.26335c1.40341,0.72956 4.22172,-1.26265 7.09967,-2.27332c0.97252,-2.11983 2.82404,-4.27126 2.74916,-6.35343c-0.2065,-5.74268 -1.51212,-11.43918 -1.84916,-17.18526c-0.63059,-10.75068 -0.88437,-21.52346 -1.01721,-33.02466c0.34207,-2.827 0.68412,-5.65401 1.07454,-9.3253c-0.79752,-2.59862 -1.59504,-5.19723 -2.33145,-8.60452c1.35026,-6.74968 -4.99416,-21.96807 -10.89657,-25.21223c-1.97012,-1.08284 -4.93109,-1.88374 -6.77984,-1.15074c-1.30902,0.51902 -2.21755,3.88098 -2.08187,5.89134c0.56552,8.37904 1.59407,16.72683 2.28228,26.04933c-0.04987,1.27899 -0.09974,2.55797 -0.35277,4.55716m-12.83979,-0.53036c-0.79752,-2.59861 -1.59504,-5.19722 -2.33143,-8.60451c1.35024,-6.74968 -4.99418,-21.96808 -10.89658,-25.21222c-1.97013,-1.08284 -4.9311,-1.88375 -6.77983,-1.15073c-1.30904,0.51902 -2.21756,3.88098 -2.08188,5.89134c0.56552,8.37903 1.59407,16.72682 2.28229,26.04932c-0.04988,1.27899 -0.09976,2.55798 -0.35279,4.55716c-1.65938,4.84373 1.11539,8.45237 3.27517,13.14338c0.31031,6.28073 0.31043,12.59591 1.00321,18.83417c1.05488,9.49886 2.41163,18.97533 4.04654,28.39075c0.40401,2.32666 1.90227,5.28808 3.77832,6.26334c1.4034,0.72957 4.22172,-1.26266 7.09966,-2.27334c0.97253,-2.11982 2.82403,-4.27125 2.74916,-6.35341c-0.2065,-5.74269 -1.51211,-11.43918 -1.84916,-17.18527c-0.63059,-10.75068 -0.88437,-21.52346 -1.01721,-33.02466c0.34205,-2.82701 0.68411,-5.65402 1.07453,-9.32532m91.17646,54.9787c-0.84506,-3.85259 -2.262,-7.68191 -2.41995,-11.56247c-0.36514,-8.97151 -0.06343,-17.96842 -0.15272,-26.95382c-0.03273,-3.29235 -1.36884,-6.05644 -5.01178,-6.38314c-3.65409,-0.3277 -5.46704,2.09076 -5.93328,5.41677c-0.55183,3.93657 -0.63305,7.94435 -1.2828,11.86079c-1.10758,6.6759 -2.24552,13.36857 -3.89546,19.92208c-0.67286,2.67249 -2.7152,5.00017 -4.13448,7.48472c-0.69119,-0.01084 -1.38239,-0.02168 -2.07358,-0.03252c-2.21082,-8.05219 -5.09169,-15.99437 -6.43725,-24.18865c-1.25545,-7.64556 -0.85897,-15.56 -1.23134,-23.3541c-0.1539,-3.22121 -1.02301,-6.21091 -4.87818,-6.36114c-3.86381,-0.15057 -5.04095,2.67108 -5.23884,5.96231c-1.03128,17.15195 1.00016,33.86329 7.54268,49.85797c2.87417,7.02659 9.68274,10.81124 15.97053,8.15838c3.20091,-1.35047 5.55893,-4.69886 8.51078,-7.3341c0.64782,1.14583 1.47659,2.53352 2.23053,3.96074c1.80251,3.41225 4.05924,6.86406 8.40827,4.89871c4.71827,-2.1322 2.93685,-5.93128 1.08353,-9.32077c-0.23918,-0.43744 -0.45447,-0.88795 -1.05666,-2.03176m55.21952,-0.60522c0.0079,2.49805 -0.06119,4.99931 0.04295,7.49335c0.13438,3.21803 0.99097,6.24856 4.85153,6.38449c4.17716,0.14706 5.13822,-2.96112 5.33768,-6.40239c0.07698,-1.3282 0.05353,-2.6646 0.02527,-3.99618c-0.32806,-15.46256 -0.67441,-30.92474 -0.98488,-46.38765c-0.02515,-1.25221 0.17792,-2.509 0.28815,-3.93427c3.88176,0.31741 7.44561,1.21646 10.76335,0.65668c2.05453,-0.34664 3.73509,-2.90978 5.58351,-4.47795c-1.62373,-1.76222 -2.95079,-4.45752 -4.9343,-5.08819c-3.86888,-1.23014 -8.10508,-1.30505 -12.71113,-1.92905c0,-2.38138 0.01579,-4.83173 -0.00336,-7.28179c-0.0377,-4.8276 0.37659,-9.72972 -0.37053,-14.44666c-0.30877,-1.94951 -3.12523,-3.50183 -4.80118,-5.23479c-1.65178,1.76209 -3.7149,3.30423 -4.81494,5.36136c-0.77061,1.44111 -0.25744,3.58518 -0.26355,5.41549c-0.01699,5.1134 -0.0059,10.22689 -0.0059,15.49837c-4.54451,-0.26166 -8.49246,-0.67364 -12.43883,-0.659c-3.2831,0.01218 -6.08304,1.32361 -6.00201,5.18808c0.07476,3.56632 2.75293,4.59765 5.82629,4.9132c2.97423,0.30537 5.95928,0.9824 8.9155,0.86888c3.98314,-0.15294 4.64993,1.97042 4.71364,5.20593c0.27497,13.96483 0.64605,27.92777 0.98274,42.85209m176.92701,9.69484c0.9664,0.91718 1.90442,1.86661 2.90375,2.74641c7.52674,6.6266 20.96625,4.50071 26.37598,-3.82898c5.54962,-8.5451 6.56799,-17.85824 6.08319,-27.69468c-0.41852,-8.4912 -5.95212,-16.15196 -14.14243,-18.36508c-3.1715,-0.85697 -6.6091,-0.81079 -9.70834,-1.83383c-4.43368,-1.46352 -7.18335,0.19145 -9.89267,3.51626c-5.58575,6.85474 -7.89587,15.05241 -9.27759,23.38596c-1.34808,8.13079 -0.17187,16.02803 7.65811,22.07394m-18.677,-33.67258c0,-2.81537 0,-5.63075 0,-8.44612c0.33554,0.27279 0.67112,0.54559 1.00666,0.81838c1.95956,-2.65838 5.00341,-5.15402 5.43679,-8.04146c0.22834,-1.52112 -4.10174,-3.72639 -6.95248,-6.10599c-0.79285,-5.09459 -1.45935,-11.56021 -2.99796,-17.81118c-0.41213,-1.67447 -3.70025,-3.94455 -5.27713,-3.67278c-1.67355,0.28843 -3.363,3.09399 -4.13378,5.14325c-0.56473,1.50143 0.38855,3.55184 0.58566,5.36622c0.47534,4.37598 0.90405,8.75704 1.37088,13.32524c-4.33899,0.24794 -7.84015,0.1722 -11.24005,0.72241c-3.18949,0.51616 -4.97327,2.81071 -4.53675,6.12191c0.46497,3.52717 2.94217,4.52598 6.20725,4.12415c1.48419,-0.18267 2.98846,-0.22621 4.46228,-0.46481c4.01639,-0.65023 5.66833,1.02077 5.84988,5.07274c0.53546,11.95086 1.33341,23.88976 1.97617,35.83616c0.1886,3.50557 0.55145,7.21863 4.96438,7.30214c4.76789,0.09022 5.19031,-3.78295 5.27109,-7.4731c0.02555,-1.16518 0.07846,-2.33645 -0.00378,-3.49624c-0.64627,-9.11394 -1.32233,-18.22577 -1.98911,-28.32092m-189.23796,15.6092c0.81337,0.57636 1.95679,0.97795 2.37326,1.76446c0.94641,1.78736 2.0369,3.76852 2.01953,5.66127c-0.0068,0.74205 -2.76756,1.62643 -4.3717,2.14267c-1.89171,0.60876 -4.1779,0.43648 -5.75621,1.44389c-1.45464,0.92846 -2.92358,2.92299 -3.0304,4.53763c-0.08895,1.34431 1.47527,3.45844 2.84705,4.13165c8.83228,4.33436 20.36423,-2.67166 21.16516,-12.38758c0.788,-9.55899 -5.72598,-14.10749 -12.3941,-18.23777c-3.69083,-2.28611 -5.67041,-4.74163 -4.24388,-8.83843c1.34727,-3.86915 1.97651,-8.77729 8.53621,-7.15864c1.43336,0.3537 4.85382,-1.96052 5.06625,-3.3874c0.27425,-1.84212 -1.39646,-5.40452 -2.8673,-5.78945c-3.47897,-0.91047 -7.51426,-1.118 -10.99824,-0.26954c-5.95937,1.45129 -7.74797,7.06623 -9.16293,12.1634c-2.80396,10.10078 -1.79497,16.5885 7.34735,21.8115c1.00526,0.57431 1.90643,1.3308 3.46995,2.41234m56.33643,-6.15008c0.12626,7.2925 0.21728,14.58585 0.39366,21.87714c0.0883,3.64994 1.25519,6.92195 5.51131,6.87461c3.94633,-0.04388 4.87873,-3.18987 5.31959,-6.61534c0.80284,-6.23831 1.09122,-12.69138 3.00525,-18.59759c2.03348,-6.27481 3.29601,-13.95312 12.50629,-14.72466c3.42401,-0.28682 6.88669,-1.89362 5.81988,-6.36256c-1.00155,-4.19564 -4.72461,-4.6257 -8.04745,-3.66115c-5.06975,1.47165 -9.9386,3.63534 -15.11508,5.58912c-0.07772,-0.50669 -0.40572,-1.90665 -0.487,-3.32078c-0.20285,-3.53 -0.73394,-7.16207 -5.19034,-7.05055c-4.78066,0.11965 -5.12445,4.08362 -4.9863,7.69141c0.22202,5.79735 0.72884,11.5838 1.27019,18.30035m209.44002,30.04001c3.75592,-1.16672 4.51745,-3.92148 4.13308,-7.45252c-1.13028,-10.38215 -0.6673,-20.41884 4.56888,-29.97629c3.40445,-6.21403 3.38669,-6.50946 10.65558,-4.99882c1.73837,0.36127 4.61508,-0.41224 5.543,-1.69491c0.9595,-1.32635 0.96008,-4.49109 -0.02219,-5.79629c-1.31582,-1.74848 -3.88788,-3.24053 -6.08279,-3.50722c-6.1911,-0.75225 -12.26441,-0.14034 -15.84485,3.99496c-3.04077,-1.36503 -5.83859,-3.7327 -7.75595,-3.15879c-1.79898,0.5385 -3.79633,4.20638 -3.75867,6.46472c0.22147,13.27282 0.93265,26.54057 1.66541,39.79971c0.19949,3.60963 1.8002,6.45628 6.8985,6.32545m-425.70385,-41.01477c0.97254,9.56832 2.19207,19.1201 2.83417,28.71053c0.4576,6.83482 1.7349,9.92095 5.45183,9.38827c5.70594,-0.81771 5.02769,-5.53 4.83223,-9.38589c-0.8567,-16.90079 -1.94743,-33.78964 -2.92995,-50.68418c-0.20499,-3.52467 -0.70666,-7.13016 -5.17477,-7.10049c-4.46414,0.02966 -5.04768,3.65361 -5.07746,7.17096c-0.05923,6.99367 -0.00814,13.98827 0.06395,21.9008m10.51058,-51.3725c-1.0411,-0.80203 -2.09945,-2.29957 -3.12003,-2.27426c-2.93415,0.07276 -7.80665,-0.04685 -8.39161,1.36746c-1.44056,3.48293 -1.66448,7.959 -0.79635,11.66536c0.34644,1.4791 4.93661,2.94565 7.45366,2.73439c5.55958,-0.46662 7.63449,-6.14595 4.85433,-13.49295m304.05874,70.5647c-1.14679,5.34954 -2.24722,10.69432 1.53641,15.57901c4.44425,-3.64003 4.71897,-29.40552 -0.77432,-35.86493c-0.24161,6.44629 -0.48322,12.89257 -0.76209,20.28592m3.93604,-37.05716c-0.60513,-3.61689 -1.21027,-7.23378 -1.8154,-10.85067c-1.85599,3.70235 -2.65326,7.35044 -3.07733,11.0414c-0.09174,0.79847 1.23474,2.52063 1.77435,2.46723c1.0181,-0.10075 1.93906,-1.18277 3.11838,-2.65796z" fill="#FDFDFD"/>
  <path id="svg_2" d="m153.33649,107.46288c0.41427,0.79413 0.62956,1.24464 0.86874,1.68208c1.85332,3.38949 3.63474,7.18857 -1.08353,9.32077c-4.34903,1.96535 -6.60576,-1.48646 -8.40827,-4.89871c-0.75394,-1.42722 -1.58271,-2.81491 -2.23053,-3.96074c-2.95185,2.63524 -5.30987,5.98363 -8.51078,7.3341c-6.28779,2.65286 -13.09636,-1.13179 -15.97053,-8.15838c-6.54252,-15.99468 -8.57396,-32.70602 -7.54268,-49.85797c0.19789,-3.29123 1.37503,-6.11288 5.23884,-5.96231c3.85517,0.15023 4.72428,3.13993 4.87818,6.36114c0.37237,7.7941 -0.02411,15.70854 1.23134,23.3541c1.34556,8.19428 4.22643,16.13646 6.43725,24.18865c0.69119,0.01084 1.38239,0.02168 2.07358,0.03252c1.41928,-2.48455 3.46162,-4.81223 4.13448,-7.48472c1.64994,-6.55351 2.78788,-13.24618 3.89546,-19.92208c0.64975,-3.91644 0.73097,-7.92422 1.2828,-11.86079c0.46624,-3.32601 2.27919,-5.74447 5.93328,-5.41677c3.64294,0.3267 4.97905,3.09079 5.01178,6.38314c0.08929,8.9854 -0.21242,17.98231 0.15272,26.95382c0.15795,3.88056 1.57489,7.70988 2.60787,11.91215z" fill="#0D0D0D"/>
  <path id="svg_3" d="m208.3678,106.02763c-0.3364,-14.44397 -0.70748,-28.40691 -0.98245,-42.37174c-0.06371,-3.23551 -0.7305,-5.35887 -4.71364,-5.20593c-2.95622,0.11352 -5.94127,-0.56351 -8.9155,-0.86888c-3.07336,-0.31555 -5.75153,-1.34688 -5.82629,-4.9132c-0.08103,-3.86447 2.71891,-5.1759 6.00201,-5.18808c3.94637,-0.01464 7.89432,0.39734 12.43883,0.659c0,-5.27148 -0.01109,-10.38497 0.0059,-15.49837c0.00611,-1.83031 -0.50706,-3.97438 0.26355,-5.41549c1.10004,-2.05713 3.16316,-3.59927 4.81494,-5.36136c1.67595,1.73296 4.49241,3.28528 4.80118,5.23479c0.74712,4.71694 0.33283,9.61906 0.37053,14.44666c0.01915,2.45006 0.00336,4.90041 0.00336,7.28179c4.60605,0.624 8.84225,0.69891 12.71113,1.92905c1.98351,0.63067 3.31057,3.32597 4.9343,5.08819c-1.84842,1.56817 -3.52898,4.13131 -5.58351,4.47795c-3.31774,0.55978 -6.88159,-0.33927 -10.76335,-0.65668c-0.11023,1.42527 -0.3133,2.68206 -0.28815,3.93427c0.31047,15.46291 0.65682,30.92509 0.98488,46.38765c0.02826,1.33158 0.05171,2.66798 -0.02527,3.99618c-0.19946,3.44127 -1.16052,6.54945 -5.33768,6.40239c-3.86056,-0.13593 -4.71715,-3.16646 -4.85153,-6.38449c-0.10414,-2.49404 -0.03505,-4.9953 -0.04324,-7.9737z" fill="#121212"/>
  <path id="svg_4" d="m385.02655,115.96512c-7.56143,-5.80821 -8.73764,-13.70545 -7.38956,-21.83624c1.38172,-8.33355 3.69184,-16.53122 9.27759,-23.38596c2.70932,-3.32481 5.45899,-4.97978 9.89267,-3.51626c3.09924,1.02304 6.53684,0.97686 9.70834,1.83383c8.19031,2.21312 13.72391,9.87388 14.14243,18.36508c0.4848,9.83644 -0.53357,19.14958 -6.08319,27.69468c-5.40973,8.32969 -18.84924,10.45558 -26.37598,3.82898c-0.99933,-0.8798 -1.93735,-1.82923 -3.1723,-2.98411m19.84757,-5.18366c1.42019,-2.97673 2.84036,-5.95349 4.26061,-8.9302c5.25681,-11.01766 1.00712,-21.05773 -10.57681,-24.47438c-1.22821,-0.36226 -3.92523,0.48812 -4.23407,1.37216c-2.47397,7.08184 -5.58041,14.18552 -6.43609,21.52243c-0.87693,7.51934 9.1936,13.67748 16.98636,10.50999z" fill="#0C0C0C"/>
  <path id="svg_5" d="m285.97626,119.30704c-9.78144,-0.70503 -14.19626,-4.31727 -13.09253,-14.38502c0.6738,-6.14625 -0.58969,-12.21256 2.33163,-18.46114c4.91315,-10.50894 12.05719,-15.80723 24.50992,-14.75045c2.58606,-0.8444 4.3729,-1.54142 6.47714,-1.98234c1.22367,2.422 2.53907,4.51491 2.94147,6.7707c0.62512,3.50388 0.62885,7.11861 0.89597,10.68635c2.96539,6.21489 5.89224,12.4486 8.91375,18.63607c1.3429,2.75 2.19934,5.54061 -1.07742,7.29153c-3.59506,1.92097 -5.88309,-0.30225 -7.5997,-3.2858c-0.89829,-1.56127 -1.75137,-3.14854 -2.92944,-5.22825c-0.75656,-1.34505 -1.20856,-2.18592 -1.9621,-3.58772c-2.59558,8.33504 -8.38712,13.25224 -15.06336,17.78486c-1.71502,0.19292 -3.03018,0.35207 -4.34533,0.51121m6.76498,-15.14144c5.21616,-5.87185 6.37799,-13.15227 6.83045,-20.5699c0.04361,-0.71502 -2.22895,-1.57132 -4.21424,-2.49564c-2.96463,1.53594 -6.84948,2.36482 -8.69211,4.76289c-3.29339,4.28616 -5.63436,9.46936 -4.56692,15.29872c0.52493,2.86679 1.33939,5.68058 2.02286,8.51835c2.65188,-1.73277 5.3038,-3.46554 8.61996,-5.51442z" fill="#080706"/>
  <path id="svg_6" d="m366.61804,83.02158c0.66684,9.60381 1.3429,18.71564 1.98917,27.82958c0.08224,1.15979 0.02933,2.33106 0.00378,3.49624c-0.08078,3.69015 -0.5032,7.56332 -5.27109,7.4731c-4.41293,-0.08351 -4.77578,-3.79657 -4.96438,-7.30214c-0.64276,-11.9464 -1.44071,-23.8853 -1.97617,-35.83616c-0.18155,-4.05197 -1.83349,-5.72297 -5.84988,-5.07274c-1.47382,0.2386 -2.97809,0.28214 -4.46228,0.46481c-3.26508,0.40183 -5.74228,-0.59698 -6.20725,-4.12415c-0.43652,-3.3112 1.34726,-5.60575 4.53675,-6.12191c3.3999,-0.55021 6.90106,-0.47447 11.24005,-0.72241c-0.46683,-4.5682 -0.89554,-8.94926 -1.37088,-13.32524c-0.19711,-1.81438 -1.15039,-3.86479 -0.58566,-5.36622c0.77078,-2.04926 2.46023,-4.85482 4.13378,-5.14325c1.57688,-0.27177 4.865,1.99831 5.27713,3.67278c1.53861,6.25097 2.20511,12.71659 2.99796,17.81118c2.85074,2.3796 7.18082,4.58487 6.95248,6.10599c-0.43338,2.88744 -3.47723,5.38308 -5.43679,8.04146c-0.33554,-0.27279 -0.67112,-0.54559 -1.00666,-0.81838c0,2.81537 0,5.63075 -0.00006,8.93746z" fill="#0F0F0F"/>
  <path id="svg_7" d="m177.0731,97.93466c-1.25648,-0.87676 -2.15765,-1.63325 -3.16291,-2.20756c-9.14232,-5.223 -10.15131,-11.71072 -7.34735,-21.8115c1.41496,-5.09717 3.20356,-10.71211 9.16293,-12.1634c3.48398,-0.84846 7.51927,-0.64093 10.99824,0.26954c1.47084,0.38493 3.14155,3.94733 2.8673,5.78945c-0.21243,1.42688 -3.63289,3.7411 -5.06625,3.3874c-6.5597,-1.61865 -7.18894,3.28949 -8.53621,7.15864c-1.42653,4.0968 0.55305,6.55232 4.24388,8.83843c6.66812,4.13028 13.1821,8.67878 12.3941,18.23777c-0.80093,9.71592 -12.33288,16.72194 -21.16516,12.38758c-1.37178,-0.67321 -2.936,-2.78734 -2.84705,-4.13165c0.10682,-1.61464 1.57576,-3.60917 3.0304,-4.53763c1.57831,-1.00741 3.8645,-0.83513 5.75621,-1.44389c1.60414,-0.51624 4.3649,-1.40062 4.3717,-2.14267c0.01737,-1.89275 -1.07312,-3.87391 -2.01953,-5.66127c-0.41647,-0.78651 -1.55989,-1.1881 -2.6803,-1.96924z" fill="#0A0A0A"/>
  <path id="svg_8" d="m233.63911,91.52661c-0.46389,-6.2538 -0.97071,-12.04025 -1.19273,-17.8376c-0.13815,-3.60779 0.20564,-7.57176 4.9863,-7.69141c4.4564,-0.11152 4.98749,3.52055 5.19034,7.05055c0.08128,1.41413 0.40928,2.81409 0.487,3.32078c5.17648,-1.95378 10.04533,-4.11747 15.11508,-5.58912c3.32284,-0.96455 7.0459,-0.53449 8.04745,3.66115c1.06681,4.46894 -2.39587,6.07574 -5.81988,6.36256c-9.21028,0.77154 -10.47281,8.44985 -12.50629,14.72466c-1.91403,5.90621 -2.20241,12.35928 -3.00525,18.59759c-0.44086,3.42547 -1.37326,6.57146 -5.31959,6.61534c-4.25612,0.04734 -5.42301,-3.22467 -5.51131,-6.87461c-0.17638,-7.29129 -0.2674,-14.58464 -0.47112,-22.33989z" fill="#0C0C0C"/>
  <path id="svg_9" d="m442.76581,122.08007c-4.70752,0.08013 -6.30823,-2.76652 -6.50772,-6.37615c-0.73276,-13.25914 -1.44394,-26.52689 -1.66541,-39.79971c-0.03766,-2.25834 1.95969,-5.92622 3.75867,-6.46472c1.91736,-0.57391 4.71518,1.79376 7.75595,3.15879c3.58044,-4.1353 9.65375,-4.74721 15.84485,-3.99496c2.19491,0.26669 4.76697,1.75874 6.08279,3.50722c0.98227,1.3052 0.98169,4.46994 0.02219,5.79629c-0.92792,1.28267 -3.80463,2.05618 -5.543,1.69491c-7.26889,-1.51064 -7.25113,-1.21521 -10.65558,4.99882c-5.23618,9.55745 -5.69916,19.59414 -4.56888,29.97629c0.38437,3.53104 -0.37716,6.2858 -4.52386,7.50322z" fill="#0C0C0C"/>
  <path id="svg_10" d="m17.41945,80.55545c-0.0388,-7.45338 -0.08989,-14.44798 -0.03066,-21.44165c0.02978,-3.51735 0.61332,-7.1413 5.07746,-7.17096c4.46811,-0.02967 4.96978,3.57582 5.17477,7.10049c0.98252,16.89454 2.07325,33.78339 2.92995,50.68418c0.19546,3.85589 0.87371,8.56818 -4.83223,9.38589c-3.71693,0.53268 -4.99423,-2.55345 -5.45183,-9.38827c-0.6421,-9.59043 -1.86163,-19.14221 -2.86746,-29.16968z" fill="#131313"/>
  <path id="svg_11" d="m60.61988,62.19744c0.41054,10.76358 0.66432,21.53636 1.29491,32.28704c0.33705,5.74609 1.64266,11.44258 1.84916,17.18527c0.07487,2.08216 -1.77663,4.23359 -3.50949,6.39673c-4.69745,0.23555 -6.55749,-2.19726 -7.11583,-5.56878c-0.90556,-5.4683 -1.72559,-10.98005 -2.06987,-16.50536c-0.5632,-9.03909 -1.39908,-18.27473 -1.33391,-27.32762c5.32788,0.25121 8.99003,-2.22212 10.88503,-6.46728z" fill="#FF9A51"/>
  <path id="svg_12" d="m93.61987,61.19743c0.41055,10.76359 0.66433,21.53637 1.29492,32.28705c0.33704,5.74608 1.64266,11.44258 1.84916,17.18526c0.07488,2.08217 -1.77664,4.2336 -3.50949,6.39674c-4.69744,0.23553 -6.55749,-2.19727 -7.11583,-5.56878c-0.90557,-5.4683 -1.72559,-10.98005 -2.06986,-16.50536c-0.56319,-9.03909 -1.22814,-18.27473 -1.16296,-27.32762c5.32788,0.25122 8.81905,-2.22217 10.71406,-6.46729z" fill="#FF9A51"/>
  <path id="svg_13" d="m75.3352,47.65727c-0.85874,-8.35925 -0.9838,-19.20905 -2.58614,-22.01941c-1.60235,-2.81036 -4.42715,-6.17232 -3.11813,-6.69134c1.84875,-0.733 6.00972,0.0679 9.44651,2.75074c3.43679,2.68284 12.78016,14.86255 13.78706,21.71175c1.0069,6.8492 -7.2777,-0.72757 -9.49055,2.88102c-1.98109,3.23065 -4.94807,3.30398 -8.03875,1.36724z" fill="#111AFC"/>
  <path id="svg_14" d="m42.3352,48.48633c-0.85874,-8.35925 -0.71713,-17.47571 -1.91948,-21.48607c-1.20235,-4.01036 -5.23352,-5.69165 -3.65145,-7.09134c1.58206,-1.39969 5.74303,0.33456 9.0465,1.95073c3.30346,1.61617 12.64682,14.32921 13.92041,22.37841c1.27359,8.0492 -7.14436,-0.72756 -9.35721,2.88103c-1.9811,3.23065 -4.94808,3.30398 -8.03876,1.36724z" fill="#111AFC"/>
  <path id="svg_15" d="m306.57797,44.83135c3.78385,-7.2799 9.24079,-12.88564 16.90567,-15.94828c5.32447,-2.12748 10.16797,2.15548 11.33756,9.97025c-7.03846,0.44044 -7.8205,6.8312 -11.09915,11.82948c-6.14838,-0.51442 -11.23856,-3.24105 -16.64661,-5.02045c-0.23184,-0.07628 -0.3346,-0.54506 -0.49747,-0.831z" fill="#FF0908"/>
  <path id="svg_16" d="m83.02794,67.83465c0.32551,9.0539 0.47764,18.1186 1.04083,27.15769c0.34427,5.52531 1.16429,11.03706 2.06986,16.50536c0.55834,3.37151 2.41839,5.80431 6.77101,5.68397c-1.7728,0.85217 -4.59111,2.84438 -5.99452,2.11482c-1.87606,-0.97525 -3.3743,-3.93668 -3.77831,-6.26335c-1.63493,-9.4154 -2.99167,-18.89187 -4.04655,-28.39073c-0.69278,-6.23826 -0.69288,-13.06626 -0.67125,-19.64185c1.75761,0.57719 3.18327,1.96205 4.60893,2.83409z" fill="#FEB47C"/>
  <path id="svg_17" d="m50.02792,68.83465c0.32552,9.0539 0.47764,18.1186 1.04084,27.15769c0.34428,5.52531 1.16431,11.03706 2.06987,16.50536c0.55834,3.37152 2.41838,5.80433 6.77101,5.68397c-1.77279,0.85217 -4.59111,2.8444 -5.99451,2.11483c-1.87605,-0.97526 -3.37431,-3.93668 -3.77832,-6.26334c-1.63491,-9.41542 -2.99166,-18.89189 -4.04654,-28.39075c-0.69278,-6.23826 -0.6929,-13.2372 -0.67126,-19.81278c1.7576,0.57719 3.18325,2.13298 4.60891,3.00502z" fill="#FEB47C"/>
  <path id="svg_18" d="m50.41861,68.83566c-1.81635,-0.87305 -3.58537,-0.20464 -4.93835,-2.79487c-1.35298,-2.59023 -3.19442,-7.1322 -3.30153,-12.51258c-0.10711,-5.38038 3.71683,1.42888 5.46801,1.6797c2.25808,0.32342 4.74169,-0.39929 6.86326,0.22657c3.28229,0.96826 5.45876,-0.08342 7.41374,-2.45569c-0.34205,2.82701 -0.68411,5.65402 -1.16501,8.84984c-2.03385,4.61397 -5.01224,7.25824 -10.34012,7.00703z" fill="#878481"/>
  <path id="svg_19" d="m83.41863,67.83566c-1.81635,-0.87305 -3.85206,-1.00464 -4.93837,-2.79487c-1.08631,-1.79023 -3.4611,-7.66553 -3.30152,-12.51258c0.15958,-4.84705 3.71682,1.42887 5.468,1.67969c2.25809,0.32342 4.7417,-0.39928 6.86326,0.22657c3.2823,0.96829 5.45874,-0.08348 7.41376,-2.45566c-0.34206,2.827 -0.68411,5.65401 -1.16503,8.84982c-2.03387,4.61392 -5.01222,7.25825 -10.3401,7.00703z" fill="#878481"/>
  <path id="svg_20" d="m28.17654,29.95038c2.56694,7.03872 0.49203,12.71805 -5.06755,13.18467c-2.51705,0.21126 -7.10722,-1.25529 -7.45366,-2.73439c-0.86813,-3.70636 -0.64421,-8.18243 0.79635,-11.66536c0.58496,-1.41431 5.45746,-1.2947 8.39161,-1.36746c1.02058,-0.02531 2.07893,1.47223 3.33325,2.58254z" fill="#0C0C0C"/>
  <path id="svg_21" d="m322.66229,57.87916c-1.64047,2.81665 -3.28097,5.63331 -5.53717,8.83385c-4.11847,0.94181 -7.62124,1.49972 -11.12893,1.75331c-1.17191,-1.74823 -2.3389,-3.19213 -3.50586,-4.63604c-1.06867,-4.29967 -1.93216,-8.58366 1.34829,-12.47529c1.97043,1.26395 3.45401,2.61144 5.16788,3.52877c1.69537,0.90745 3.57681,1.61375 5.46014,1.98861c2.69202,0.53582 5.46009,0.68976 8.19565,1.00679z" fill="#868482"/>
  <path id="svg_22" d="m287.96025,119.05714c5.53012,-0.99138 13.70972,-10.38277 14.43963,-11.62826c0.72991,-1.24549 -2.74968,9.10834 -3.48879,11.53106c-0.73911,2.42272 -1.37024,4.60221 -3.24213,8.8928c-1.87189,4.29059 -5.91056,3.35605 -9.22002,3.33617c-3.30946,-0.01988 1.14431,-6.49693 1.11931,-9.14716c-0.01053,-1.11865 -5.13812,-1.99323 0.392,-2.9846z" fill="#F8934B"/>
  <path id="svg_23" d="m332.04071,99.73327c0.26022,-6.91982 0.50183,-13.3661 0.74344,-19.81239c5.49329,6.45941 5.21857,32.2249 0.77432,35.86493c-3.78363,-4.88469 -2.6832,-10.22947 -1.51776,-16.05254z" fill="#FF1010"/>
  <path id="svg_24" d="m62.08125,53.08998c-1.97916,2.79441 -4.28896,3.31276 -7.57125,2.3445c-2.12157,-0.62586 -4.60518,0.09685 -6.86326,-0.22657c-1.75118,-0.25082 -3.44201,-0.51893 -5.40404,-1.37313c-0.21539,-1.50243 -0.1279,-3.44809 0.00724,-5.2087c3.17594,1.45511 6.14292,1.38178 8.12402,-1.84887c2.21285,-3.60859 6.18894,-1.31204 9.32665,-2.34336c1.20979,2.50343 1.60731,5.63537 2.38064,8.65613z" fill="#F9B47A"/>
  <path id="svg_25" d="m94.94794,51.95666c-1.9792,2.79433 -4.15564,3.4461 -7.43794,2.47781c-2.12156,-0.62585 -4.60517,0.09685 -6.86326,-0.22657c-1.75118,-0.25082 -3.53772,-0.91892 -5.49975,-1.77312c-0.21539,-1.50244 -0.03219,-3.04809 0.10295,-4.8087c3.17594,1.45511 6.14292,1.38178 8.12401,-1.84887c2.21285,-3.60859 6.45561,-1.31204 9.59333,-2.34336c1.2098,2.50344 1.20732,5.50205 1.98066,8.52281z" fill="#F9B47A"/>
  <path id="svg_26" d="m322.64042,57.81788c-2.86636,0.04959 -5.48176,-0.40969 -8.17378,-0.94551c-1.88333,-0.37486 -3.76477,-1.08116 -5.46014,-1.98861c-1.71387,-0.91733 -3.35012,-1.8068 -5.05663,-3.32924c0.59717,-2.1678 1.56746,-6.36791 2.40822,-6.47891c0.84077,-0.11099 0.48551,0.51046 0.71735,0.58674c5.40805,1.7794 10.6509,4.04801 16.67653,4.88592c0.00138,1.97182 -0.64234,4.81909 -1.11155,7.26961z" fill="#FAB077"/>
  <path id="svg_27" d="m306.67277,68.39751c0,0 6.40851,-0.89194 10.2659,-1.66727c-1.89126,6.4286 -4.5849,13.59702 -7.05136,20.53555c-0.4877,-3.27525 -0.1183,-7.26311 -0.74342,-10.76699c-0.4024,-2.25579 -3.23471,-6.57216 -2.92053,-7.17097c0.31418,-0.59881 0.22553,-0.70643 0.44941,-0.93031z" fill="#E68F51"/>
  <path id="svg_28" d="m288.16425,119.0875c0.02383,0.18878 -0.53191,2.35798 -0.52138,3.47663c0.025,2.65023 -0.8139,5.30782 -0.7543,8.33667c-3.62756,0.90256 -4.50823,-0.52498 -4.6639,-3.75641c-0.0939,-1.94951 0.84087,-8.02625 1.23739,-8.01649c0.39652,0.00975 4.67836,-0.22917 4.70219,-0.04039z" fill="#FBAC72"/>
  <path id="svg_29" d="m335.84912,63.55016c-1.07034,1.07467 -1.9913,2.15669 -3.0094,2.25744c-0.53961,0.0534 -1.86609,-1.66876 -1.77435,-2.46723c0.42407,-3.69096 1.22134,-7.33905 3.07733,-11.0414c0.60513,3.61689 1.21027,7.23378 1.70642,11.25119z" fill="#FF0E0E"/>
  <path id="svg_30" d="m306.36932,68.31365c0.37807,-0.29269 -0.0625,1.00554 -0.16491,1.27705c-0.1024,0.27152 -4.04575,1.27533 -6.1987,2.0062c0.41323,-2.33304 1.49449,-5.07994 2.45384,-7.79672c1.34699,1.09404 3.5317,4.80616 3.90977,4.51347z" fill="#DFA77D"/>
  <path id="svg_31" d="m404.62341,111.10525c-7.54205,2.8437 -17.61258,-3.31444 -16.73565,-10.83378c0.85568,-7.33691 3.96212,-14.44059 6.43609,-21.52243c0.30884,-0.88404 3.00586,-1.73442 4.23407,-1.37216c11.58393,3.41665 15.83362,13.45672 10.57681,24.47438c-1.42025,2.97671 -2.84042,5.95347 -4.51132,9.25399z" fill="#F9F9F9"/>
  <path id="svg_32" d="m292.07696,104.48171c-2.65188,1.73277 -5.3038,3.46554 -7.95568,5.19831c-0.68347,-2.83777 -1.49793,-5.65156 -2.02286,-8.51835c-1.06744,-5.82936 1.27353,-11.01256 4.56692,-15.29872c1.84263,-2.39807 5.72748,-3.22695 9.07959,-4.27163c-0.17572,3.66391 -0.7293,6.83831 -1.30444,10.0088c-0.7792,4.29543 -1.57492,8.58787 -2.36353,12.88159z" fill="#F7F5F4"/>
  <path id="svg_33" d="m288.30462,107.08484c-0.46072,0.32838 3.491,-9.02511 4.71796,-13.46979c1.22696,-4.44468 3.44215,-11.79265 3.56407,-11.88231c0.12192,-0.08966 3.10328,1.14794 3.05967,1.86296c-0.11312,1.8544 -0.32654,7.39893 -1.91041,12.05228c-1.58387,4.65335 -4.53818,8.41552 -4.75995,8.49627c-0.44354,0.1615 -4.21062,2.61221 -4.67134,2.94059z" fill="#EBA672"/>
 </g>
</svg>