<svg version="1.1" id="Layer_1" xmlns="http://www.w3.org/2000/svg" xmlns:xlink="http://www.w3.org/1999/xlink" x="0px" y="0px"
	 width="100%" viewBox="0 0 480 150" enable-background="new 0 0 480 150" xml:space="preserve">
<path fill="#FDFDFD" opacity="1.000000" stroke="none" 
	d="
M309.000000,151.000000 
	C206.000031,151.000000 103.500061,151.000000 1.000069,151.000000 
	C1.000046,101.000046 1.000046,51.000092 1.000023,1.000102 
	C160.999908,1.000068 320.999817,1.000068 480.999817,1.000034 
	C480.999878,50.999893 480.999878,100.999786 480.999939,150.999847 
	C423.833344,151.000000 366.666656,151.000000 309.000000,151.000000 
M291.838837,130.960510 
	C298.343689,131.728622 299.991455,126.696793 301.639404,122.256752 
	C303.764496,116.531273 305.273712,110.577209 307.651428,105.103516 
	C308.524933,106.679146 309.377899,108.266571 310.276306,109.827881 
	C311.993195,112.811584 314.281647,115.034454 317.876678,113.113274 
	C321.153259,111.362259 320.297302,108.571602 318.954254,105.821350 
	C315.932556,99.633736 313.005707,93.399811 310.487518,86.611351 
	C312.731476,79.961716 314.975403,73.312088 317.741577,66.329712 
	C319.382172,63.512756 321.022766,60.695801 322.924835,57.145699 
	C323.263000,55.062012 323.601196,52.978329 324.185028,50.247677 
	C327.000702,45.684410 327.784515,39.295101 334.821838,38.853367 
	C333.651917,31.038418 328.810760,26.753174 323.483612,28.882236 
	C315.820801,31.944765 310.358459,37.547760 306.137451,45.319328 
	C305.418304,47.123444 304.699158,48.927559 303.452087,51.248791 
	C300.557526,55.245850 301.420044,59.530312 302.129486,64.530182 
	C301.350311,66.896950 300.571106,69.263725 298.925659,71.857361 
	C287.271820,70.652916 280.127991,75.951797 275.214813,86.460815 
	C272.293457,92.709457 273.557129,98.775902 272.883209,104.922234 
	C271.779114,114.991821 276.197449,118.603256 285.872528,120.163544 
	C285.869293,122.117851 285.786652,124.075989 285.880646,126.025612 
	C286.036407,129.257233 287.354797,131.349670 291.838837,130.960510 
M74.745140,52.636471 
	C73.123756,57.498604 75.968513,61.095531 78.086288,65.809288 
	C78.283363,71.602310 78.103539,77.438492 78.760963,83.178787 
	C79.905067,93.168343 81.397247,103.128288 83.134453,113.032074 
	C83.542801,115.360062 85.038208,118.321358 86.914543,119.297073 
	C88.317978,120.026871 91.137093,118.034264 94.015556,117.023659 
	C94.988060,114.903763 96.839066,112.752510 96.764740,110.669983 
	C96.559761,104.927002 95.257721,99.229889 94.920387,93.483475 
	C94.289307,82.733078 94.032890,71.960686 93.898407,60.459858 
	C94.240402,57.632595 94.582390,54.805328 94.972855,51.133904 
	C94.175346,48.535610 93.377838,45.937321 92.641357,42.530281 
	C93.991440,35.779659 87.646851,20.561234 81.744148,17.317135 
	C79.773926,16.234316 76.812859,15.433337 74.964134,16.166418 
	C73.654938,16.685556 72.746185,20.047495 72.881866,22.057892 
	C73.447395,30.437271 74.476028,38.785397 75.164024,48.107895 
	C75.114128,49.386497 75.064232,50.665100 74.745140,52.636471 
M41.745121,53.636478 
	C40.123756,58.498611 42.968521,62.095535 45.086285,66.809288 
	C45.283360,72.602310 45.103531,78.438499 45.760960,84.178795 
	C46.905064,94.168343 48.397247,104.128296 50.134460,114.032074 
	C50.542812,116.360062 52.038204,119.321381 53.914528,120.297066 
	C55.317978,121.026855 58.137077,119.034256 61.015564,118.023682 
	C61.988071,115.903786 63.839073,113.752533 63.764744,111.670006 
	C63.559761,105.927025 62.257702,100.229912 61.920372,94.483498 
	C61.289288,83.733093 61.032887,72.960701 60.898407,61.459858 
	C61.240402,58.632591 61.582394,55.805328 61.972851,52.133904 
	C61.175346,49.535614 60.377838,46.937321 59.641354,43.530289 
	C60.991440,36.779655 54.646866,21.561237 48.744148,18.317133 
	C46.773930,17.234312 43.812862,16.433342 41.964130,17.166422 
	C40.654938,17.685556 39.746193,21.047497 39.881878,23.057892 
	C40.447407,31.437269 41.476032,39.785397 42.164021,49.107899 
	C42.114120,50.386501 42.064217,51.665108 41.745121,53.636478 
M139.292679,68.872856 
	C139.018433,70.513489 138.704727,72.148666 138.476730,73.795700 
	C137.436081,81.312927 136.746704,88.899200 135.255447,96.324974 
	C134.516220,100.005943 132.318054,103.393921 130.231216,108.170441 
	C125.150826,99.294487 122.660072,91.275383 121.723656,82.912743 
	C120.875832,75.341324 120.943642,67.667274 120.610237,60.038376 
	C120.455978,56.508690 119.905838,52.957268 115.421310,52.974255 
	C111.261719,52.990017 110.583389,56.324348 110.405960,59.700005 
	C109.531342,76.340126 111.364037,92.600647 117.842476,108.069305 
	C119.771011,112.674095 122.516190,116.861862 128.375687,117.549385 
	C134.131958,118.224792 137.965515,115.821144 140.575012,110.901764 
	C140.901489,110.286301 141.514984,109.823082 142.271530,108.982697 
	C143.436005,111.218506 144.236237,113.035873 145.281128,114.699593 
	C147.149277,117.674133 149.544617,120.378738 153.377930,118.385536 
	C157.365097,116.312355 155.759140,113.114624 154.673981,109.744026 
	C152.926880,104.317436 151.250626,98.706604 150.778259,93.070206 
	C150.127396,85.304115 150.639191,77.441757 150.624191,69.620697 
	C150.617310,66.029770 149.801270,62.677303 145.589050,62.230183 
	C141.633606,61.810314 140.112823,64.652367 139.292679,68.872856 
M207.369354,80.499084 
	C207.718048,91.798401 208.027084,103.099167 208.440094,114.396133 
	C208.560501,117.689491 209.791870,120.481796 213.652283,120.405197 
	C217.210709,120.334572 218.527786,117.670639 218.524643,114.587708 
	C218.518204,108.274811 218.102493,101.963005 218.058060,95.649323 
	C217.974274,83.738243 218.033875,71.826157 218.033875,59.632381 
	C221.565353,59.970970 224.846939,60.497028 228.134689,60.538803 
	C231.162598,60.577278 233.914642,59.503300 234.218002,55.938965 
	C234.520874,52.380226 232.163864,50.934193 229.010437,50.491779 
	C224.958450,49.923298 220.900070,49.400406 216.631378,48.829376 
	C216.631378,46.775841 216.648392,44.960739 216.628174,43.146053 
	C216.566986,37.653526 216.877884,32.112907 216.201675,26.696161 
	C215.979340,24.915173 213.208130,22.225252 211.562469,22.195936 
	C209.933395,22.166910 207.816864,24.721546 206.740204,26.613096 
	C205.935974,28.026035 206.390656,30.186470 206.380508,32.014576 
	C206.351120,37.301949 206.370087,42.589592 206.370087,47.519733 
	C201.582260,47.519733 197.227310,46.998600 193.102158,47.745869 
	C191.124329,48.104149 189.581284,50.862427 187.841324,52.533783 
	C189.598221,54.192650 191.092819,56.615463 193.173965,57.330002 
	C196.238235,58.382088 199.728882,58.555305 203.022858,58.476154 
	C206.507202,58.392426 207.335861,60.132877 207.339645,63.010738 
	C207.346893,68.507065 207.358932,74.003387 207.369354,80.499084 
M400.152924,67.676010 
	C388.679443,66.840225 386.967163,67.129501 382.368011,78.490410 
	C375.452362,95.573441 373.268188,107.350571 388.356476,119.205620 
	C395.989136,125.202682 409.352509,123.447594 414.405029,115.292831 
	C418.989075,107.894196 420.543091,99.973877 420.878510,91.191612 
	C421.321014,79.606102 414.334015,68.918381 400.152924,67.676010 
M369.338776,62.753723 
	C368.207001,62.658245 367.075226,62.562767 366.369293,62.503212 
	C365.340118,55.807911 364.683380,49.337971 363.162048,43.078167 
	C362.746185,41.367157 359.162720,38.811405 358.040649,39.245895 
	C356.113800,39.992001 354.511230,42.605305 353.675354,44.781528 
	C353.106262,46.263275 354.142395,48.328552 354.343781,50.145859 
	C354.812134,54.372452 355.209778,58.606884 355.662354,63.099106 
	C351.412384,63.336102 347.913544,63.239616 344.523926,63.801800 
	C341.096619,64.370239 339.279633,66.803520 339.938354,70.337135 
	C340.537720,73.552505 342.951599,74.466164 345.986237,74.086113 
	C347.307190,73.920685 348.641846,73.841461 349.951904,73.616241 
	C354.735779,72.793808 356.296417,74.931908 356.460999,79.591385 
	C356.883575,91.554161 357.731201,103.501945 358.410858,115.455620 
	C358.595062,118.695786 359.473145,121.728844 363.285645,121.849106 
	C367.421539,121.979568 368.416779,118.854874 368.587280,115.395874 
	C368.652832,114.065552 368.698212,112.724014 368.606293,111.397743 
	C367.744965,98.971603 366.851837,86.547653 365.981354,74.312378 
	C374.767761,70.259361 375.804352,67.107430 369.338776,62.753723 
M191.696808,109.943611 
	C194.260239,99.337112 191.680786,93.895515 179.924713,86.998787 
	C176.029892,84.713890 174.644363,81.946373 176.085693,78.002724 
	C177.434464,74.312347 178.096024,69.639565 184.397858,71.170952 
	C185.879837,71.531082 189.314728,69.063667 189.661118,67.432106 
	C190.011963,65.779518 187.960114,62.204407 186.412720,61.847569 
	C182.909302,61.039677 178.881744,60.988556 175.406174,61.909012 
	C169.219559,63.547447 167.521286,69.548950 166.299225,74.715851 
	C163.960342,84.604645 164.639511,90.088303 173.769928,95.675026 
	C176.165649,97.140915 178.578613,98.743584 180.533920,100.726837 
	C183.714172,103.952522 182.675827,106.752525 178.289520,107.607681 
	C176.165588,108.021759 173.756226,107.983833 172.012711,109.038048 
	C170.430191,109.994919 168.584152,112.214767 168.677353,113.768456 
	C168.771347,115.335510 170.842285,117.555710 172.510223,118.119499 
	C178.841339,120.259514 187.980240,116.380852 191.696808,109.943611 
M255.811279,81.842903 
	C258.390564,81.203674 261.147339,80.927521 263.481384,79.786636 
	C264.843170,79.120979 266.267975,77.093887 266.310669,75.639572 
	C266.353271,74.188766 265.034515,72.062538 263.715424,71.370201 
	C262.115448,70.530457 259.704285,70.289963 257.969727,70.832077 
	C252.950562,72.400787 248.094604,74.491722 243.075073,76.415802 
	C243.093994,76.489418 242.880112,75.878067 242.784302,75.248734 
	C242.190826,71.350838 243.430649,66.162071 237.133469,65.985512 
	C233.333572,65.878983 232.034103,70.134163 232.508408,76.986458 
	C233.286819,88.232300 233.698059,99.507980 234.041748,110.777863 
	C234.255646,117.791435 235.739624,120.878220 239.537155,120.852226 
	C243.168152,120.827370 244.383804,117.902344 245.013611,111.211082 
	C245.996338,100.770271 247.587769,90.389275 255.811279,81.842903 
M443.160919,70.650215 
	C438.191864,67.565331 434.582001,69.109100 434.559082,74.906364 
	C434.526367,83.184265 435.240753,91.464447 435.609131,99.744843 
	C435.852478,105.214485 435.859314,110.702652 436.331970,116.151299 
	C436.651459,119.833916 438.561279,122.658577 442.805969,122.008362 
	C446.693970,121.412796 447.761078,118.491257 447.309723,114.929901 
	C445.900452,103.810776 447.048340,93.259369 452.482819,83.112991 
	C454.731354,78.914917 457.314362,77.876144 461.187164,79.248421 
	C464.682251,80.486839 467.486359,80.476875 468.933685,76.633858 
	C470.178253,73.329170 467.437164,69.292191 463.358978,68.725464 
	C457.519226,67.913940 451.760284,68.031258 446.742859,72.007607 
	C446.223816,72.418968 444.727386,71.596992 443.160919,70.650215 
M22.506058,51.839577 
	C17.417465,52.464161 17.215879,56.324055 17.410295,60.049038 
	C18.342731,77.914528 19.400393,95.773727 20.484625,113.630836 
	C20.674782,116.762695 22.233208,119.680977 25.596371,118.939499 
	C27.520643,118.515251 28.989620,115.685577 30.465315,113.784958 
	C30.880676,113.250000 30.666691,112.166473 30.619934,111.341446 
	C29.598383,93.315804 28.677971,75.282402 27.348896,57.279232 
	C27.209600,55.392395 24.637514,53.685162 22.506058,51.839577 
M21.467363,26.495171 
	C18.208548,26.608822 15.054207,27.683887 14.907130,31.206274 
	C14.757691,34.785271 15.197542,38.812355 16.842785,41.850784 
	C17.582455,43.216805 22.116764,43.473259 24.512308,42.784027 
	C28.464172,41.647026 29.765505,37.979950 29.499346,34.021580 
	C29.199070,29.555803 26.485552,27.246527 21.467363,26.495171 
M336.829041,114.847130 
	C336.023682,113.569626 335.218292,112.292130 334.061646,110.457413 
	C332.587677,112.172165 331.640930,113.451828 330.508667,114.538101 
	C329.485596,115.519592 328.259796,116.289734 327.123444,117.153107 
	C328.635742,117.873428 330.084015,118.872231 331.677673,119.238686 
	C333.400757,119.634895 335.293762,119.674042 337.046661,119.417603 
	C338.123779,119.260033 339.077148,118.256378 340.086090,117.632645 
	C339.242584,116.786362 338.399048,115.940086 336.829041,114.847130 
M335.964691,89.963219 
	C336.001526,87.842743 336.218018,85.700478 335.965210,83.615105 
	C335.889801,82.993042 334.499817,82.530350 333.712097,81.994637 
	C333.209595,83.965446 332.265778,85.963936 332.386932,87.895630 
	C332.449463,88.892189 334.405212,89.769981 335.964691,89.963219 
z"/>
<path fill="#0D0D0D" opacity="1.000000" stroke="none" 
	d="
M139.388718,68.477646 
	C140.112823,64.652367 141.633606,61.810314 145.589050,62.230183 
	C149.801270,62.677303 150.617310,66.029770 150.624191,69.620697 
	C150.639191,77.441757 150.127396,85.304115 150.778259,93.070206 
	C151.250626,98.706604 152.926880,104.317436 154.673981,109.744026 
	C155.759140,113.114624 157.365097,116.312355 153.377930,118.385536 
	C149.544617,120.378738 147.149277,117.674133 145.281128,114.699593 
	C144.236237,113.035873 143.436005,111.218506 142.271530,108.982697 
	C141.514984,109.823082 140.901489,110.286301 140.575012,110.901764 
	C137.965515,115.821144 134.131958,118.224792 128.375687,117.549385 
	C122.516190,116.861862 119.771011,112.674095 117.842476,108.069305 
	C111.364037,92.600647 109.531342,76.340126 110.405960,59.700005 
	C110.583389,56.324348 111.261719,52.990017 115.421310,52.974255 
	C119.905838,52.957268 120.455978,56.508690 120.610237,60.038376 
	C120.943642,67.667274 120.875832,75.341324 121.723656,82.912743 
	C122.660072,91.275383 125.150826,99.294487 130.231216,108.170441 
	C132.318054,103.393921 134.516220,100.005943 135.255447,96.324974 
	C136.746704,88.899200 137.436081,81.312927 138.476730,73.795700 
	C138.704727,72.148666 139.018433,70.513489 139.388718,68.477646 
z"/>
<path fill="#121212" opacity="1.000000" stroke="none" 
	d="
M207.369171,79.999397 
	C207.358932,74.003387 207.346893,68.507065 207.339645,63.010738 
	C207.335861,60.132877 206.507202,58.392426 203.022858,58.476154 
	C199.728882,58.555305 196.238235,58.382088 193.173965,57.330002 
	C191.092819,56.615463 189.598221,54.192650 187.841324,52.533779 
	C189.581284,50.862427 191.124329,48.104149 193.102158,47.745869 
	C197.227310,46.998600 201.582260,47.519733 206.370087,47.519733 
	C206.370087,42.589592 206.351120,37.301949 206.380508,32.014576 
	C206.390656,30.186470 205.935974,28.026035 206.740204,26.613096 
	C207.816864,24.721546 209.933395,22.166910 211.562469,22.195936 
	C213.208130,22.225252 215.979340,24.915173 216.201675,26.696161 
	C216.877884,32.112907 216.566986,37.653526 216.628174,43.146053 
	C216.648392,44.960739 216.631378,46.775841 216.631378,48.829376 
	C220.900070,49.400406 224.958450,49.923298 229.010437,50.491779 
	C232.163864,50.934193 234.520874,52.380226 234.218002,55.938965 
	C233.914642,59.503300 231.162598,60.577278 228.134689,60.538803 
	C224.846939,60.497028 221.565353,59.970970 218.033875,59.632381 
	C218.033875,71.826157 217.974274,83.738243 218.058060,95.649323 
	C218.102493,101.963005 218.518204,108.274811 218.524643,114.587708 
	C218.527786,117.670639 217.210709,120.334572 213.652283,120.405197 
	C209.791870,120.481796 208.560501,117.689491 208.440094,114.396133 
	C208.027084,103.099167 207.718048,91.798401 207.369171,79.999397 
z"/>
<path fill="#0C0C0C" opacity="1.000000" stroke="none" 
	d="
M400.566772,67.692566 
	C414.334015,68.918381 421.321014,79.606102 420.878510,91.191612 
	C420.543091,99.973877 418.989075,107.894196 414.405029,115.292831 
	C409.352509,123.447594 395.989136,125.202682 388.356476,119.205620 
	C373.268188,107.350571 375.452362,95.573441 382.368011,78.490410 
	C386.967163,67.129501 388.679443,66.840225 400.566772,67.692566 
M410.405548,97.173355 
	C410.436310,81.946281 409.972839,81.278725 399.146393,77.401886 
	C396.689514,76.522102 394.927887,76.441689 393.989838,79.072861 
	C391.790802,85.241058 389.099945,91.327415 387.788422,97.690178 
	C386.655731,103.185318 391.337616,109.911499 396.641815,111.771568 
	C400.379578,113.082321 404.282776,113.417061 406.219025,108.623894 
	C407.634521,105.119797 408.995667,101.593765 410.405548,97.173355 
z"/>
<path fill="#080706" opacity="1.000000" stroke="none" 
	d="
M310.040253,87.184738 
	C313.005707,93.399811 315.932556,99.633736 318.954254,105.821350 
	C320.297302,108.571602 321.153259,111.362259 317.876678,113.113274 
	C314.281647,115.034454 311.993195,112.811584 310.276306,109.827881 
	C309.377899,108.266571 308.524933,106.679146 307.347076,104.599266 
	C306.590698,103.253998 306.138702,102.412979 305.385132,101.010910 
	C302.789124,109.345451 296.998260,114.263481 290.321442,118.795883 
	C288.606354,118.988892 287.291168,119.148125 285.975952,119.307358 
	C276.197449,118.603256 271.779114,114.991821 272.883209,104.922234 
	C273.557129,98.775902 272.293457,92.709457 275.214813,86.460815 
	C280.127991,75.951797 287.271820,70.652916 299.724915,71.710297 
	C302.311157,70.866173 304.098114,70.169113 306.202484,69.728134 
	C307.426086,72.150108 308.741394,74.243011 309.143890,76.498787 
	C309.769073,80.002525 309.772980,83.617126 310.040253,87.184738 
M292.741364,104.165459 
	C297.957520,98.293549 299.119263,91.013062 299.571686,83.595406 
	C299.615265,82.880470 297.342560,82.024261 295.357208,81.100052 
	C292.392609,82.636063 288.507782,83.465012 286.665192,85.863121 
	C283.371887,90.149323 281.030701,95.332504 282.098389,101.161903 
	C282.623444,104.028648 283.437988,106.842377 284.121490,109.680115 
	C286.773346,107.947243 289.425201,106.214378 292.741364,104.165459 
z"/>
<path fill="#0F0F0F" opacity="1.000000" stroke="none" 
	d="
M369.740845,62.845882 
	C375.804352,67.107430 374.767761,70.259361 365.981354,74.312378 
	C366.851837,86.547653 367.744965,98.971603 368.606293,111.397743 
	C368.698212,112.724014 368.652832,114.065552 368.587280,115.395874 
	C368.416779,118.854874 367.421539,121.979568 363.285645,121.849106 
	C359.473145,121.728844 358.595062,118.695786 358.410858,115.455620 
	C357.731201,103.501945 356.883575,91.554161 356.460999,79.591385 
	C356.296417,74.931908 354.735779,72.793808 349.951904,73.616241 
	C348.641846,73.841461 347.307190,73.920685 345.986237,74.086113 
	C342.951599,74.466164 340.537720,73.552505 339.938354,70.337135 
	C339.279633,66.803520 341.096619,64.370239 344.523926,63.801800 
	C347.913544,63.239616 351.412384,63.336102 355.662354,63.099106 
	C355.209778,58.606884 354.812134,54.372452 354.343781,50.145859 
	C354.142395,48.328552 353.106262,46.263275 353.675354,44.781528 
	C354.511230,42.605305 356.113800,39.992001 358.040649,39.245895 
	C359.162720,38.811405 362.746185,41.367157 363.162048,43.078167 
	C364.683380,49.337971 365.340118,55.807911 366.369293,62.503212 
	C367.075226,62.562767 368.207001,62.658245 369.740845,62.845882 
z"/>
<path fill="#0A0A0A" opacity="1.000000" stroke="none" 
	d="
M191.512436,110.283119 
	C187.980240,116.380852 178.841339,120.259514 172.510223,118.119499 
	C170.842285,117.555710 168.771347,115.335510 168.677353,113.768456 
	C168.584152,112.214767 170.430191,109.994919 172.012711,109.038048 
	C173.756226,107.983833 176.165588,108.021759 178.289520,107.607681 
	C182.675827,106.752525 183.714172,103.952522 180.533920,100.726837 
	C178.578613,98.743584 176.165649,97.140915 173.769928,95.675026 
	C164.639511,90.088303 163.960342,84.604645 166.299225,74.715851 
	C167.521286,69.548950 169.219559,63.547447 175.406174,61.909012 
	C178.881744,60.988556 182.909302,61.039677 186.412720,61.847569 
	C187.960114,62.204407 190.011963,65.779518 189.661118,67.432106 
	C189.314728,69.063667 185.879837,71.531082 184.397858,71.170952 
	C178.096024,69.639565 177.434464,74.312347 176.085693,78.002724 
	C174.644363,81.946373 176.029892,84.713890 179.924713,86.998787 
	C191.680786,93.895515 194.260239,99.337112 191.512436,110.283119 
z"/>
<path fill="#0C0C0C" opacity="1.000000" stroke="none" 
	d="
M255.449219,81.991180 
	C247.587769,90.389275 245.996338,100.770271 245.013611,111.211082 
	C244.383804,117.902344 243.168152,120.827370 239.537155,120.852226 
	C235.739624,120.878220 234.255646,117.791435 234.041748,110.777863 
	C233.698059,99.507980 233.286819,88.232300 232.508408,76.986458 
	C232.034103,70.134163 233.333572,65.878983 237.133469,65.985512 
	C243.430649,66.162071 242.190826,71.350838 242.784302,75.248734 
	C242.880112,75.878067 243.093994,76.489418 243.075073,76.415802 
	C248.094604,74.491722 252.950562,72.400787 257.969727,70.832077 
	C259.704285,70.289963 262.115448,70.530457 263.715424,71.370201 
	C265.034515,72.062538 266.353271,74.188766 266.310669,75.639572 
	C266.267975,77.093887 264.843170,79.120979 263.481384,79.786636 
	C261.147339,80.927521 258.390564,81.203674 255.449219,81.991180 
z"/>
<path fill="#0C0C0C" opacity="1.000000" stroke="none" 
	d="
M443.422668,70.998749 
	C444.727386,71.596992 446.223816,72.418968 446.742859,72.007607 
	C451.760284,68.031258 457.519226,67.913940 463.358978,68.725464 
	C467.437164,69.292191 470.178253,73.329170 468.933685,76.633858 
	C467.486359,80.476875 464.682251,80.486839 461.187164,79.248421 
	C457.314362,77.876144 454.731354,78.914917 452.482819,83.112991 
	C447.048340,93.259369 445.900452,103.810776 447.309723,114.929901 
	C447.761078,118.491257 446.693970,121.412796 442.805969,122.008362 
	C438.561279,122.658577 436.651459,119.833916 436.331970,116.151299 
	C435.859314,110.702652 435.852478,105.214485 435.609131,99.744843 
	C435.240753,91.464447 434.526367,83.184265 434.559082,74.906364 
	C434.582001,69.109100 438.191864,67.565331 443.422668,70.998749 
z"/>
<path fill="#131313" opacity="1.000000" stroke="none" 
	d="
M22.850101,51.867088 
	C24.637514,53.685162 27.209600,55.392395 27.348896,57.279232 
	C28.677971,75.282402 29.598383,93.315804 30.619934,111.341446 
	C30.666691,112.166473 30.880676,113.250000 30.465315,113.784958 
	C28.989620,115.685577 27.520643,118.515251 25.596371,118.939499 
	C22.233208,119.680977 20.674782,116.762695 20.484625,113.630836 
	C19.400393,95.773727 18.342731,77.914528 17.410295,60.049038 
	C17.215879,56.324055 17.417465,52.464161 22.850101,51.867088 
z"/>
<path fill="#FF9A51" opacity="1.000000" stroke="none" 
	d="
M60.620609,62.197453 
	C61.032887,72.960701 61.289288,83.733093 61.920372,94.483498 
	C62.257702,100.229912 63.559761,105.927025 63.764744,111.670006 
	C63.839073,113.752533 61.988071,115.903786 60.255142,118.066772 
	C55.557518,118.302536 53.697029,115.869781 53.138584,112.498329 
	C52.232826,107.030029 51.413013,101.518188 51.068760,95.992828 
	C50.505577,86.953613 50.353451,77.888794 50.418625,68.835808 
	C55.746994,69.087463 58.724525,66.441505 60.620609,62.197453 
z"/>
<path fill="#FF9A51" opacity="1.000000" stroke="none" 
	d="
M93.620613,61.197449 
	C94.032890,71.960686 94.289307,82.733078 94.920387,93.483475 
	C95.257721,99.229889 96.559761,104.927002 96.764740,110.669983 
	C96.839066,112.752510 94.988060,114.903763 93.255142,117.066765 
	C88.557564,117.302483 86.697044,114.869812 86.138603,111.498322 
	C85.232864,106.030022 84.413010,100.518181 84.068748,94.992828 
	C83.505562,85.953613 83.353439,76.888794 83.418625,67.835808 
	C88.746986,68.087448 91.724541,65.441528 93.620613,61.197449 
z"/>
<path fill="#111AFC" opacity="1.000000" stroke="none" 
	d="
M75.334824,47.144981 
	C74.476028,38.785397 73.447395,30.437271 72.881866,22.057892 
	C72.746185,20.047495 73.654938,16.685556 74.964134,16.166418 
	C76.812859,15.433337 79.773926,16.234316 81.744148,17.317135 
	C87.646851,20.561234 93.991440,35.779659 92.198471,43.029579 
	C89.030136,44.465569 85.586929,42.168411 83.374084,45.777172 
	C81.392853,49.008213 78.425636,49.080433 75.334824,47.144981 
z"/>
<path fill="#111AFC" opacity="1.000000" stroke="none" 
	d="
M42.334824,48.144981 
	C41.476032,39.785397 40.447407,31.437269 39.881878,23.057892 
	C39.746193,21.047497 40.654938,17.685556 41.964130,17.166422 
	C43.812862,16.433342 46.773930,17.234312 48.744148,18.317133 
	C54.646866,21.561237 60.991440,36.779655 59.198471,44.029583 
	C56.030132,45.465565 52.586926,43.168404 50.374081,46.777168 
	C48.392845,50.008221 45.425636,50.080425 42.334824,48.144981 
z"/>
<path fill="#FF0908" opacity="1.000000" stroke="none" 
	d="
M306.577454,44.831024 
	C310.358459,37.547760 315.820801,31.944765 323.483612,28.882236 
	C328.810760,26.753174 333.651917,31.038418 334.821838,38.853367 
	C327.784515,39.295101 327.000702,45.684410 323.722382,50.683098 
	C317.573822,50.167892 312.483032,47.442543 307.075165,45.661957 
	C306.843201,45.585587 306.740417,45.116936 306.577454,44.831024 
z"/>
<path fill="#FEB47C" opacity="1.000000" stroke="none" 
	d="
M83.027924,67.834770 
	C83.353439,76.888794 83.505562,85.953613 84.068748,94.992828 
	C84.413010,100.518181 85.232864,106.030022 86.138603,111.498322 
	C86.697044,114.869812 88.557564,117.302483 92.910278,117.181870 
	C91.137093,118.034264 88.317978,120.026871 86.914543,119.297073 
	C85.038208,118.321358 83.542801,115.360062 83.134453,113.032074 
	C81.397247,103.128288 79.905067,93.168343 78.760963,83.178787 
	C78.103539,77.438492 78.283363,71.602310 78.418503,65.513962 
	C80.176445,66.090683 81.602188,66.962723 83.027924,67.834770 
z"/>
<path fill="#FEB47C" opacity="1.000000" stroke="none" 
	d="
M50.027931,68.834770 
	C50.353451,77.888794 50.505577,86.953613 51.068760,95.992828 
	C51.413013,101.518188 52.232826,107.030029 53.138584,112.498329 
	C53.697029,115.869781 55.557518,118.302536 59.910271,118.181870 
	C58.137077,119.034256 55.317978,121.026855 53.914528,120.297066 
	C52.038204,119.321381 50.542812,116.360062 50.134460,114.032074 
	C48.397247,104.128296 46.905064,94.168343 45.760960,84.178795 
	C45.103531,78.438499 45.283360,72.602310 45.418499,66.513962 
	C47.176453,67.090683 48.602192,67.962730 50.027931,68.834770 
z"/>
<path fill="#878481" opacity="1.000000" stroke="none" 
	d="
M50.418625,68.835808 
	C48.602192,67.962730 47.176453,67.090683 45.479839,66.041153 
	C42.968521,62.095535 40.123756,58.498611 42.145096,53.513588 
	C44.241833,54.021759 45.895000,54.957027 47.646229,55.207939 
	C49.904526,55.531513 52.388546,54.808426 54.510197,55.434566 
	C57.793247,56.403461 59.969292,55.350243 61.924385,52.978062 
	C61.582394,55.805328 61.240402,58.632591 60.759506,61.828655 
	C58.724525,66.441505 55.746994,69.087463 50.418625,68.835808 
z"/>
<path fill="#878481" opacity="1.000000" stroke="none" 
	d="
M83.418625,67.835808 
	C81.602188,66.962723 80.176445,66.090683 78.479828,65.041145 
	C75.968513,61.095531 73.123756,57.498604 75.145111,52.513580 
	C77.241829,53.021755 78.895004,53.957012 80.646225,54.207928 
	C82.904526,54.531494 85.388550,53.808422 87.510201,54.434563 
	C90.793243,55.403458 92.969292,54.350231 94.924377,51.978065 
	C94.582390,54.805328 94.240402,57.632595 93.759506,60.828651 
	C91.724541,65.441528 88.746986,68.087448 83.418625,67.835808 
z"/>
<path fill="#0C0C0C" opacity="1.000000" stroke="none" 
	d="
M21.837933,26.530645 
	C26.485552,27.246527 29.199070,29.555803 29.499346,34.021580 
	C29.765505,37.979950 28.464172,41.647026 24.512308,42.784027 
	C22.116764,43.473259 17.582455,43.216805 16.842785,41.850784 
	C15.197542,38.812355 14.757691,34.785271 14.907130,31.206274 
	C15.054207,27.683887 18.208548,26.608822 21.837933,26.530645 
z"/>
<path fill="#868482" opacity="1.000000" stroke="none" 
	d="
M322.663330,57.878845 
	C321.022766,60.695801 319.382172,63.512756 317.125671,66.713310 
	C313.006897,67.654953 309.503998,68.212997 305.996246,68.466660 
	C304.824127,66.718384 303.656860,65.274498 302.489624,63.830612 
	C301.420044,59.530312 300.557526,55.245850 303.838043,51.353794 
	C305.808441,52.618229 307.291962,53.966244 309.005890,54.883770 
	C310.701385,55.791431 312.583130,56.497681 314.466675,56.872475 
	C317.159027,57.408215 319.927429,57.561962 322.663330,57.878845 
z"/>
<path fill="#F8934B" opacity="1.000000" stroke="none" 
	d="
M290.721313,118.762115 
	C296.998260,114.263481 302.789124,109.345451 305.385132,101.010910 
	C306.138702,102.412979 306.590698,103.253998 307.045441,104.408302 
	C305.273712,110.577209 303.764496,116.531273 301.639404,122.256752 
	C299.991455,126.696793 298.343689,131.728622 291.377747,130.514435 
	C290.923279,127.417641 290.951447,124.766701 290.926392,122.116272 
	C290.915833,120.997673 290.793091,119.880135 290.721313,118.762115 
z"/>
<path fill="#F9B47A" opacity="1.000000" stroke="none" 
	d="
M94.948624,51.555984 
	C92.969292,54.350231 90.793243,55.403458 87.510201,54.434563 
	C85.388550,53.808422 82.904526,54.531494 80.646225,54.207928 
	C78.895004,53.957012 77.241829,53.021755 75.279709,52.167198 
	C75.064232,50.665100 75.114128,49.386497 75.249420,47.626438 
	C78.425636,49.080433 81.392853,49.008213 83.374084,45.777172 
	C85.586929,42.168411 89.030136,44.465569 92.167961,43.433952 
	C93.377838,45.937321 94.175346,48.535610 94.948624,51.555984 
z"/>
<path fill="#F9B47A" opacity="1.000000" stroke="none" 
	d="
M61.948616,52.555984 
	C59.969292,55.350243 57.793247,56.403461 54.510197,55.434566 
	C52.388546,54.808426 49.904526,55.531513 47.646229,55.207939 
	C45.895000,54.957027 44.241833,54.021759 42.279694,53.167202 
	C42.064217,51.665108 42.114120,50.386501 42.249420,48.626442 
	C45.425636,50.080425 48.392845,50.008221 50.374081,46.777168 
	C52.586926,43.168404 56.030132,45.465565 59.167961,44.433952 
	C60.377838,46.937321 61.175346,49.535614 61.948616,52.555984 
z"/>
<path fill="#FAB077" opacity="1.000000" stroke="none" 
	d="
M322.794067,57.512268 
	C319.927429,57.561962 317.159027,57.408215 314.466675,56.872475 
	C312.583130,56.497681 310.701385,55.791431 309.005890,54.883770 
	C307.291962,53.966244 305.808441,52.618229 304.101990,51.095238 
	C304.699158,48.927559 305.418304,47.123444 306.357452,45.075172 
	C306.740417,45.116936 306.843201,45.585587 307.075165,45.661957 
	C312.483032,47.442543 317.573822,50.167892 323.599548,51.006584 
	C323.601196,52.978329 323.263000,55.062012 322.794067,57.512268 
z"/>
<path fill="#E68F51" opacity="1.000000" stroke="none" 
	d="
M306.001129,68.771042 
	C309.503998,68.212997 313.006897,67.654953 316.864563,66.879684 
	C314.975403,73.312088 312.731476,79.961716 310.263885,86.898041 
	C309.772980,83.617126 309.769073,80.002525 309.143890,76.498787 
	C308.741394,74.243011 307.426086,72.150108 306.223389,69.551834 
	C305.926880,69.119461 306.001129,68.771042 306.001129,68.771042 
z"/>
<path fill="#FF1212" opacity="1.000000" stroke="none" 
	d="
M337.192291,114.970474 
	C338.399048,115.940086 339.242584,116.786362 340.086090,117.632645 
	C339.077148,118.256378 338.123779,119.260033 337.046661,119.417603 
	C335.293762,119.674042 333.400757,119.634895 331.677673,119.238686 
	C330.084015,118.872231 328.635742,117.873428 327.123444,117.153099 
	C328.259796,116.289734 329.485596,115.519592 330.508667,114.538101 
	C331.640930,113.451828 332.587677,112.172165 334.061646,110.457413 
	C335.218292,112.292130 336.023682,113.569626 337.192291,114.970474 
z"/>
<path fill="#FBAC72" opacity="1.000000" stroke="none" 
	d="
M290.321442,118.795883 
	C290.793091,119.880135 290.915833,120.997673 290.926392,122.116272 
	C290.951447,124.766701 290.923279,127.417641 290.982788,130.446747 
	C287.354797,131.349670 286.036407,129.257233 285.880646,126.025612 
	C285.786652,124.075989 285.869293,122.117851 285.924255,119.735451 
	C287.291168,119.148125 288.606354,118.988892 290.321442,118.795883 
z"/>
<path fill="#FF1D1D" opacity="1.000000" stroke="none" 
	d="
M335.735107,90.332336 
	C334.405212,89.769981 332.449463,88.892189 332.386932,87.895630 
	C332.265778,85.963936 333.209595,83.965446 333.712097,81.994637 
	C334.499817,82.530350 335.889801,82.993042 335.965210,83.615105 
	C336.218018,85.700478 336.001526,87.842743 335.735107,90.332336 
z"/>
<path fill="#DFA77D" opacity="1.000000" stroke="none" 
	d="
M305.996246,68.466660 
	C306.001129,68.771042 305.926880,69.119461 305.905975,69.295761 
	C304.098114,70.169113 302.311157,70.866173 300.158051,71.596863 
	C300.571106,69.263725 301.350311,66.896950 302.309570,64.180397 
	C303.656860,65.274498 304.824127,66.718384 305.996246,68.466660 
z"/>
<path fill="#F9F9F9" opacity="1.000000" stroke="none" 
	d="
M410.393311,97.625435 
	C408.995667,101.593765 407.634521,105.119797 406.219025,108.623894 
	C404.282776,113.417061 400.379578,113.082321 396.641815,111.771568 
	C391.337616,109.911499 386.655731,103.185318 387.788422,97.690178 
	C389.099945,91.327415 391.790802,85.241058 393.989838,79.072861 
	C394.927887,76.441689 396.689514,76.522102 399.146393,77.401886 
	C409.972839,81.278725 410.436310,81.946281 410.393311,97.625435 
z"/>
<path fill="#F7F5F4" opacity="1.000000" stroke="none" 
	d="
M292.077026,104.481499 
	C289.425201,106.214378 286.773346,107.947243 284.121490,109.680115 
	C283.437988,106.842377 282.623444,104.028648 282.098389,101.161903 
	C281.030701,95.332504 283.371887,90.149323 286.665192,85.863121 
	C288.507782,83.465012 292.392609,82.636063 295.744690,81.591309 
	C295.569000,85.255173 295.015381,88.429520 294.440308,91.599968 
	C293.661133,95.895370 292.865570,100.187790 292.077026,104.481499 
z"/>
<path fill="#EBA672" opacity="1.000000" stroke="none" 
	d="
M292.409180,104.323471 
	C292.865570,100.187790 293.661133,95.895370 294.440308,91.599968 
	C295.015381,88.429520 295.569000,85.255173 296.138641,81.658096 
	C297.342560,82.024261 299.615265,82.880470 299.571686,83.595406 
	C299.119263,91.013062 297.957520,98.293549 292.409180,104.323471 
z"/>
</svg>