<svg version="1.1" id="Layer_1" xmlns="http://www.w3.org/2000/svg" xmlns:xlink="http://www.w3.org/1999/xlink" x="0px" y="0px"
	 width="100%" viewBox="0 0 475 140" enable-background="new 0 0 475 140" xml:space="preserve">
<path fill="#FDFDFD" opacity="1.000000" stroke="none" 
	d="
M308.000000,141.000000 
	C205.333359,141.000000 103.166725,141.000000 1.000069,141.000000 
	C1.000046,94.333374 1.000046,47.666756 1.000023,1.000100 
	C159.333237,1.000067 317.666473,1.000067 475.999817,1.000033 
	C475.999878,47.666561 475.999878,94.333122 475.999939,140.999847 
	C420.166656,141.000000 364.333344,141.000000 308.000000,141.000000 
M291.838959,130.959793 
	C298.343903,131.727753 299.991089,126.695564 301.639099,122.255722 
	C303.764282,116.530342 305.273682,110.576401 307.651611,105.102867 
	C308.525116,106.678398 309.378204,108.265671 310.276489,109.826935 
	C311.993103,112.810493 314.281128,115.033714 317.876190,113.112740 
	C321.152954,111.361824 320.296509,108.571205 318.953613,105.821213 
	C315.932098,99.633736 313.005249,93.400032 310.481018,86.600151 
	C312.726898,79.954117 314.972778,73.308090 317.740845,66.329124 
	C319.381317,63.512466 321.021820,60.695812 322.923920,57.145935 
	C323.262299,55.062023 323.600677,52.978111 324.184570,50.247227 
	C327.000702,45.684517 327.782745,39.293762 334.821198,38.853321 
	C333.651611,31.038548 328.808105,26.755594 323.483643,28.883068 
	C315.818756,31.945713 310.361816,37.551449 306.138184,45.319866 
	C305.418945,47.124283 304.699707,48.928699 303.452667,51.250103 
	C300.558167,55.246616 301.421661,59.530605 302.130310,64.530022 
	C301.350952,66.896935 300.571625,69.263855 298.925995,71.857826 
	C287.272552,70.653648 280.128510,75.951942 275.215363,86.460884 
	C272.294037,92.709457 273.557526,98.775772 272.883728,104.922020 
	C271.779999,114.989769 276.194824,118.602005 285.873199,120.163284 
	C285.869965,122.117470 285.787476,124.075470 285.881378,126.024979 
	C286.037048,129.256409 287.355225,131.348755 291.838959,130.959793 
M74.811897,52.664860 
	C73.152489,57.508591 75.927277,61.117229 78.087067,65.808235 
	C78.397377,72.088966 78.397484,78.404152 79.090256,84.642410 
	C80.145142,94.141266 81.501884,103.617737 83.136810,113.033142 
	C83.540817,115.359810 85.039062,118.321236 86.915115,119.296494 
	C88.318535,120.026047 91.136841,118.033836 94.014786,117.023170 
	C94.987312,114.903343 96.838829,112.751907 96.763947,110.669739 
	C96.557449,104.927063 95.251831,99.230560 94.914795,93.484482 
	C94.284203,82.733803 94.030418,71.961021 93.897583,60.459824 
	C94.239647,57.632816 94.581703,54.805813 94.972115,51.134518 
	C94.174599,48.535904 93.377075,45.937290 92.640671,42.530003 
	C93.990929,35.780315 87.646515,20.561932 81.744095,17.317770 
	C79.773979,16.234928 76.813011,15.434030 74.964264,16.167034 
	C73.655243,16.686047 72.746712,20.048014 72.882393,22.058374 
	C73.447914,30.437412 74.476463,38.785198 75.164673,48.107700 
	C75.114799,49.386688 75.064926,50.665672 74.811897,52.664860 
M61.972107,52.134502 
	C61.174591,49.535892 60.377075,46.937283 59.640675,43.529995 
	C60.990917,36.780312 54.646500,21.561911 48.744095,18.317766 
	C46.773972,17.234926 43.813000,16.434023 41.964268,17.167036 
	C40.655231,17.686062 39.746708,21.048016 39.882389,23.058376 
	C40.447910,31.437414 41.476460,39.785202 42.164677,49.107700 
	C42.114799,50.386688 42.064919,51.665680 41.811886,53.664864 
	C40.152512,58.508591 42.927284,62.117233 45.087063,66.808243 
	C45.397373,73.088974 45.397488,79.404152 46.090267,85.642410 
	C47.145149,95.141273 48.501900,104.617737 50.136814,114.033157 
	C50.540825,116.359818 52.039078,119.321236 53.915127,120.296501 
	C55.318527,121.026070 58.136852,119.033844 61.014786,118.023163 
	C61.987316,115.903336 63.838821,113.751907 63.763950,111.669746 
	C63.557449,105.927063 62.251839,100.230568 61.914795,94.484482 
	C61.284199,83.733803 61.030418,72.961021 60.897575,61.459820 
	C61.239632,58.632809 61.581688,55.805801 61.972107,52.134502 
M153.148575,107.113205 
	C152.303513,103.260612 150.886566,99.431290 150.728622,95.550728 
	C150.363480,86.579224 150.665192,77.582314 150.575897,68.596909 
	C150.543167,65.304565 149.207062,62.540474 145.564117,62.213768 
	C141.910034,61.886066 140.097076,64.304527 139.630844,67.630539 
	C139.079010,71.567108 138.997787,75.574890 138.348038,79.491325 
	C137.240463,86.167229 136.102524,92.859901 134.452576,99.413414 
	C133.779724,102.085899 131.737381,104.413582 130.318100,106.898132 
	C129.626907,106.887291 128.935715,106.876450 128.244522,106.865608 
	C126.033699,98.813416 123.152832,90.871239 121.807266,82.676964 
	C120.551819,75.031395 120.948296,67.116959 120.575928,59.322857 
	C120.422035,56.101646 119.552917,53.111950 115.697754,52.961716 
	C111.833939,52.811146 110.656799,55.632797 110.458908,58.924034 
	C109.427628,76.075981 111.459068,92.787323 118.001595,108.782005 
	C120.875763,115.808594 127.684326,119.593239 133.972122,116.940384 
	C137.173035,115.589905 139.531052,112.241524 142.482895,109.606277 
	C143.130722,110.752106 143.959488,112.139801 144.713425,113.567024 
	C146.515945,116.979271 148.772675,120.431076 153.121704,118.465729 
	C157.839966,116.333527 156.058548,112.534454 154.205231,109.144958 
	C153.966049,108.707520 153.750763,108.257011 153.148575,107.113205 
M208.368088,106.507980 
	C208.375992,109.006035 208.306900,111.507294 208.411041,114.001335 
	C208.545425,117.219360 209.402008,120.249893 213.262573,120.385818 
	C217.439728,120.532875 218.400787,117.424698 218.600250,113.983429 
	C218.677231,112.655228 218.653778,111.318832 218.625519,109.987251 
	C218.297455,94.524689 217.951111,79.062508 217.640640,63.599602 
	C217.615494,62.347389 217.818558,61.090595 217.928787,59.665329 
	C221.810547,59.982738 225.374405,60.881790 228.692139,60.322010 
	C230.746674,59.975368 232.427231,57.412231 234.275650,55.844059 
	C232.651917,54.081841 231.324860,51.386539 229.341354,50.755867 
	C225.472473,49.525726 221.236267,49.450821 216.630219,48.826824 
	C216.630219,46.445435 216.646011,43.995094 216.626862,41.545029 
	C216.589157,36.717426 217.003448,31.815315 216.256332,27.098370 
	C215.947556,25.148859 213.131104,23.596540 211.455154,21.863581 
	C209.803375,23.625673 207.740250,25.167809 206.640213,27.224943 
	C205.869598,28.666052 206.382767,30.810123 206.376663,32.640430 
	C206.359665,37.753826 206.370758,42.867317 206.370758,48.138798 
	C201.826248,47.877140 197.878296,47.465160 193.931931,47.479801 
	C190.648834,47.491982 187.848892,48.803413 187.929916,52.667881 
	C188.004684,56.234196 190.682846,57.265526 193.756210,57.581078 
	C196.730438,57.886448 199.715485,58.563480 202.671707,58.449963 
	C206.654846,58.297016 207.321640,60.420376 207.385345,63.655891 
	C207.660324,77.620720 208.031403,91.583656 208.368088,106.507980 
M385.295105,116.202820 
	C386.261505,117.120003 387.199524,118.069427 388.198853,118.949226 
	C395.725586,125.575829 409.165100,123.449944 414.574829,115.120247 
	C420.124451,106.575150 421.142822,97.262009 420.658020,87.425568 
	C420.239502,78.934372 414.705902,71.273605 406.515594,69.060493 
	C403.344086,68.203522 399.906494,68.249702 396.807251,67.226662 
	C392.373566,65.763138 389.623901,67.418114 386.914581,70.742920 
	C381.328827,77.597656 379.018707,85.795326 377.636993,94.128876 
	C376.288910,102.259674 377.465118,110.156906 385.295105,116.202820 
M366.618103,82.530243 
	C366.618103,79.714867 366.618103,76.899490 366.618103,74.084122 
	C366.953644,74.356911 367.289215,74.629707 367.624756,74.902504 
	C369.584320,72.244125 372.628174,69.748482 373.061554,66.861038 
	C373.289886,65.339920 368.959808,63.134647 366.109070,60.755047 
	C365.316223,55.660458 364.649719,49.194839 363.111115,42.943867 
	C362.698975,41.269402 359.410858,38.999321 357.833984,39.271088 
	C356.160431,39.559517 354.470978,42.365082 353.700195,44.414337 
	C353.135468,45.915768 354.088745,47.966179 354.285858,49.780556 
	C354.761200,54.156544 355.189911,58.537601 355.656738,63.105797 
	C351.317749,63.353737 347.816589,63.278000 344.416687,63.828209 
	C341.227203,64.344368 339.443420,66.638916 339.879944,69.950119 
	C340.344910,73.477287 342.822113,74.476097 346.087189,74.074272 
	C347.571381,73.891602 349.075653,73.848061 350.549469,73.609459 
	C354.565857,72.959229 356.217804,74.630226 356.399353,78.682198 
	C356.934814,90.633064 357.732758,102.571960 358.375519,114.518364 
	C358.564117,118.023933 358.926971,121.736992 363.339905,121.820496 
	C368.107788,121.910721 368.530212,118.037552 368.610992,114.347397 
	C368.636536,113.182220 368.689453,112.010948 368.607208,110.851158 
	C367.960938,101.737221 367.284882,92.625389 366.618103,82.530243 
M177.380142,98.139435 
	C178.193512,98.715797 179.336929,99.117386 179.753403,99.903900 
	C180.699814,101.691261 181.790298,103.672417 181.772934,105.565170 
	C181.766129,106.307220 179.005371,107.191605 177.401230,107.707840 
	C175.509521,108.316605 173.223328,108.144318 171.645020,109.151726 
	C170.190384,110.080193 168.721436,112.074722 168.614624,113.689362 
	C168.525665,115.033669 170.089890,117.147804 171.461670,117.821007 
	C180.293945,122.155373 191.825897,115.149353 192.626831,105.433426 
	C193.414825,95.874443 186.900848,91.325935 180.232727,87.195663 
	C176.541901,84.909546 174.562317,82.454025 175.988846,78.357231 
	C177.336121,74.488083 177.965363,69.579941 184.525055,71.198593 
	C185.958420,71.552292 189.378876,69.238075 189.591309,67.811188 
	C189.865555,65.969070 188.194855,62.406673 186.724014,62.021744 
	C183.245041,61.111271 179.209747,60.903736 175.725769,61.752197 
	C169.766403,63.203491 167.977798,68.818428 166.562836,73.915604 
	C163.758881,84.016380 164.767868,90.504097 173.910187,95.727104 
	C174.915451,96.301407 175.816620,97.057899 177.380142,98.139435 
M233.716568,91.989357 
	C233.842834,99.281860 233.933853,106.575211 234.110229,113.866501 
	C234.198532,117.516441 235.365417,120.788452 239.621536,120.741112 
	C243.567871,120.697227 244.500275,117.551239 244.941132,114.125771 
	C245.743973,107.887459 246.032349,101.434395 247.946381,95.528183 
	C249.979858,89.253372 251.242386,81.575058 260.452667,80.803520 
	C263.876678,80.516701 267.339355,78.909904 266.272552,74.440956 
	C265.270996,70.245316 261.547943,69.815262 258.225098,70.779808 
	C253.155350,72.251457 248.286499,74.415146 243.110016,76.368927 
	C243.032303,75.862236 242.704300,74.462280 242.623016,73.048149 
	C242.420166,69.518150 241.889084,65.886078 237.432678,65.997597 
	C232.652023,66.117249 232.308228,70.081215 232.446381,73.689011 
	C232.668396,79.486359 233.175217,85.272812 233.716568,91.989357 
M443.156586,122.029373 
	C446.912506,120.862648 447.674042,118.107895 447.289673,114.576851 
	C446.159393,104.194702 446.622375,94.158005 451.858551,84.600563 
	C455.263000,78.386528 455.245239,78.091103 462.514130,79.601738 
	C464.252502,79.963013 467.129211,79.189499 468.057129,77.906830 
	C469.016632,76.580482 469.017212,73.415741 468.034943,72.110542 
	C466.719116,70.362061 464.147064,68.870010 461.952148,68.603317 
	C455.761047,67.851067 449.687744,68.462975 446.107300,72.598282 
	C443.066528,71.233246 440.268707,68.865585 438.351349,69.439491 
	C436.552368,69.977989 434.555023,73.645866 434.592682,75.904213 
	C434.814148,89.177025 435.525330,102.444778 436.258087,115.703918 
	C436.457581,119.313545 438.058289,122.160202 443.156586,122.029373 
M17.452740,81.014603 
	C18.425283,90.582916 19.644806,100.134697 20.286907,109.725128 
	C20.744514,116.559952 22.021805,119.646080 25.738741,119.113396 
	C31.444681,118.295685 30.766428,113.583405 30.570972,109.727509 
	C29.714270,92.826721 28.623537,75.937874 27.641016,59.043335 
	C27.436033,55.518665 26.934362,51.913170 22.466246,51.942844 
	C18.002110,51.972496 17.418571,55.596451 17.388786,59.113800 
	C17.329563,66.107468 17.380651,73.102074 17.452740,81.014603 
M27.963318,29.642097 
	C26.922218,28.840069 25.863873,27.342533 24.843288,27.367840 
	C21.909143,27.440601 17.036640,27.320993 16.451677,28.735298 
	C15.011120,32.218235 14.787199,36.694305 15.655328,40.400665 
	C16.001770,41.879761 20.591944,43.346310 23.108990,43.135052 
	C28.668571,42.668430 30.743479,36.989101 27.963318,29.642097 
M332.022064,100.206802 
	C330.875275,105.556335 329.774841,110.901115 333.558472,115.785812 
	C338.002716,112.145775 338.277435,86.380287 332.784149,79.920883 
	C332.542542,86.367172 332.300934,92.813454 332.022064,100.206802 
M335.958099,63.149643 
	C335.352966,59.532753 334.747833,55.915859 334.142700,52.298969 
	C332.286713,56.001324 331.489441,59.649406 331.065369,63.340366 
	C330.973633,64.138840 332.300110,65.861000 332.839722,65.807602 
	C333.857819,65.706848 334.778778,64.624832 335.958099,63.149643 
z"/>
<path fill="#0D0D0D" opacity="1.000000" stroke="none" 
	d="
M153.336487,107.462883 
	C153.750763,108.257011 153.966049,108.707520 154.205231,109.144958 
	C156.058548,112.534454 157.839966,116.333527 153.121704,118.465729 
	C148.772675,120.431076 146.515945,116.979271 144.713425,113.567024 
	C143.959488,112.139801 143.130722,110.752106 142.482895,109.606277 
	C139.531052,112.241524 137.173035,115.589905 133.972122,116.940384 
	C127.684326,119.593239 120.875763,115.808594 118.001595,108.782005 
	C111.459068,92.787323 109.427628,76.075981 110.458908,58.924034 
	C110.656799,55.632797 111.833939,52.811146 115.697754,52.961716 
	C119.552917,53.111950 120.422035,56.101646 120.575928,59.322857 
	C120.948296,67.116959 120.551819,75.031395 121.807266,82.676964 
	C123.152832,90.871239 126.033699,98.813416 128.244522,106.865608 
	C128.935715,106.876450 129.626907,106.887291 130.318100,106.898132 
	C131.737381,104.413582 133.779724,102.085899 134.452576,99.413414 
	C136.102524,92.859901 137.240463,86.167229 138.348038,79.491325 
	C138.997787,75.574890 139.079010,71.567108 139.630844,67.630539 
	C140.097076,64.304527 141.910034,61.886066 145.564117,62.213768 
	C149.207062,62.540474 150.543167,65.304565 150.575897,68.596909 
	C150.665192,77.582314 150.363480,86.579224 150.728622,95.550728 
	C150.886566,99.431290 152.303513,103.260612 153.336487,107.462883 
z"/>
<path fill="#121212" opacity="1.000000" stroke="none" 
	d="
M208.367798,106.027634 
	C208.031403,91.583656 207.660324,77.620720 207.385345,63.655891 
	C207.321640,60.420376 206.654846,58.297016 202.671707,58.449963 
	C199.715485,58.563480 196.730438,57.886448 193.756210,57.581078 
	C190.682846,57.265526 188.004684,56.234196 187.929916,52.667881 
	C187.848892,48.803413 190.648834,47.491982 193.931931,47.479801 
	C197.878296,47.465160 201.826248,47.877140 206.370758,48.138798 
	C206.370758,42.867317 206.359665,37.753826 206.376663,32.640430 
	C206.382767,30.810123 205.869598,28.666052 206.640213,27.224943 
	C207.740250,25.167809 209.803375,23.625673 211.455154,21.863579 
	C213.131104,23.596540 215.947556,25.148859 216.256332,27.098370 
	C217.003448,31.815315 216.589157,36.717426 216.626862,41.545029 
	C216.646011,43.995094 216.630219,46.445435 216.630219,48.826824 
	C221.236267,49.450821 225.472473,49.525726 229.341354,50.755867 
	C231.324860,51.386539 232.651917,54.081841 234.275650,55.844063 
	C232.427231,57.412231 230.746674,59.975368 228.692139,60.322010 
	C225.374405,60.881790 221.810547,59.982738 217.928787,59.665329 
	C217.818558,61.090595 217.615494,62.347389 217.640640,63.599602 
	C217.951111,79.062508 218.297455,94.524689 218.625519,109.987251 
	C218.653778,111.318832 218.677231,112.655228 218.600250,113.983429 
	C218.400787,117.424698 217.439728,120.532875 213.262573,120.385818 
	C209.402008,120.249893 208.545425,117.219360 208.411041,114.001335 
	C208.306900,111.507294 208.375992,109.006035 208.367798,106.027634 
z"/>
<path fill="#0C0C0C" opacity="1.000000" stroke="none" 
	d="
M385.026550,115.965118 
	C377.465118,110.156906 376.288910,102.259674 377.636993,94.128876 
	C379.018707,85.795326 381.328827,77.597656 386.914581,70.742920 
	C389.623901,67.418114 392.373566,65.763138 396.807251,67.226662 
	C399.906494,68.249702 403.344086,68.203522 406.515594,69.060493 
	C414.705902,71.273605 420.239502,78.934372 420.658020,87.425568 
	C421.142822,97.262009 420.124451,106.575150 414.574829,115.120247 
	C409.165100,123.449944 395.725586,125.575829 388.198853,118.949226 
	C387.199524,118.069427 386.261505,117.120003 385.026550,115.965118 
M404.874115,110.781464 
	C406.294312,107.804726 407.714478,104.827972 409.134735,101.851257 
	C414.391541,90.833603 410.141846,80.793526 398.557922,77.376877 
	C397.329712,77.014618 394.632690,77.864998 394.323853,78.749039 
	C391.849884,85.830879 388.743439,92.934563 387.887756,100.271469 
	C387.010834,107.790810 397.081360,113.948952 404.874115,110.781464 
z"/>
<path fill="#080706" opacity="1.000000" stroke="none" 
	d="
M285.976257,119.307037 
	C276.194824,118.602005 271.779999,114.989769 272.883728,104.922020 
	C273.557526,98.775772 272.294037,92.709457 275.215363,86.460884 
	C280.128510,75.951942 287.272552,70.653648 299.725281,71.710434 
	C302.311340,70.866028 304.098175,70.169014 306.202423,69.728088 
	C307.426086,72.150085 308.741486,74.243004 309.143890,76.498787 
	C309.769012,80.002670 309.772736,83.617401 310.039856,87.185135 
	C313.005249,93.400032 315.932098,99.633736 318.953613,105.821213 
	C320.296509,108.571205 321.152954,111.361824 317.876190,113.112740 
	C314.281128,115.033714 311.993103,112.810493 310.276489,109.826935 
	C309.378204,108.265671 308.525116,106.678398 307.347046,104.598686 
	C306.590485,103.253639 306.138489,102.412766 305.384949,101.010971 
	C302.789368,109.346008 296.997833,114.263206 290.321594,118.795830 
	C288.606567,118.988754 287.291412,119.147896 285.976257,119.307037 
M292.741241,104.165604 
	C297.957397,98.293747 299.119232,91.013329 299.571686,83.595695 
	C299.615295,82.880676 297.342743,82.024376 295.357452,81.100060 
	C292.392822,82.636002 288.507965,83.464882 286.665344,85.862946 
	C283.371948,90.149109 281.030975,95.332314 282.098419,101.161667 
	C282.623352,104.028465 283.437805,106.842247 284.121277,109.680023 
	C286.773163,107.947250 289.425079,106.214485 292.741241,104.165604 
z"/>
<path fill="#0F0F0F" opacity="1.000000" stroke="none" 
	d="
M366.618042,83.021576 
	C367.284882,92.625389 367.960938,101.737221 368.607208,110.851158 
	C368.689453,112.010948 368.636536,113.182220 368.610992,114.347397 
	C368.530212,118.037552 368.107788,121.910721 363.339905,121.820496 
	C358.926971,121.736992 358.564117,118.023933 358.375519,114.518364 
	C357.732758,102.571960 356.934814,90.633064 356.399353,78.682198 
	C356.217804,74.630226 354.565857,72.959229 350.549469,73.609459 
	C349.075653,73.848061 347.571381,73.891602 346.087189,74.074272 
	C342.822113,74.476097 340.344910,73.477287 339.879944,69.950119 
	C339.443420,66.638916 341.227203,64.344368 344.416687,63.828209 
	C347.816589,63.278000 351.317749,63.353737 355.656738,63.105797 
	C355.189911,58.537601 354.761200,54.156544 354.285858,49.780556 
	C354.088745,47.966179 353.135468,45.915768 353.700195,44.414337 
	C354.470978,42.365082 356.160431,39.559517 357.833984,39.271088 
	C359.410858,38.999321 362.698975,41.269402 363.111115,42.943867 
	C364.649719,49.194839 365.316223,55.660458 366.109070,60.755047 
	C368.959808,63.134647 373.289886,65.339920 373.061554,66.861038 
	C372.628174,69.748482 369.584320,72.244125 367.624756,74.902504 
	C367.289215,74.629707 366.953644,74.356911 366.618103,74.084122 
	C366.618103,76.899490 366.618103,79.714867 366.618042,83.021576 
z"/>
<path fill="#0A0A0A" opacity="1.000000" stroke="none" 
	d="
M177.073105,97.934662 
	C175.816620,97.057899 174.915451,96.301407 173.910187,95.727104 
	C164.767868,90.504097 163.758881,84.016380 166.562836,73.915604 
	C167.977798,68.818428 169.766403,63.203491 175.725769,61.752197 
	C179.209747,60.903736 183.245041,61.111271 186.724014,62.021744 
	C188.194855,62.406673 189.865555,65.969070 189.591309,67.811188 
	C189.378876,69.238075 185.958420,71.552292 184.525055,71.198593 
	C177.965363,69.579941 177.336121,74.488083 175.988846,78.357231 
	C174.562317,82.454025 176.541901,84.909546 180.232727,87.195663 
	C186.900848,91.325935 193.414825,95.874443 192.626831,105.433426 
	C191.825897,115.149353 180.293945,122.155373 171.461670,117.821007 
	C170.089890,117.147804 168.525665,115.033669 168.614624,113.689362 
	C168.721436,112.074722 170.190384,110.080193 171.645020,109.151726 
	C173.223328,108.144318 175.509521,108.316605 177.401230,107.707840 
	C179.005371,107.191605 181.766129,106.307220 181.772934,105.565170 
	C181.790298,103.672417 180.699814,101.691261 179.753403,99.903900 
	C179.336929,99.117386 178.193512,98.715797 177.073105,97.934662 
z"/>
<path fill="#0C0C0C" opacity="1.000000" stroke="none" 
	d="
M233.639114,91.526611 
	C233.175217,85.272812 232.668396,79.486359 232.446381,73.689011 
	C232.308228,70.081215 232.652023,66.117249 237.432678,65.997597 
	C241.889084,65.886078 242.420166,69.518150 242.623016,73.048149 
	C242.704300,74.462280 243.032303,75.862236 243.110016,76.368927 
	C248.286499,74.415146 253.155350,72.251457 258.225098,70.779808 
	C261.547943,69.815262 265.270996,70.245316 266.272552,74.440956 
	C267.339355,78.909904 263.876678,80.516701 260.452667,80.803520 
	C251.242386,81.575058 249.979858,89.253372 247.946381,95.528183 
	C246.032349,101.434395 245.743973,107.887459 244.941132,114.125771 
	C244.500275,117.551239 243.567871,120.697227 239.621536,120.741112 
	C235.365417,120.788452 234.198532,117.516441 234.110229,113.866501 
	C233.933853,106.575211 233.842834,99.281860 233.639114,91.526611 
z"/>
<path fill="#0C0C0C" opacity="1.000000" stroke="none" 
	d="
M442.765808,122.080070 
	C438.058289,122.160202 436.457581,119.313545 436.258087,115.703918 
	C435.525330,102.444778 434.814148,89.177025 434.592682,75.904213 
	C434.555023,73.645866 436.552368,69.977989 438.351349,69.439491 
	C440.268707,68.865585 443.066528,71.233246 446.107300,72.598282 
	C449.687744,68.462975 455.761047,67.851067 461.952148,68.603317 
	C464.147064,68.870010 466.719116,70.362061 468.034943,72.110542 
	C469.017212,73.415741 469.016632,76.580482 468.057129,77.906830 
	C467.129211,79.189499 464.252502,79.963013 462.514130,79.601738 
	C455.245239,78.091103 455.263000,78.386528 451.858551,84.600563 
	C446.622375,94.158005 446.159393,104.194702 447.289673,114.576851 
	C447.674042,118.107895 446.912506,120.862648 442.765808,122.080070 
z"/>
<path fill="#131313" opacity="1.000000" stroke="none" 
	d="
M17.419451,80.555450 
	C17.380651,73.102074 17.329563,66.107468 17.388786,59.113800 
	C17.418571,55.596451 18.002110,51.972496 22.466246,51.942844 
	C26.934362,51.913170 27.436033,55.518665 27.641016,59.043335 
	C28.623537,75.937874 29.714270,92.826721 30.570972,109.727509 
	C30.766428,113.583405 31.444681,118.295685 25.738741,119.113396 
	C22.021805,119.646080 20.744514,116.559952 20.286907,109.725128 
	C19.644806,100.134697 18.425283,90.582916 17.419451,80.555450 
z"/>
<path fill="#FF9A51" opacity="1.000000" stroke="none" 
	d="
M60.619877,62.197437 
	C61.030418,72.961021 61.284199,83.733803 61.914795,94.484482 
	C62.251839,100.230568 63.557449,105.927063 63.763950,111.669746 
	C63.838821,113.751907 61.987316,115.903336 60.254459,118.066483 
	C55.557007,118.302025 53.696968,115.869217 53.138634,112.497696 
	C52.233070,107.029404 51.413036,101.517647 51.068764,95.992340 
	C50.505558,86.953247 50.353443,77.888550 50.418606,68.835663 
	C55.746487,69.086868 58.724884,66.442604 60.619877,62.197437 
z"/>
<path fill="#FF9A51" opacity="1.000000" stroke="none" 
	d="
M93.619873,61.197433 
	C94.030418,71.961021 94.284203,82.733803 94.914795,93.484482 
	C95.251831,99.230560 96.557449,104.927063 96.763947,110.669739 
	C96.838829,112.751907 94.987312,114.903343 93.254456,117.066483 
	C88.557022,117.302010 86.696968,114.869209 86.138634,111.497696 
	C85.233063,106.029404 84.413040,100.517647 84.068771,94.992340 
	C83.505577,85.953247 83.353455,76.888550 83.418625,67.835663 
	C88.746513,68.086876 91.724861,65.442551 93.619873,61.197433 
z"/>
<path fill="#111AFC" opacity="1.000000" stroke="none" 
	d="
M75.335197,47.144447 
	C74.476463,38.785198 73.447914,30.437412 72.882393,22.058374 
	C72.746712,20.048014 73.655243,16.686047 74.964264,16.167034 
	C76.813011,15.434030 79.773979,16.234928 81.744095,17.317770 
	C87.646515,20.561932 93.990929,35.780315 92.197830,43.029518 
	C89.029564,44.465168 85.586800,42.168617 83.373947,45.777206 
	C81.392860,49.007858 78.425880,49.081192 75.335197,47.144447 
z"/>
<path fill="#111AFC" opacity="1.000000" stroke="none" 
	d="
M42.335197,48.144447 
	C41.476460,39.785202 40.447910,31.437414 39.882389,23.058376 
	C39.746708,21.048016 40.655231,17.686062 41.964268,17.167036 
	C43.813000,16.434023 46.773972,17.234926 48.744095,18.317766 
	C54.646500,21.561911 60.990917,36.780312 59.197838,44.029510 
	C56.029568,45.465168 52.586807,43.168625 50.373959,46.777214 
	C48.392864,50.007858 45.425880,50.081192 42.335197,48.144447 
z"/>
<path fill="#FF0908" opacity="1.000000" stroke="none" 
	d="
M306.577972,44.831352 
	C310.361816,37.551449 315.818756,31.945713 323.483643,28.883068 
	C328.808105,26.755594 333.651611,31.038548 334.821198,38.853321 
	C327.782745,39.293762 327.000702,45.684517 323.722046,50.682800 
	C317.573669,50.168377 312.483490,47.441750 307.075439,45.662354 
	C306.843597,45.586067 306.740845,45.117294 306.577972,44.831352 
z"/>
<path fill="#FEB47C" opacity="1.000000" stroke="none" 
	d="
M83.027939,67.834648 
	C83.353455,76.888550 83.505577,85.953247 84.068771,94.992340 
	C84.413040,100.517647 85.233063,106.029404 86.138634,111.497696 
	C86.696968,114.869209 88.557022,117.302010 92.909637,117.181671 
	C91.136841,118.033836 88.318535,120.026047 86.915115,119.296494 
	C85.039062,118.321236 83.540817,115.359810 83.136810,113.033142 
	C81.501884,103.617737 80.145142,94.141266 79.090256,84.642410 
	C78.397484,78.404152 78.397377,72.088966 78.419014,65.513382 
	C80.176620,66.090569 81.602280,66.962608 83.027939,67.834648 
z"/>
<path fill="#FEB47C" opacity="1.000000" stroke="none" 
	d="
M50.027920,68.834648 
	C50.353443,77.888550 50.505558,86.953247 51.068764,95.992340 
	C51.413036,101.517647 52.233070,107.029404 53.138634,112.497696 
	C53.696968,115.869217 55.557007,118.302025 59.909641,118.181671 
	C58.136852,119.033844 55.318527,121.026070 53.915127,120.296501 
	C52.039078,119.321236 50.540825,116.359818 50.136814,114.033157 
	C48.501900,104.617737 47.145149,95.141273 46.090267,85.642410 
	C45.397488,79.404152 45.397373,73.088974 45.419006,66.513390 
	C47.176609,67.090576 48.602264,67.962608 50.027920,68.834648 
z"/>
<path fill="#878481" opacity="1.000000" stroke="none" 
	d="
M50.418606,68.835663 
	C48.602264,67.962608 47.176609,67.090576 45.480263,66.040794 
	C42.927284,62.117233 40.152512,58.508591 42.178730,53.528214 
	C44.242340,54.022312 45.895557,54.957092 47.646740,55.207909 
	C49.904823,55.531326 52.388432,54.808620 54.509995,55.434479 
	C57.792286,56.402740 59.968758,55.351063 61.923740,52.978790 
	C61.581688,55.805801 61.239632,58.632809 60.758728,61.828629 
	C58.724884,66.442604 55.746487,69.086868 50.418606,68.835663 
z"/>
<path fill="#878481" opacity="1.000000" stroke="none" 
	d="
M83.418625,67.835663 
	C81.602280,66.962608 80.176620,66.090569 78.480263,65.040787 
	C75.927277,61.117229 73.152489,57.508591 75.178741,52.528210 
	C77.242348,53.022308 78.895561,53.957081 80.646744,54.207901 
	C82.904831,54.531322 85.388435,53.808620 87.509995,54.434475 
	C90.792297,55.402763 92.968742,54.350994 94.923759,51.978806 
	C94.581703,54.805813 94.239647,57.632816 93.758728,60.828629 
	C91.724861,65.442551 88.746513,68.086876 83.418625,67.835663 
z"/>
<path fill="#0C0C0C" opacity="1.000000" stroke="none" 
	d="
M28.176537,29.950382 
	C30.743479,36.989101 28.668571,42.668430 23.108990,43.135052 
	C20.591944,43.346310 16.001770,41.879761 15.655328,40.400665 
	C14.787199,36.694305 15.011120,32.218235 16.451677,28.735298 
	C17.036640,27.320993 21.909143,27.440601 24.843288,27.367840 
	C25.863873,27.342533 26.922218,28.840069 28.176537,29.950382 
z"/>
<path fill="#868482" opacity="1.000000" stroke="none" 
	d="
M322.662292,57.879158 
	C321.021820,60.695812 319.381317,63.512466 317.125122,66.713013 
	C313.006653,67.654816 309.503876,68.212730 305.996185,68.466316 
	C304.824280,66.718086 303.657288,65.274185 302.490326,63.830284 
	C301.421661,59.530605 300.558167,55.246616 303.838623,51.354988 
	C305.809052,52.618942 307.292633,53.966431 309.006500,54.883759 
	C310.701874,55.791214 312.583313,56.497513 314.466644,56.872375 
	C317.158661,57.408192 319.926727,57.562134 322.662292,57.879158 
z"/>
<path fill="#F8934B" opacity="1.000000" stroke="none" 
	d="
M290.721436,118.762054 
	C296.997833,114.263206 302.789368,109.346008 305.384949,101.010971 
	C306.138489,102.412766 306.590485,103.253639 307.045410,104.407700 
	C305.273682,110.576401 303.764282,116.530342 301.639099,122.255722 
	C299.991089,126.695564 298.343903,131.727753 291.377716,130.513840 
	C290.923187,127.417351 290.951447,124.766602 290.926453,122.116371 
	C290.915924,120.997719 290.793182,119.880127 290.721436,118.762054 
z"/>
<path fill="#FF1010" opacity="1.000000" stroke="none" 
	d="
M332.040710,99.733269 
	C332.300934,92.813454 332.542542,86.367172 332.784149,79.920883 
	C338.277435,86.380287 338.002716,112.145775 333.558472,115.785812 
	C329.774841,110.901115 330.875275,105.556335 332.040710,99.733269 
z"/>
<path fill="#F9B47A" opacity="1.000000" stroke="none" 
	d="
M61.947922,52.556648 
	C59.968758,55.351063 57.792286,56.402740 54.509995,55.434479 
	C52.388432,54.808620 49.904823,55.531326 47.646740,55.207909 
	C45.895557,54.957092 44.242340,54.022312 42.280308,53.168114 
	C42.064919,51.665680 42.114799,50.386688 42.249939,48.626076 
	C45.425880,50.081192 48.392864,50.007858 50.373959,46.777214 
	C52.586807,43.168625 56.029568,45.465168 59.167282,44.433853 
	C60.377075,46.937283 61.174591,49.535892 61.947922,52.556648 
z"/>
<path fill="#F9B47A" opacity="1.000000" stroke="none" 
	d="
M94.947937,51.556664 
	C92.968742,54.350994 90.792297,55.402763 87.509995,54.434475 
	C85.388435,53.808620 82.904831,54.531322 80.646744,54.207901 
	C78.895561,53.957081 77.242348,53.022308 75.280319,52.168110 
	C75.064926,50.665672 75.114799,49.386688 75.249939,47.626076 
	C78.425880,49.081192 81.392860,49.007858 83.373947,45.777206 
	C85.586800,42.168617 89.029564,44.465168 92.167282,43.433853 
	C93.377075,45.937290 94.174599,48.535904 94.947937,51.556664 
z"/>
<path fill="#FAB077" opacity="1.000000" stroke="none" 
	d="
M322.793091,57.512543 
	C319.926727,57.562134 317.158661,57.408192 314.466644,56.872375 
	C312.583313,56.497513 310.701874,55.791214 309.006500,54.883759 
	C307.292633,53.966431 305.809052,52.618942 304.102539,51.096497 
	C304.699707,48.928699 305.418945,47.124283 306.358093,45.075607 
	C306.740845,45.117294 306.843597,45.586067 307.075439,45.662354 
	C312.483490,47.441750 317.573669,50.168377 323.599304,51.006287 
	C323.600677,52.978111 323.262299,55.062023 322.793091,57.512543 
z"/>
<path fill="#E68F51" opacity="1.000000" stroke="none" 
	d="
M306.001129,68.770638 
	C309.503876,68.212730 313.006653,67.654816 316.864044,66.879486 
	C314.972778,73.308090 312.726898,79.954117 310.260437,86.892647 
	C309.772736,83.617401 309.769012,80.002670 309.143890,76.498787 
	C308.741486,74.243004 307.426086,72.150085 306.223358,69.551697 
	C305.926849,69.119225 306.001129,68.770638 306.001129,68.770638 
z"/>
<path fill="#FBAC72" opacity="1.000000" stroke="none" 
	d="
M290.321594,118.795830 
	C290.793182,119.880127 290.915924,120.997719 290.926453,122.116371 
	C290.951447,124.766602 290.923187,127.417351 290.982788,130.446198 
	C287.355225,131.348755 286.037048,129.256409 285.881378,126.024979 
	C285.787476,124.075470 285.869965,122.117470 285.924744,119.735161 
	C287.291412,119.147896 288.606567,118.988754 290.321594,118.795830 
z"/>
<path fill="#FF0E0E" opacity="1.000000" stroke="none" 
	d="
M335.849121,63.550159 
	C334.778778,64.624832 333.857819,65.706848 332.839722,65.807602 
	C332.300110,65.861000 330.973633,64.138840 331.065369,63.340366 
	C331.489441,59.649406 332.286713,56.001324 334.142700,52.298969 
	C334.747833,55.915859 335.352966,59.532753 335.849121,63.550159 
z"/>
<path fill="#DFA77D" opacity="1.000000" stroke="none" 
	d="
M305.996185,68.466316 
	C306.001129,68.770638 305.926849,69.119225 305.905914,69.295609 
	C304.098175,70.169014 302.311340,70.866028 300.158386,71.596901 
	C300.571625,69.263855 301.350952,66.896935 302.310303,64.180153 
	C303.657288,65.274185 304.824280,66.718086 305.996185,68.466316 
z"/>
<path fill="#F9F9F9" opacity="1.000000" stroke="none" 
	d="
M404.623413,111.105255 
	C397.081360,113.948952 387.010834,107.790810 387.887756,100.271469 
	C388.743439,92.934563 391.849884,85.830879 394.323853,78.749039 
	C394.632690,77.864998 397.329712,77.014618 398.557922,77.376877 
	C410.141846,80.793526 414.391541,90.833603 409.134735,101.851257 
	C407.714478,104.827972 406.294312,107.804726 404.623413,111.105255 
z"/>
<path fill="#F7F5F4" opacity="1.000000" stroke="none" 
	d="
M292.076965,104.481712 
	C289.425079,106.214485 286.773163,107.947250 284.121277,109.680023 
	C283.437805,106.842247 282.623352,104.028465 282.098419,101.161667 
	C281.030975,95.332314 283.371948,90.149109 286.665344,85.862946 
	C288.507965,83.464882 292.392822,82.636002 295.744934,81.591316 
	C295.569214,85.255234 295.015625,88.429634 294.440491,91.600121 
	C293.661285,95.895554 292.865570,100.187988 292.076965,104.481712 
z"/>
<path fill="#EBA672" opacity="1.000000" stroke="none" 
	d="
M292.409088,104.323654 
	C292.865570,100.187988 293.661285,95.895554 294.440491,91.600121 
	C295.015625,88.429634 295.569214,85.255234 296.138885,81.658112 
	C297.342743,82.024376 299.615295,82.880676 299.571686,83.595695 
	C299.119232,91.013329 297.957397,98.293747 292.409088,104.323654 
z"/>
</svg>