<svg width="21" height="21" xmlns="http://www.w3.org/2000/svg" version="1.1" enable-background="new 0 0 100 100" xml:space="preserve">
 <g>
  <title>Layer 1</title>
  <g stroke="null" id="svg_10">
   <path stroke="null" fill="#FE9947" d="m20.38846,20.36448c-1.07609,0.49724 -1.99687,-0.01011 -2.75566,-0.6233c-3.64508,-2.94564 -7.23933,-5.95419 -10.8497,-8.94274c-0.32489,-0.26894 -0.72207,-0.61198 -1.04949,-0.99705c0.5799,-0.54301 1.19843,-1.09363 1.82123,-1.45573c0.72817,0.78431 1.4211,1.74041 2.18707,2.36409c2.37393,1.93292 4.87003,3.7218 7.17353,5.73288c1.3046,1.13899 2.32475,2.60379 3.47302,3.92184z" id="svg_2"/>
   <path stroke="null" fill="#D17D3B" d="m20.32833,20.38446c-1.23164,-1.30934 -2.10828,-2.80284 -3.41288,-3.94183c-2.3035,-2.01108 -4.7996,-3.79996 -7.17353,-5.73288c-0.76597,-0.62368 -1.545,-1.52237 -2.26384,-2.3803c0.18142,-0.47856 0.50128,-0.80979 0.70634,-1.14101c3.65258,3.19004 7.33817,6.48998 10.98134,9.69073c0.49056,0.43098 0.98313,0.8922 1.34693,1.42646c0.42683,0.62682 0.66909,1.37635 -0.18436,2.07884l0,0z" id="svg_3"/>
   <path stroke="null" fill="#FFB367" d="m2.50137,8.04883c-1.64108,-2.06779 -2.44054,-4.45504 -2.50125,-7.07589c-0.00761,-0.32854 0.34222,-0.72279 0.62952,-0.96365c0.08004,-0.0671 0.62107,0.24258 0.79398,0.48921c0.75886,1.08244 1.66088,1.89756 3.01677,2.16453c0.63467,0.12497 1.30519,0.3307 1.8247,0.69303c0.40319,0.28121 0.56863,0.94827 0.7754,1.51054c-1.38184,3.44379 -1.62698,4.29198 -3.72573,3.63201l-0.81339,-0.44979l0,0z" id="svg_4"/>
   <path stroke="null" fill="#848281" d="m6.89026,4.96221c0.04245,-0.01282 0.0849,-0.02564 0.18726,-0.0674c0.429,0.72659 0.79809,1.48211 1.15139,2.32303c-0.22084,0.41662 -0.4259,0.74784 -0.64029,1.15269c-0.59916,0.50943 -1.18899,0.94525 -1.83067,1.44076c-0.83423,-0.34207 -1.61661,-0.74384 -2.43014,-1.22475c-0.00367,-0.1104 0.02381,-0.14166 0.14721,-0.25468c0.43201,-0.39417 0.7681,-0.70658 1.15444,-1.03998c0.11335,-0.06441 0.15269,-0.12361 0.23621,-0.23352c0.35369,-0.39159 0.63946,-0.74826 0.96983,-1.12878c0.09983,-0.06645 0.13824,-0.12092 0.22211,-0.2297c0.31909,-0.27418 0.57587,-0.50593 0.83265,-0.73768z" id="svg_5"/>
   <path stroke="null" fill="#FEC385" d="m5.81961,5.95936c-0.28578,0.35667 -0.54848,0.73641 -0.93387,1.05632c-0.9957,-1.19983 -2.92666,-3.54511 -3.02887,-3.74621c-0.10222,-0.2011 0.11842,1.38083 0.77555,2.31293c0.65712,0.9321 1.63535,2.01047 1.69839,1.96755c0.12608,-0.08584 -0.81695,0.72851 -0.73113,0.67578c0.08581,-0.05273 -1.39127,-1.60918 -1.69294,-2.20829c-0.30168,-0.59911 -0.83708,-2.12148 -0.90785,-2.56625c-0.19885,-0.68775 -0.05327,-1.2607 -0.25212,-1.94846c0.10993,-0.07013 0.21987,-0.14026 0.3298,-0.21039c1.0209,1.51247 2.59913,1.93478 4.18276,2.41258c0.58526,0.17658 1.66942,1.24246 1.61114,1.28794c-0.05829,0.04547 -0.44198,0.46183 -0.77751,0.65025c-0.82077,-0.67056 -1.58586,-1.35547 -2.32788,-1.98269c-0.09688,0.12438 -0.19375,0.24875 -0.29063,0.37313c0.38016,1.08496 1.46918,1.40212 2.34517,1.9258z" id="svg_6"/>
  </g>
 </g>

</svg>