<svg width="50" height="50" xmlns="http://www.w3.org/2000/svg" version="1.1" enable-background="new 0 0 100 100" xml:space="preserve">
 <g>
  <title>Layer 1</title>
  <g stroke="null" id="svg_10">
   <path stroke="null" fill="#FE9947" d="m48.43977,48.87025c-2.54343,1.18716 -4.71976,-0.02415 -6.51323,-1.48814c-8.61544,-7.03272 -17.11074,-14.21565 -25.64413,-21.35081c-0.76791,-0.64209 -1.70668,-1.4611 -2.48055,-2.38046c1.37065,-1.29643 2.83259,-2.61105 4.30463,-3.47556c1.7211,1.87255 3.35889,4.15524 5.16932,5.64427c5.61097,4.61485 11.5107,8.88582 16.95521,13.68727c3.08353,2.71933 5.49474,6.21655 8.20876,9.36341z" id="svg_2"/>
   <path stroke="null" fill="#D17D3B" d="m48.29764,48.91796c-2.91108,-3.12605 -4.98309,-6.69179 -8.06663,-9.41112c-5.44451,-4.80145 -11.34423,-9.07242 -16.95521,-13.68727c-1.81043,-1.48903 -3.65174,-3.63467 -5.35077,-5.68298c0.42879,-1.14257 1.18482,-1.93337 1.6695,-2.72417c8.63316,7.61622 17.34436,15.49484 25.95527,23.13665c1.15947,1.02897 2.3237,2.13012 3.18358,3.40567c1.00884,1.49652 1.58145,3.28604 -0.43574,4.96323l-0.00001,0z" id="svg_3"/>
   <path stroke="null" fill="#FFB367" d="m6.16219,19.46662c-3.87881,-4.93686 -5.76842,-10.63642 -5.9119,-16.8937c-0.01798,-0.78438 0.80887,-1.72566 1.48791,-2.30071c0.18918,-0.16021 1.46794,0.57915 1.87663,1.168c1.79362,2.58433 3.92563,4.53042 7.13038,5.16783c1.50008,0.29836 3.08491,0.78954 4.31282,1.65462c0.95298,0.6714 1.34399,2.264 1.83272,3.60641c-3.26608,8.22205 -3.84549,10.24711 -8.80606,8.67143l-1.9225,-1.07387l0.00001,0z" id="svg_4"/>
   <path stroke="null" fill="#848281" d="m16.53568,12.0973c0.10033,-0.03061 0.20066,-0.06121 0.4426,-0.16091c1.01398,1.73473 1.88635,3.53855 2.7214,5.54625c-0.52198,0.99468 -1.00665,1.78548 -1.51338,2.75204c-1.41616,1.21628 -2.81027,2.25678 -4.32692,3.43982c-1.97177,-0.8167 -3.821,-1.77593 -5.74382,-2.92409c-0.00867,-0.26358 0.05627,-0.33822 0.34794,-0.60806c1.02109,-0.94108 1.81546,-1.68695 2.72862,-2.48296c0.26791,-0.15379 0.36089,-0.29512 0.55829,-0.55752c0.83597,-0.93492 1.51143,-1.78646 2.29228,-2.69497c0.23597,-0.15865 0.32673,-0.2887 0.52497,-0.5484c0.75419,-0.65461 1.36111,-1.20791 1.96803,-1.76121z" id="svg_5"/>
   <path stroke="null" fill="#FEC385" d="m14.00512,14.47799c-0.67546,0.85154 -1.29637,1.75818 -2.20727,2.52198c-2.35342,-2.8646 -6.91739,-8.46396 -7.15899,-8.9441c-0.24159,-0.48014 0.2799,3.29674 1.83307,5.52213c1.55317,2.22538 3.86529,4.8 4.01429,4.69754c0.298,-0.20494 -1.93092,1.73931 -1.7281,1.61343c0.20282,-0.12589 -3.28837,-3.84192 -4.00141,-5.27229c-0.71305,-1.43038 -1.9785,-5.06504 -2.14578,-6.12693c-0.46999,-1.64202 -0.12591,-3.00993 -0.5959,-4.65195c0.25984,-0.16743 0.51968,-0.33486 0.77951,-0.5023c2.41298,3.61102 6.14326,4.6193 9.88629,5.76005c1.38332,0.42159 3.94582,2.96639 3.80805,3.07496c-0.13777,0.10857 -1.04466,1.10262 -1.83772,1.55246c-1.93996,-1.60095 -3.74831,-3.23618 -5.50212,-4.73368c-0.22897,0.29695 -0.45795,0.5939 -0.68692,0.89085c0.89855,2.59036 3.47253,3.34756 5.543,4.59786z" id="svg_6"/>
  </g>
 </g>

</svg>