<svg width="50" height="50" xmlns="http://www.w3.org/2000/svg" xml:space="preserve" enable-background="new 0 0 50 50" version="1.1">

 <g>
  <title>Layer 1</title>
  <g stroke="null" id="svg_9">
   <path stroke="null" id="svg_3" d="m0.03651,1.4448c-0.05856,-1.82871 0.55624,-1.37799 1.7622,-1.47801c1.20596,-0.10002 4.34015,-0.07339 6.52563,0.4365c2.18548,0.50989 9.98261,6.77876 13.57316,9.76561c3.41422,2.84017 6.70545,5.81137 10.26706,8.79532c0.21631,0.9367 0.21631,1.80304 0.21631,2.92928c-1.38572,1.68649 -2.62002,3.28637 -4.18991,4.50218c-2.91639,2.25864 -4.92777,1.85759 -7.49595,-0.86194c-1.87442,-1.98489 -3.88655,-3.87461 -5.99601,-5.63851c-4.4858,-3.75096 -9.11265,-7.35268 -13.58416,-11.11823c-0.73082,-0.61544 -1.01931,-1.86059 -1.08456,-2.9577c-0.06525,-1.09711 -0.04968,-1.77439 -0.04968,-2.90063m6.02047,6.5559c4.41198,3.70872 8.79255,7.45181 13.27561,11.08274c0.56204,0.45521 1.66494,0.31851 2.9606,0.40779c0.72203,-0.48523 1.44406,-0.97046 2.56448,-1.56621c1.85564,-1.00006 1.36631,-1.989 0.06478,-3.09665c-1.61189,-1.37178 -3.06327,-2.91649 -4.72117,-4.23341c-3.37477,-2.68068 -6.84155,-5.25868 -10.56178,-8.23454c-1.05672,-0.90702 -5.3497,-2.03239 -4.39945,-1.51971c0.95025,0.51269 0.47659,3.07608 -0.15735,3.28502c-0.63394,0.20894 -2.10961,0.90133 -2.5422,0.02659c-0.43259,-0.87474 -0.65887,1.02698 1.61405,2.83756c2.27293,1.81058 1.10651,0.41242 1.90243,1.01083m21.40395,10.91821c-1.50171,1.12825 -5.23089,3.39142 -4.83748,3.61219c0.39341,0.22078 2.75799,1.31073 3.25675,0.91322c1.42878,-1.13876 2.4837,-2.69329 3.68561,-4.08435c-0.57745,-0.23026 -1.1549,-0.46053 -2.10488,-0.44106z" fill="#12100E"/>
   <path stroke="null" id="svg_4" d="m9.81904,3.97929c3.42887,2.62032 6.95156,5.40888 10.32633,8.08956c1.65791,1.31692 3.10928,2.86163 4.72117,4.23341c1.30152,1.10765 1.86407,2.33782 -0.30327,3.22394c-5.0945,-4.54837 -10.06233,-9.01349 -14.84321,-13.65662c0.01564,-0.62886 0.08526,-1.47013 0.09898,-1.8903z" fill="#F5BD34"/>
   <path stroke="null" id="svg_5" d="m9.75676,5.83326c0.24722,-0.24735 14.92401,13.61073 14.75374,13.71375c-0.17027,0.10302 -1.91723,1.24304 -2.37365,1.49473c-0.45642,0.25169 -10.14679,-8.58145 -14.91456,-12.80966c0.94188,-0.9047 2.28725,-2.15146 2.53447,-2.39881z" fill="#FED527"/>
   <path stroke="null" id="svg_6" d="m7.22512,8.19639c4.87676,4.05334 10.15416,8.55847 15.05609,12.83503c-0.82712,0.08566 -2.44249,-0.01888 -3.00453,-0.47409c-4.48306,-3.63093 -15.4912,-11.99968 -14.40919,-11.67295c1.08201,0.32673 1.99837,-0.56349 2.35763,-0.68798z" fill="#F3B937"/>
   <path stroke="null" id="svg_7" d="m7.2782,8.23207c-0.46825,0.29936 -0.8275,0.42385 -1.29539,0.70419c-0.72174,-0.06009 -0.8819,0.5197 -2.55309,-0.8228c-0.4178,-0.33562 -2.095,-3.04149 -0.90458,-2.6274c1.19043,0.41409 2.28352,-0.73873 2.53792,-1.03541c0.2544,-0.29668 0.60676,-1.00193 0.06307,-1.93172c-0.54368,-0.92979 2.67947,-0.07756 3.98812,0.91411c1.30865,0.99167 0.78918,1.59713 0.77354,2.22599c-0.83482,0.93851 -1.66772,1.66834 -2.6096,2.57304z" fill="#C5A24D"/>
   <path stroke="null" id="svg_8" d="m27.59128,20.26792c0.76372,0.1054 1.34117,0.33567 1.91862,0.56593c-1.20191,1.39107 -2.25683,2.94559 -3.68561,4.08435c-0.49876,0.39751 -2.59908,-0.15932 -3.25675,-0.73551c-0.65767,-0.5762 3.33577,-2.66166 5.02373,-3.91477z" fill="#E03AB3"/>
  </g>
 </g>
</svg>