<svg width="400" height="150" xmlns="http://www.w3.org/2000/svg" xml:space="preserve" enable-background="new 0 0 400 150" version="1.1">

 <g>
  <title>Layer 1</title>
  <path id="svg_3" d="m292.44,17.5386c7.64801,1.34633 14.85248,2.62655 22.06427,3.86401c14.99231,2.57251 24.84885,11.92761 30.84171,25.08505c7.96835,17.49488 9.26608,35.6628 1.63013,53.75679c-1.71824,4.07143 -4.0301,8.26801 -7.14588,11.30008c-7.79596,7.5866 -12.70901,18.79036 -25.06131,20.90565c-2.94803,0.50484 -5.92175,1.25758 -8.88022,1.24197c-28.94156,-0.15266 -57.88292,-0.6454 -86.82307,-0.56784c-8.20018,0.02198 -16.37879,1.9601 -24.59905,2.34995c-8.11782,0.38496 -16.28245,0.09997 -24.4149,-0.20339c-18.78917,-0.70089 -37.56656,-1.73803 -56.35823,-2.34434c-9.96364,-0.3215 -19.63032,-2.09261 -28.61757,-6.1429c-12.144,-5.47295 -20.9607,-14.46001 -25.57036,-27.27365c-6.30994,-17.53995 -8.13116,-35.27026 -2.42946,-53.30396c3.29174,-10.41128 10.73411,-17.61965 19.85666,-22.79021c5.2607,-2.98171 11.44825,-4.32506 17.21267,-6.42222c3.82376,-1.39113 7.56771,-3.06354 11.47733,-4.1367c3.00013,-0.82352 6.20324,-1.26098 9.31595,-1.26027c14.15197,0.00321 28.30443,0.18145 42.45571,0.37234c29.63214,0.39972 59.27621,0.46328 88.8902,1.43341c15.26623,0.50012 30.47851,2.64762 46.15542,4.13623m46.70288,42.0064c-4.68942,-17.16363 -15.31442,-27.57258 -33.45086,-29.5509c-19.67316,-2.14594 -39.29572,-5.65942 -59.0143,-6.30024c-43.59697,-1.41681 -87.24014,-1.42123 -130.86523,-1.93796c-2.4597,-0.02914 -5.02958,0.17333 -7.36552,0.87557c-3.56803,1.07264 -6.93737,2.78733 -10.46279,4.02517c-4.53296,1.59159 -9.3779,2.48475 -13.65882,4.56352c-8.30402,4.03233 -14.89508,10.00252 -17.77787,19.19154c-4.18239,13.33151 -2.99336,26.55366 0.62971,39.80988c3.19949,11.70645 9.39452,21.48671 20.59233,26.15033c8.26449,3.44196 17.50743,5.3755 26.46947,6.12359c17.72888,1.4799 35.56404,1.70118 53.35741,2.38699c7.97389,0.30734 16.28459,1.98838 23.84434,0.32605c9.11473,-2.00424 18.07642,-2.48292 27.196,-2.4218c28.44772,0.19066 56.8941,0.5846 85.34186,0.76506c7.40658,0.04699 14.00467,-1.85382 18.71725,-8.41005c4.61881,-6.42575 10.72147,-11.95732 14.43683,-18.82108c6.13788,-11.33893 5.44067,-23.74454 2.01019,-36.77567z" fill="#0B0B0B"/>
  <path id="svg_4" d="m46.32383,14.82679c3.84623,1.62053 7.46088,2.90948 10.7511,4.77165c2.67093,1.51167 4.05015,4.16785 2.3645,7.19795c-1.70843,3.07106 -4.49271,2.93765 -7.36836,1.67339c-2.87871,-1.2656 -5.73998,-2.5732 -8.64256,-3.78152c-2.82476,-1.17592 -5.14928,-2.85523 -4.41554,-6.2623c0.79456,-3.68945 3.58983,-4.3971 7.31086,-3.59917z" fill="#0D0D0D"/>
  <path id="svg_5" d="m39.30817,88.83292c5.92238,1.21602 7.5426,5.07461 3.94151,9.16066c-1.93923,2.20039 -4.36974,4.37771 -7.02668,5.3943c-1.82883,0.69972 -5.77879,0.0395 -6.36325,-1.17566c-0.87044,-1.8097 -0.386,-5.27174 0.92524,-6.90189c2.10827,-2.62106 5.36251,-4.32035 8.52318,-6.47741z" fill="#0F0F0F"/>
  <path id="svg_6" d="m355.80457,20.77067c-1.99466,1.26725 -3.55445,2.88071 -5.37937,3.27889c-1.84235,0.40197 -4.64374,0.27168 -5.74267,-0.86507c-1.10633,-1.14438 -1.56174,-4.84925 -0.68903,-5.63086c3.23407,-2.89654 6.99817,-5.32056 10.88959,-7.27075c0.85556,-0.4288 3.76925,1.46146 4.4862,2.90435c1.64789,3.31651 -0.56286,5.61219 -3.56472,7.58344z" fill="#121212"/>
  <path id="svg_7" d="m52.22293,127.45219c-5.01129,-2.80966 -5.45214,-5.7764 -1.72144,-9.30085c1.67523,-1.5826 3.13386,-3.68027 5.12555,-4.56081c1.95032,-0.86225 5.21458,-1.41502 6.50147,-0.3733c1.31063,1.06093 2.01405,5.3029 1.06209,6.27976c-3.05776,3.13776 -7.0033,5.41037 -10.96767,7.9552z" fill="#0F0F0F"/>
  <path id="svg_8" d="m364.13385,130.88531c0.89044,0.78719 1.52695,1.32355 2.11179,1.91131c2.30703,2.31851 3.8161,5.00557 1.28302,7.86788c-2.6908,3.04056 -5.69227,1.82601 -8.37464,-0.33915c-1.4172,-1.14397 -2.83359,-2.3389 -4.01629,-3.71239c-2.04596,-2.37602 -3.0048,-5.50825 -0.23395,-7.4178c1.61813,-1.11516 4.66623,-0.28468 7.04925,-0.07806c0.67386,0.05841 1.27088,1.00289 2.18082,1.76821z" fill="#111111"/>
  <path id="svg_9" d="m373.26923,76.40646c-3.84931,-0.79306 -7.57868,-1.22014 -10.70694,-2.82147c-1.46811,-0.75151 -2.94821,-4.33941 -2.32386,-5.61251c0.82566,-1.68361 3.67008,-3.15181 5.72013,-3.25493c2.31469,-0.11642 4.79532,1.19784 7.05404,2.22051c4.91559,2.22558 5.10077,5.78598 0.25663,9.4684z" fill="#101010"/>
  <path id="svg_10" d="m373.93402,44.92774c-3.67441,1.58599 -7.0863,3.54504 -10.67029,3.93921c-3.86233,0.42478 -6.02407,-3.61864 -4.31881,-6.876c1.74057,-3.32482 10.69256,-5.90251 13.34524,-3.37635c1.31833,1.25545 1.26398,3.95236 1.64386,6.31314z" fill="#121212"/>
  <path id="svg_11" d="m30.98538,39.64783c4.08861,-2.92145 7.93129,-1.66319 11.46076,0.14084c2.74704,1.40411 3.29763,4.04622 1.53279,6.73609c-1.85428,2.82619 -7.11146,3.20624 -11.383,0.83049c-3.17413,-1.76538 -3.86258,-4.29242 -1.61055,-7.70742z" fill="#131313"/>
  <path id="svg_12" d="m360.42731,102.69463c-2.2067,-3.87204 -1.05911,-6.43918 2.58181,-7.72361c4.60514,-1.62456 10.86988,0.61685 11.52683,4.01716c0.66479,3.44075 -1.26602,5.78964 -4.42648,5.84255c-3.13108,0.05243 -6.28363,-1.1796 -9.68216,-2.1361z" fill="#121212"/>
  <path id="svg_13" d="m28.5961,75.40238c-3.4688,0.22948 -6.46218,-0.52862 -6.62869,-3.96168c-0.08579,-1.76881 1.68402,-4.88282 3.11039,-5.20631c2.89588,-0.65677 6.57133,-0.69263 9.10679,0.60958c2.99168,1.53654 1.28189,8.16153 -5.58849,8.55841z" fill="#111111"/>
  <path id="svg_14" d="m339.28101,59.92981c3.29235,12.64632 3.98956,25.05193 -2.14832,36.39086c-3.71536,6.86376 -9.81802,12.39533 -14.43683,18.82108c-4.71258,6.55623 -11.31067,8.45704 -18.71725,8.41005c-28.44776,-0.18046 -56.89414,-0.5744 -85.34186,-0.76506c-9.11958,-0.06112 -18.08127,0.41756 -27.196,2.4218c-7.55975,1.66233 -15.87045,-0.01871 -23.84434,-0.32605c-17.79337,-0.68581 -35.62853,-0.90709 -53.35741,-2.38699c-8.96204,-0.74809 -18.20498,-2.68163 -26.46947,-6.12359c-11.19781,-4.66362 -17.39284,-14.44388 -20.59233,-26.15033c-3.62307,-13.25622 -4.8121,-26.47837 -0.62971,-39.80988c2.88279,-9.18902 9.47385,-15.15921 17.77787,-19.19154c4.28092,-2.07877 9.12586,-2.97193 13.65882,-4.56352c3.52542,-1.23784 6.89476,-2.95253 10.46279,-4.02517c2.33594,-0.70224 4.90582,-0.90471 7.36552,-0.87557c43.62509,0.51673 87.26826,0.52115 130.86523,1.93796c19.71858,0.64082 39.34114,4.1543 59.0143,6.30024c18.13644,1.97832 28.76144,12.38727 33.58899,29.93571m-189.89196,15.93162c4.01938,-1.4493 8.49823,-2.20545 11.9581,-4.49884c6.31041,-4.1829 8.46611,-10.7605 7.92237,-18.26121c-0.44413,-6.12655 -4.20336,-9.7463 -9.44558,-11.71816c-10.54976,-3.96828 -21.33361,-2.58839 -31.90705,-0.09662c-4.49559,1.05945 -5.31087,4.59821 -3.05208,8.52849c0.79744,1.38752 1.52993,2.96405 1.71882,4.52372c0.87857,7.25409 1.63954,14.52517 2.28113,21.80441c0.58338,6.61859 0.80864,13.27095 1.48755,19.87802c0.3537,3.44226 1.59482,7.00615 6.01607,6.36823c4.34761,-0.62729 4.39329,-4.1005 4.04371,-7.72975c-0.58479,-6.07137 -0.84689,-12.17383 -1.22984,-18.034c3.42806,-0.24673 6.39911,-0.46057 10.2068,-0.76429m80.82175,-12.62495c-3.02281,-0.37196 -6.57025,-1.95262 -8.978,-0.90753c-10.67172,4.63209 -18.46736,13.80418 -17.2034,27.06272c0.69817,7.32352 6.32979,12.15237 13.69675,12.69114c6.83574,0.49992 12.46553,-1.31849 16.1848,-6.73085c2.78461,0.65019 5.00136,1.43156 7.27,1.63547c3.37357,0.30321 6.66695,-0.38597 7.11202,-4.48278c0.41543,-3.82415 -2.3102,-5.16087 -5.64125,-5.55484c-3.6344,-0.42982 -5.12932,-2.79107 -5.34404,-6.14151c-0.13834,-2.15831 -0.29472,-4.36425 -0.01116,-6.49126c0.71879,-5.3912 -1.10025,-9.04699 -7.08572,-11.08056m30.5071,-0.543c-2.22046,-0.39359 -5.25142,-1.83992 -6.45528,-0.91308c-1.48962,1.14686 -2.47037,4.55124 -1.91872,6.47879c2.49666,8.7237 5.61136,17.27053 8.74659,26.60472c-1.37848,1.14576 -3.42203,3.08818 -5.7074,4.68441c-3.11193,2.1735 -5.92881,4.5849 -3.18637,8.50357c2.53331,3.61985 5.81314,2.08674 8.78967,0.12509c10.69513,-7.04853 18.5672,-16.64711 23.92477,-28.09512c2.24775,-4.80303 3.1128,-10.34351 4.02179,-15.64891c0.54682,-3.19177 -0.92834,-6.24132 -4.7015,-6.37787c-4.10175,-0.14843 -5.33628,2.89208 -5.26453,6.41222c0.1731,8.4939 -4.97492,14.43459 -10.26862,22.30986c-2.80609,-8.68449 -5.18359,-16.04261 -7.9804,-24.08368m-68.96695,-7.85725c-0.3028,-3.64093 -0.56476,-7.28585 -0.92075,-10.92156c-0.30748,-3.14012 -1.71417,-5.66264 -5.17543,-5.55651c-3.43095,0.1052 -4.91014,2.63939 -4.82759,5.82384c0.11615,4.47834 0.59979,8.94578 0.80704,13.4234c0.52232,11.28448 0.87875,22.57767 1.51934,33.855c0.19822,3.48935 1.45046,6.97282 5.90314,6.42457c4.08803,-0.50336 4.35115,-3.82998 4.1922,-7.24876c-0.54007,-11.61646 -0.97667,-23.23773 -1.49795,-35.79998z" fill="#FCFCFC"/>
  <path id="svg_15" d="m148.97073,75.90637c-3.38937,0.25878 -6.36042,0.47262 -9.78848,0.71935c0.38295,5.86017 0.64505,11.96263 1.22984,18.034c0.34958,3.62925 0.3039,7.10246 -4.04371,7.72975c-4.42125,0.63792 -5.66237,-2.92597 -6.01607,-6.36823c-0.67891,-6.60707 -0.90417,-13.25943 -1.48755,-19.87802c-0.64159,-7.27924 -1.40256,-14.55032 -2.28113,-21.80441c-0.18889,-1.55967 -0.92138,-3.1362 -1.71882,-4.52372c-2.25879,-3.93028 -1.44351,-7.46904 3.05208,-8.52849c10.57344,-2.49177 21.35729,-3.87166 31.90705,0.09662c5.24222,1.97186 9.00145,5.59161 9.44558,11.71816c0.54374,7.50071 -1.61196,14.07831 -7.92237,18.26121c-3.45987,2.29339 -7.93872,3.04954 -12.37642,4.54378m-8.94566,-26.35542c-1.13673,0.82328 -3.28957,1.7061 -3.24539,2.46018c0.28801,4.91505 1.05261,9.80218 1.75581,15.45854c5.68489,-1.31341 11.20917,-1.6777 15.73215,-3.99574c2.49153,-1.27691 4.1367,-5.75086 4.46826,-8.95867c0.1384,-1.33881 -3.93962,-3.93162 -6.44139,-4.53068c-3.62514,-0.86807 -7.5596,-0.44436 -12.26944,-0.43363z" fill="#0A0A0A"/>
  <path id="svg_16" d="m230.49478,63.4907c5.70149,1.77935 7.52053,5.43514 6.80174,10.82634c-0.28356,2.12701 -0.12718,4.33295 0.01116,6.49126c0.21472,3.35044 1.70964,5.71169 5.34404,6.14151c3.33105,0.39397 6.05668,1.73069 5.64125,5.55484c-0.44507,4.09681 -3.73845,4.78599 -7.11202,4.48278c-2.26864,-0.20391 -4.48539,-0.98528 -7.27,-1.63547c-3.71927,5.41236 -9.34906,7.23077 -16.1848,6.73085c-7.36696,-0.53877 -12.99858,-5.36762 -13.69675,-12.69114c-1.26396,-13.25854 6.53168,-22.43063 17.2034,-27.06272c2.40775,-1.04509 5.95519,0.53557 9.26198,1.16175m-16.38655,21.38027c-0.27872,3.83154 0.18724,6.93792 5.19499,7.09682c4.58074,0.14534 7.00824,-2.21232 7.226,-6.33456c0.23656,-4.47818 -0.37842,-9.00136 -0.64854,-13.99395c-6.37809,2.44128 -10.09084,6.43161 -11.77245,13.23169z" fill="#090909"/>
  <path id="svg_17" d="m260.92755,63.03495c2.58716,7.6996 4.96466,15.05772 7.77075,23.74221c5.2937,-7.87527 10.44172,-13.81596 10.26862,-22.30986c-0.07175,-3.52014 1.16278,-6.56065 5.26453,-6.41222c3.77316,0.13655 5.24832,3.1861 4.7015,6.37787c-0.90899,5.3054 -1.77404,10.84588 -4.02179,15.64891c-5.35757,11.44801 -13.22964,21.04659 -23.92477,28.09512c-2.97653,1.96165 -6.25636,3.49476 -8.78967,-0.12509c-2.74244,-3.91867 0.07444,-6.33007 3.18637,-8.50357c2.28537,-1.59623 4.32892,-3.53865 5.7074,-4.68441c-3.13523,-9.33419 -6.24993,-17.88102 -8.74659,-26.60472c-0.55165,-1.92755 0.4291,-5.33193 1.91872,-6.47879c1.20386,-0.92684 4.23482,0.51949 6.66493,1.25455z" fill="#0A0A0A"/>
  <path id="svg_18" d="m191.77353,55.30763c0.4987,12.09085 0.9353,23.71212 1.47537,35.32858c0.15895,3.41878 -0.10417,6.7454 -4.1922,7.24876c-4.45268,0.54825 -5.70492,-2.93522 -5.90314,-6.42457c-0.64059,-11.27733 -0.99702,-22.57052 -1.51934,-33.855c-0.20725,-4.47762 -0.69089,-8.94506 -0.80704,-13.4234c-0.08255,-3.18445 1.39664,-5.71864 4.82759,-5.82384c3.46126,-0.10613 4.86795,2.41639 5.17543,5.55651c0.35599,3.63571 0.61795,7.28063 0.94333,11.39296z" fill="#0B0B0B"/>
  <path id="svg_19" d="m140.47873,49.48193c4.25618,0.05829 8.19064,-0.36542 11.81578,0.50265c2.50177,0.59906 6.57979,3.19187 6.44139,4.53068c-0.33156,3.20781 -1.97673,7.68176 -4.46826,8.95867c-4.52298,2.31804 -10.04726,2.68233 -15.73215,3.99574c-0.7032,-5.65636 -1.4678,-10.54349 -1.75581,-15.45854c-0.04418,-0.75408 2.10866,-1.6369 3.69905,-2.5292z" fill="#F4F4F4"/>
  <path id="svg_20" d="m214.16443,84.47452c1.62541,-6.40363 5.33816,-10.39396 11.71625,-12.83524c0.27012,4.99259 0.8851,9.51577 0.64854,13.99395c-0.21776,4.12224 -2.64526,6.4799 -7.226,6.33456c-5.00775,-0.1589 -5.47371,-3.26528 -5.13879,-7.49327z" fill="#F2F2F2"/>
 </g>
</svg>