<svg width="200" height="75" xmlns="http://www.w3.org/2000/svg" xml:space="preserve" enable-background="new 0 0 200 75" version="1.1">

 <g>
  <title>Layer 1</title>
  <path id="svg_2" d="m154.19098,66.14057c-6.33254,-1.60378 -9.64197,-5.81803 -9.95754,-11.52295c-0.61322,-11.08564 -0.48922,-22.2122 -0.65579,-33.32203c-0.00969,-0.64665 0.25258,-1.31779 0.15248,-1.93958c-1.2118,-7.527 -0.40724,-8.40697 7.32427,-8.57623c5.31677,-0.1164 10.62663,-0.54284 15.94342,-0.66746c1.79634,-0.04211 3.67525,0.18157 5.39177,0.69805c3.13869,0.94439 5.53097,2.91392 4.6663,6.54154c-0.88905,3.72999 -3.83319,3.71713 -7.14192,3.50381c-5.41421,-0.34904 -10.86734,-0.0944 -16.54788,-0.0944c0,4.39284 0,8.3069 0,12.33334c4.92369,0 9.66795,-0.05728 14.40959,0.02906c1.81854,0.03311 4.01996,-0.17349 5.35388,0.74054c1.92705,1.32044 4.38559,3.47563 4.52995,5.42894c0.24776,3.35219 -2.78587,4.46015 -5.96305,4.43069c-4.97199,-0.04612 -9.94495,-0.09773 -14.91614,-0.03682c-1.1002,0.01348 -2.19478,0.48661 -3.51369,0.80094c0.26589,2.34524 0.6536,4.45948 0.71448,6.58309c0.11497,4.00987 2.34764,5.7942 6.04811,5.64496c6.62369,-0.26715 13.26509,-0.55574 19.84288,-1.3195c3.66173,-0.42517 7.05104,-0.66238 7.92911,3.60882c0.87918,4.2766 -2.54036,6.31157 -5.90605,6.52646c-9.07849,0.57963 -18.19876,0.50502 -27.70418,0.60873z" fill="#0A0A0A"/>
  <path id="svg_3" d="m89.51767,22.39933c4.05847,13.42978 7.99031,26.4838 11.87453,39.55198c1.0856,3.65244 1.27064,7.39638 -3.36039,8.40476c-4.30348,0.93705 -5.57216,-2.46998 -6.49755,-5.91224c-1.15661,-4.30241 -2.4877,-8.55792 -3.76072,-12.89243c-1.18983,0 -1.99566,-0.01877 -2.8004,0.00284c-10.48768,0.28171 -10.54149,0.2724 -12.54744,10.32403c-0.71169,3.56618 -1.80992,6.92028 -6.21786,6.00499c-4.20053,-0.87221 -4.77291,-4.59557 -3.77607,-7.97923c3.93688,-13.36337 8.13805,-26.64961 12.34081,-39.93294c0.48986,-1.54827 1.43961,-3.02492 2.45003,-4.32131c3.60165,-4.621 8.71052,-3.85585 10.77427,1.58337c0.58793,1.54956 0.92437,3.19455 1.52079,5.16618m-7.58119,9.07965c-0.09376,-0.13569 -0.16442,-0.30361 -0.29061,-0.39405c-0.06725,-0.04821 -0.31384,0.00478 -0.33847,0.06749c-1.29899,3.30674 -2.58288,6.61941 -3.99358,10.25413c2.78266,0 4.84106,0 7.47686,0c-0.95529,-3.37383 -1.79487,-6.33899 -2.8542,-9.92757z" fill="#090909"/>
  <path id="svg_4" d="m50.60504,21.01501c-2.6436,-0.41634 -4.88187,-0.93558 -7.12307,-1.44177c-5.26031,-1.18809 -7.67565,0.76346 -7.50497,6.07874c0.19448,6.05635 4.12091,9.19802 9.1346,11.25917c6.05226,2.48811 8.94711,7.05667 9.67454,13.3571c1.3699,11.86505 -4.7705,18.84757 -16.68977,18.61799c-3.46637,-0.06677 -7.08965,-0.22582 -10.31748,-1.30775c-1.89721,-0.63593 -3.15755,-3.1719 -4.70434,-4.85326c1.79182,-1.61757 3.38666,-4.20958 5.42229,-4.62108c2.94891,-0.59611 6.21199,0.44885 9.34965,0.67419c2.9294,0.21039 5.99357,0.16104 6.65086,-3.56322c0.63129,-3.57701 0.27199,-6.94338 -3.57298,-8.95123c-2.63213,-1.37451 -5.30244,-2.82049 -7.58954,-4.68391c-6.75612,-5.50454 -9.30411,-14.70905 -6.66905,-23.02805c2.99202,-9.44596 18.30478,-13.16155 25.57939,-6.20676c2.8562,2.73062 2.44774,5.56333 -1.64013,8.66984z" fill="#0A0A0A"/>
  <path id="svg_5" d="m131.8893,16.78884c5.77713,-0.55819 8.14026,1.82292 6.5278,6.73276c-3.83206,11.66843 -7.70941,23.33623 -12.08616,34.80676c-3.13789,8.22377 -7.99906,8.54463 -13.38397,1.75044c-6.27387,-7.91579 -11.26959,-16.46514 -13.83324,-26.26152c-0.83027,-3.17268 -1.07625,-6.53761 -1.24738,-9.83237c-0.17091,-3.29102 0.9916,-6.18294 4.795,-6.32311c3.8146,-0.14058 5.11042,2.64879 5.22873,5.96238c0.32618,9.13601 3.92958,17.04305 8.94026,24.4463c0.36165,0.53433 0.853,0.98088 1.98919,2.2655c2.85844,-8.48799 5.38779,-16.41329 8.22637,-24.22624c1.15498,-3.17897 2.98176,-6.11387 4.8434,-9.3209z" fill="#0B0B0B"/>
 </g>
</svg>