<svg width="400" height="150" xmlns="http://www.w3.org/2000/svg" version="1.1" enable-background="new 0 0 400 150" xml:space="preserve">
 <g>
  <title>Layer 1</title>
  <g id="svg_19">
   <path fill="#080808" d="m360.79868,10.72772c4.69799,0.88636 9.28732,1.01206 13.05288,2.83719c4.29602,2.08227 8.67865,5.03865 11.57172,8.74766c6.39261,8.19563 9.05029,17.66311 8.6579,28.41729c-0.65573,17.97047 -0.1265,35.98243 -0.20322,53.97646c-0.04089,9.59702 -3.37192,18.41264 -8.17166,26.4071c-4.53549,7.55429 -12.19489,11.1178 -20.90756,11.90861c-6.95026,0.63085 -13.94043,1.27041 -20.90628,1.20472c-32.63477,-0.30777 -65.26703,-1.16043 -97.90068,-1.18572c-14.78051,-0.01146 -29.5571,1.96895 -44.3445,2.11171c-19.80335,0.19119 -39.61753,-0.87501 -59.42324,-0.75766c-22.63265,0.13412 -45.27397,1.68053 -67.887,1.26826c-15.88976,-0.2897 -31.98873,-1.60926 -46.7762,-8.68304c-7.34248,-3.51236 -15.22927,-6.67899 -17.94217,-15.4238c-1.05606,-3.40409 -1.49063,-7.15407 -1.41551,-10.72984c0.34922,-16.62474 0.52708,-33.27381 1.64071,-49.85545c0.95402,-14.20494 1.84479,-28.5548 8.6149,-41.67949c4.51152,-8.74612 11.1056,-12.89376 21.20758,-12.68671c35.79004,0.73356 71.624,0.23385 107.37142,1.79848c21.64492,0.94737 43.21562,1.35202 64.82438,0.52098c23.27283,-0.89503 46.53919,-3.08604 69.79627,-2.9286c20.91241,0.14158 41.80575,2.73893 62.71365,4.16333c5.30606,0.36149 10.63541,0.38157 16.42661,0.56852m-103.30414,123.13977c16.64196,0.40847 33.28351,1.11809 49.92605,1.14348c17.80579,0.02716 35.61533,-0.4902 53.41755,-0.97725c6.90081,-0.18881 13.89166,-2.08501 17.07418,-8.48376c3.26694,-6.56847 6.16587,-14.03147 6.4776,-21.22215c0.86539,-19.96004 0.40787,-39.98282 0.26014,-59.97922c-0.07917,-10.71715 -8.71506,-21.3791 -19.2753,-23.18526c-7.15403,-1.22359 -14.52549,-1.17946 -21.80036,-1.6926c-21.57608,-1.52189 -43.15545,-4.29977 -64.72802,-4.24912c-29.09093,0.06829 -58.16648,2.70873 -87.2689,3.46655c-15.26617,0.39753 -30.57199,-1.07671 -45.86618,-1.33649c-35.29809,-0.59957 -70.60158,-0.88728 -105.89891,-1.52174c-6.12378,-0.11007 -10.00686,2.22894 -12.81089,7.52132c-6.36605,12.0154 -7.05671,25.24747 -7.93819,38.27346c-1.14487,16.91822 -1.22157,33.90925 -1.7267,50.86987c-0.13743,4.6146 1.20988,8.63333 5.46668,11.00447c4.19495,2.33667 8.41602,4.69112 12.8272,6.56272c12.67094,5.3761 26.33613,6.18052 39.69051,6.38267c23.95415,0.36257 47.93005,-1.13934 71.89981,-1.25612c22.30928,-0.1087 44.62471,0.92302 66.93303,0.77747c14.1198,-0.09213 28.23154,-1.42143 43.3407,-2.0983z" id="svg_2"/>
   <path fill="#ffffff" d="m256.99762,133.81871c-14.61224,0.72565 -28.72398,2.05495 -42.84378,2.14708c-22.30832,0.14555 -44.62375,-0.88617 -66.93303,-0.77747c-23.96976,0.11678 -47.94566,1.61869 -71.89981,1.25612c-13.35438,-0.20215 -27.01957,-1.00657 -39.69051,-6.38267c-4.41118,-1.8716 -8.63225,-4.22605 -12.8272,-6.56272c-4.2568,-2.37114 -5.60411,-6.38987 -5.46668,-11.00447c0.50513,-16.96062 0.58183,-33.95165 1.7267,-50.86987c0.88148,-13.02599 1.57214,-26.25806 7.93819,-38.27346c2.80403,-5.29238 6.68711,-7.63139 12.81089,-7.52132c35.29733,0.63446 70.60082,0.92217 105.89891,1.52174c15.29419,0.25978 30.60001,1.73402 45.86618,1.33649c29.10242,-0.75782 58.17797,-3.39826 87.2689,-3.46655c21.57257,-0.05065 43.15194,2.72723 64.72802,4.24912c7.27487,0.51314 14.64633,0.46901 21.80036,1.6926c10.56024,1.80616 19.19613,12.46811 19.2753,23.18526c0.14773,19.9964 0.60525,40.01918 -0.26014,59.97922c-0.31173,7.19068 -3.21066,14.65368 -6.4776,21.22215c-3.18252,6.39875 -10.17337,8.29495 -17.07418,8.48376c-17.80222,0.48705 -35.61176,1.00441 -53.41755,0.97725c-16.64254,-0.02539 -33.28409,-0.73501 -50.42297,-1.19226m64.82303,-67.46864c-3.61389,-4.68524 -8.58917,-4.89715 -12.46988,-0.39385c-4.27011,4.95518 -5.22003,11.01175 -5.24265,17.26613c-0.02371,6.55258 4.18625,11.73726 10.62149,13.22954c1.72245,0.39941 3.49665,0.57574 5.18988,0.84537c0.18769,8.94725 -1.94818,11.1684 -10.30862,10.7427c-1.59808,-0.08138 -3.24265,-0.58002 -4.7309,-1.20655c-2.91659,-1.22783 -5.70022,-1.57159 -7.30664,1.66372c-1.66265,3.34857 0.6467,5.28894 3.28617,6.7311c6.31378,3.44973 13.0516,3.00191 19.23532,0.43714c3.10058,-1.28598 6.52887,-4.64674 7.45596,-7.76803c2.72009,-9.15821 4.36902,-18.64574 6.19272,-28.05174c0.49817,-2.56942 0.53253,-5.38273 0.04038,-7.94192c-0.4,-2.07978 -1.51542,-5.09281 -3.02439,-5.6073c-1.74033,-0.59337 -4.26083,1.10144 -7.00534,1.58007c-0.52914,-0.29166 -1.05829,-0.58331 -1.9335,-1.52638m-226.06973,43.58921c-0.02785,-2.97341 1.0432,-6.66597 -0.32754,-8.76058c-2.3675,-3.61773 -2.58117,-6.52582 -0.51222,-9.97702c1.72983,-2.88553 1.07679,-6.82943 5.63727,-8.50115c5.26396,-1.92958 4.94601,-7.29489 4.70699,-12.06706c-0.2044,-4.08098 -2.91434,-5.64322 -6.37236,-6.62821c-1.21877,-0.34716 -3.04194,-0.86732 -3.35041,-1.74424c-2.06195,-5.86159 -4.37336,-11.73839 -5.44009,-17.81455c-0.85429,-4.86613 -2.82451,-7.86148 -7.30927,-9.68316c-4.46368,-1.81312 -8.26469,-1.14058 -11.18914,2.57351c-1.72229,2.18732 -3.34817,2.67056 -5.93874,1.7873c-2.01331,-0.68644 -4.25053,-0.75176 -6.39917,-0.99766c-3.57469,-0.4091 -7.62774,0.19656 -10.63637,-1.30932c-5.59628,-2.80105 -9.52675,-0.4524 -13.78373,2.39283c-4.00568,2.67728 -4.11739,6.56258 -3.52375,10.67226c0.42648,2.95245 2.39199,6.59346 1.29731,8.68494c-3.3587,6.41704 -1.86657,14.1776 -7.4213,20.20627c-5.57227,6.0477 -2.18217,15.4141 5.1479,18.1756c0.68514,0.25811 1.26779,0.88626 1.79885,1.43807c2.05248,2.13264 4.15533,4.22821 6.05132,6.49492c0.86525,1.03443 1.85841,2.45376 1.81813,3.6661c-0.15107,4.54591 1.47744,7.91965 5.78846,9.46719c4.36644,1.56744 8.84681,3.36919 12.97707,-0.9622c0.79205,-0.83061 2.6459,-0.92536 3.99674,-0.88769c2.64055,0.07361 5.28069,0.76278 7.90476,0.6803c3.60567,-0.1133 7.3058,-1.44403 10.76887,-0.92963c5.90475,0.87708 10.53579,-0.16949 14.31042,-5.97682m39.39488,-27.55287c-2.86208,-2.78106 -6.29837,-5.1875 -8.42546,-8.44806c-2.14626,-3.28994 -3.58779,-7.33766 -4.17477,-11.22886c-0.32357,-2.14494 1.227,-6.02332 2.86656,-6.64092c1.98213,-0.74663 5.23205,0.66893 7.42095,1.99467c2.45888,1.48925 4.64982,3.048 7.13053,0.79247c2.69424,-2.44967 1.53522,-5.09105 -0.35109,-7.52293c-3.53565,-4.55827 -11.15547,-6.66627 -17.24149,-4.77034c-4.61114,1.43648 -8.70872,7.3917 -9.26648,13.17741c-0.87212,9.04635 1.67311,16.70456 8.65531,22.77891c2.88191,2.50719 5.69404,5.13661 8.21455,7.9955c0.94093,1.06726 0.96083,2.94653 1.40068,4.45554c-1.50883,0.32695 -3.12607,1.16613 -4.50403,0.87455c-2.89962,-0.61356 -5.61954,-2.29048 -8.51768,-2.62447c-2.06256,-0.23769 -4.29574,1.00509 -6.45277,1.58716c0.87825,2.24211 1.17116,5.75634 2.74737,6.48161c4.28278,1.97065 9.04297,3.42234 13.73259,3.89026c12.62917,1.26009 14.57474,-9.72474 11.07658,-17.74414c-0.75805,-1.73783 -2.50381,-3.0448 -4.31135,-5.04836m23.42966,9.87345c-2.96154,-1.94663 -0.39881,-2.56868 0.76754,-3.8077c3.5893,-3.81285 7.86136,-7.32387 10.28482,-11.8079c3.10501,-5.74508 1.1529,-11.15712 -3.26372,-13.52097c-5.817,-3.11338 -13.25647,-1.80003 -16.27694,3.84408c-4.55115,8.50429 -6.9529,17.51036 -2.22542,26.994c4.41887,8.86447 22.28809,13.39363 29.8188,7.13116c1.45758,-1.2121 1.42104,-4.22088 2.07372,-6.40087c-2.04546,-0.57591 -4.57027,-2.20758 -6.04935,-1.53604c-5.07919,2.30604 -9.72003,1.24842 -15.12945,-0.89576m56.45803,-39.50586c-0.49365,3.78404 -0.7258,7.63066 -1.60897,11.32149c-0.35592,1.48744 -1.89322,3.1519 -3.32206,3.82582c-2.84559,1.34213 -6.66009,1.79064 -5.88597,6.06398c0.74465,4.11054 4.25191,3.99451 7.54717,3.69532c0.22206,-0.02016 0.48213,0.37816 1.29512,1.06135c0,6.17592 -0.25576,12.83878 0.10765,19.46769c0.18237,3.32622 1.38049,7.20519 5.93556,6.27168c4.06514,-0.83313 3.44577,-4.28533 3.25176,-7.67142c-0.38442,-6.70911 -0.11358,-13.45575 -0.11358,-20.49027c3.5983,0 6.86631,0.52713 9.84327,-0.17675c2.15074,-0.50854 5.19195,-2.37111 5.57981,-4.12792c0.76001,-3.44234 -2.28053,-4.74923 -5.4236,-4.85924c-3.10569,-0.10871 -6.21818,-0.02375 -10.07324,-0.02375c0.9601,-5.29905 2.13683,-9.81944 2.4464,-14.39844c0.13904,-2.05649 -1.4561,-4.23022 -2.26433,-6.35075c-2.1377,1.06902 -4.33893,2.03415 -6.37051,3.27667c-0.53942,0.3299 -0.55771,1.51191 -0.94448,3.11454m51.87194,47.1761c3.79342,0.6469 5.24252,-1.40351 6.22137,-4.76252c1.56748,-5.37875 3.31775,-10.74866 5.59549,-15.85239c0.82126,-1.84021 3.3862,-2.90225 5.15543,-4.31939c1.04998,1.9038 2.75167,3.72321 3.0115,5.72936c0.50858,3.9266 -0.25442,8.04218 0.44739,11.90921c0.34991,1.92796 2.55002,4.61021 4.30447,4.9539c3.12732,0.61263 4.56607,-2.09296 4.6091,-5.11572c0.06381,-4.48533 0.2894,-8.99599 -0.06927,-13.45439c-0.98126,-12.19854 -10.80832,-17.05229 -21.32941,-10.75717c-0.83417,0.4991 -2.18588,0.9507 -2.94732,0.61971c-4.60328,-2.00093 -6.76975,0.07653 -7.1543,4.37142c-0.63578,7.10093 -1.09152,14.2321 -1.19013,21.35652c-0.02301,1.66205 1.69135,3.34814 3.34568,5.32146m-87.65139,-32.11396c-2.34593,5.60659 -0.82838,7.22956 7.44069,7.49506c0,1.61618 -0.02998,3.24976 0.00553,4.8819c0.11572,5.31873 0.2313,10.63768 0.39477,15.95508c0.09973,3.2445 0.89697,6.31733 4.89171,6.11632c4.02333,-0.20247 4.33435,-3.46293 4.29543,-6.62063c-0.01639,-1.32816 -0.21988,-2.6545 -0.22626,-3.9822c-0.02683,-5.58835 -0.01135,-11.17691 -0.01135,-16.76538c0.39846,0.28179 0.79695,0.56358 1.19541,0.84538c1.89673,-1.68487 5.63494,-3.9064 5.33085,-4.94988c-0.78434,-2.69133 -3.35599,-4.86177 -5.21366,-7.24028c-0.91118,-3.04951 -0.64316,-6.67871 -0.33741,-10.30471c0.26734,-3.17071 -0.44652,-5.94219 -4.11667,-6.13051c-3.48682,-0.17892 -4.87581,2.32644 -5.14919,5.50203c-0.34059,3.95612 -0.64223,7.9156 -0.95556,11.80987c-2.41002,0.9859 -4.6928,1.91973 -7.54429,3.38795m180.56172,4.79488c2.65287,-4.6004 1.40598,-7.38272 -3.52896,-7.87462c-6.66461,-0.6643 -11.90576,3.53033 -12.06472,10.21972c-0.07215,3.03571 0.66388,6.21446 1.63943,9.12516c1.96802,5.87185 0.83112,9.36566 -3.98773,12.31653c-1.28497,0.78688 -2.70206,3.08924 -2.40775,4.29182c0.37989,1.55226 2.19751,3.37997 3.78342,3.89413c5.10315,1.65448 11.59045,-2.3792 12.20346,-8.07731c0.54035,-5.02304 0.37277,-10.3423 -0.70187,-15.26447c-1.40799,-6.44896 -1.92334,-6.33644 5.06472,-8.63096m-105.51306,30.8727c0.59203,-6.10862 1.18611,-12.21705 1.77533,-18.32594c0.3656,-3.79049 1.15549,-7.61435 0.87244,-11.35647c-0.11291,-1.49269 -2.56378,-3.85336 -4.02225,-3.90824c-1.48558,-0.0559 -4.20811,2.07955 -4.40744,3.52818c-1.244,9.04024 -2.10716,18.14651 -2.64935,27.25751c-0.10159,1.70722 1.42813,4.2171 2.93489,5.07555c1.07044,0.60987 3.36711,-0.93254 5.49638,-2.27059m-0.50241,-44.0474c2.81064,-3.38183 2.73706,-6.48221 -0.41743,-7.43436c-1.3246,-0.39981 -3.49274,-0.0371 -4.42363,0.86244c-0.93065,0.89932 -1.56928,3.6011 -0.96256,4.27349c1.20041,1.33034 3.34764,1.80633 5.80362,2.29843z" id="svg_3"/>
   <path fill="#090909" d="m95.5002,110.22977c-3.52391,5.51684 -8.15495,6.56341 -14.0597,5.68633c-3.46307,-0.5144 -7.1632,0.81633 -10.76887,0.92963c-2.62407,0.08248 -5.26421,-0.60669 -7.90476,-0.6803c-1.35084,-0.03767 -3.20469,0.05708 -3.99674,0.88769c-4.13026,4.33139 -8.61063,2.52964 -12.97707,0.9622c-4.31102,-1.54754 -5.93953,-4.92128 -5.78846,-9.46719c0.04028,-1.21234 -0.95288,-2.63167 -1.81813,-3.6661c-1.89599,-2.26671 -3.99884,-4.36228 -6.05132,-6.49492c-0.53106,-0.55181 -1.11371,-1.17996 -1.79885,-1.43807c-7.33007,-2.7615 -10.72017,-12.1279 -5.1479,-18.1756c5.55473,-6.02867 4.0626,-13.78923 7.4213,-20.20627c1.09468,-2.09148 -0.87083,-5.73249 -1.29731,-8.68494c-0.59364,-4.10968 -0.48193,-7.99498 3.52375,-10.67226c4.25698,-2.84523 8.18745,-5.19388 13.78373,-2.39283c3.00863,1.50588 7.06168,0.90022 10.63637,1.30932c2.14864,0.2459 4.38586,0.31122 6.39917,0.99766c2.59057,0.88326 4.21645,0.40002 5.93874,-1.7873c2.92445,-3.71409 6.72546,-4.38663 11.18914,-2.57351c4.48476,1.82168 6.45498,4.81703 7.30927,9.68316c1.06673,6.07616 3.37814,11.95296 5.44009,17.81455c0.30847,0.87692 2.13164,1.39708 3.35041,1.74424c3.45802,0.98499 6.16796,2.54723 6.37236,6.62821c0.23902,4.77217 0.55697,10.13748 -4.70699,12.06706c-4.56048,1.67172 -3.90744,5.61562 -5.63727,8.50115c-2.06895,3.4512 -1.85528,6.35929 0.51222,9.97702c1.37074,2.09461 0.29969,5.78717 0.07682,9.05107m-14.78042,-63.27035c-0.30355,-1.07994 -0.6071,-2.15987 -0.92946,-3.30672c-3.12279,2.26996 -5.66296,5.67801 -8.13237,5.62749c-8.43131,-0.1725 -16.83787,-1.56052 -25.2525,-2.49716c-0.14315,-0.01594 -0.26049,-0.259 -0.40413,-0.27607c-1.36442,-0.16221 -3.12228,-0.86982 -3.98714,-0.27901c-0.84013,0.57392 -1.0909,2.50335 -1.0269,3.80943c0.15175,3.09699 1.24575,6.25513 0.85938,9.24654c-0.61134,4.73312 -1.85854,9.43614 -3.34344,13.98653c-1.02603,3.14425 -2.92609,6.00007 -4.39675,9.0038c-0.73848,1.50827 -1.39036,3.05895 -2.34405,5.17254c5.26156,0.00794 8.02952,2.06642 8.9631,6.48671c0.17887,0.8469 1.14258,1.59532 1.87045,2.24849c6.76815,6.07368 6.77617,6.06475 7.80035,14.12125c1.27687,-0.73931 2.26213,-1.56624 3.3945,-1.91362c2.597,-0.79672 5.25032,-1.84209 7.90825,-1.92707c8.05349,-0.25752 16.12015,-0.09457 24.18114,-0.16062c0.29701,-0.00243 0.58843,-0.68674 1.20136,-1.45086c-5.4039,-4.50272 -4.28032,-9.78701 -1.81865,-15.38071c1.25662,-2.85544 1.50697,-6.16966 2.86335,-8.95995c0.9889,-2.03431 2.93344,-3.67173 4.67135,-5.2435c0.77818,-0.70378 2.09384,-0.81324 3.16559,-1.1924c-6.93677,-1.69737 -9.54915,-6.29749 -10.66438,-12.37677c-0.2911,-1.58685 -1.4294,-2.99915 -1.92799,-4.57112c-0.97615,-3.07759 -1.77591,-6.21113 -2.65106,-10.1672z" id="svg_4"/>
   <path fill="#090909" d="m317.00449,67.91148c-2.57088,-4.77933 10.63967,-6.39595 13.8175,-1.6151c3.17782,4.78085 2.62439,3.52752 3.02439,5.6073c0.49215,2.55919 0.45779,5.3725 -0.04038,7.94192c-1.8237,9.406 -3.47263,18.89353 -6.19272,28.05174c-0.92709,3.12129 -4.35538,6.48205 -7.45596,7.76803c-6.18372,2.56477 -12.92154,3.01259 -19.23532,-0.43714c-2.63947,-1.44216 -4.94882,-3.38253 -3.28617,-6.7311c1.60642,-3.23531 4.39005,-2.89155 7.30664,-1.66372c1.48825,0.62653 3.13282,1.12517 4.7309,1.20655c8.36044,0.4257 10.49631,-1.79545 10.30862,-10.7427c-1.69323,-0.26963 -3.46743,-0.44596 -5.18988,-0.84537c-6.43524,-1.49228 -10.6452,-6.67696 -10.62149,-13.22954c0.02262,-6.25438 0.97254,-12.31095 5.24265,-17.26613c3.88071,-4.5033 13.98097,-2.3539 16.91319,-2.04448c2.93222,0.30942 -5.85832,7.29871 -6.97465,7.55412c-6.71964,1.53739 -5.49701,7.17335 -5.70835,11.50926c-0.07296,1.49739 3.28955,3.16222 5.08277,4.75057c1.01782,-1.5129 2.57022,-2.90246 2.95312,-4.56187c1.14557,-4.96496 -2.10398,-10.47301 -4.67486,-15.25234z" id="svg_5"/>
   <path fill="#0A0A0A" d="m135.40414,82.63548c1.5492,1.75449 3.29496,3.06146 4.05301,4.79929c3.49816,8.0194 1.55259,19.00423 -11.07658,17.74414c-4.68962,-0.46792 -9.44981,-1.91961 -13.73259,-3.89026c-1.57621,-0.72527 -3.28421,-4.59327 -2.74737,-6.48161c0.53684,-1.88834 4.39021,-1.82485 6.45277,-1.58716c2.89814,0.33399 5.61806,2.01091 8.51768,2.62447c1.37796,0.29158 2.9952,-0.5476 4.50403,-0.87455c-0.43985,-1.50901 -0.45975,-3.38828 -1.40068,-4.45554c-2.52051,-2.85889 -5.33264,-5.48831 -8.21455,-7.9955c-6.9822,-6.07435 -9.52743,-13.73256 -8.65531,-22.77891c0.55776,-5.78571 4.65534,-11.74093 9.26648,-13.17741c6.08602,-1.89593 13.70584,0.21207 17.24149,4.77034c1.88631,2.43188 3.04533,5.07326 0.35109,7.52293c-2.48071,2.25553 -4.67165,0.69678 -7.13053,-0.79247c-2.1889,-1.32574 -5.43882,-2.7413 -7.42095,-1.99467c-1.63956,0.6176 -3.19013,4.49598 -2.86656,6.64092c0.58698,3.8912 2.02851,7.93892 4.17477,11.22886c2.12709,3.26056 5.56338,5.667 8.6838,8.69713z" id="svg_6"/>
   <path fill="#0A0A0A" d="m158.89276,92.48724c5.09212,1.9168 9.73296,2.97442 14.81215,0.66838c1.47908,-0.67154 5.64071,0.29945 6.04935,1.53604c0.40864,1.23659 -0.61614,5.18877 -2.07372,6.40087c-7.53071,6.26247 -25.39993,1.73331 -29.8188,-7.13116c-4.72748,-9.48364 -2.32573,-18.48971 2.22542,-26.994c3.02047,-5.64411 10.45994,-6.95746 16.27694,-3.84408c4.41662,2.36385 6.36873,7.77589 3.26372,13.52097c-2.42346,4.48403 -6.69552,7.99505 -10.28482,11.8079c-1.16635,1.23902 -3.72908,1.86107 -0.45024,4.03508m1.21941,-21.5363c-1.7571,2.29815 -3.51418,4.59632 -5.27127,6.89447c0.4976,0.34658 0.99521,0.69314 1.49281,1.03971c2.17909,-2.15515 5.89658,-3.33966 3.77846,-7.93418z" id="svg_7"/>
   <path fill="#0A0A0A" d="m215.09808,52.34807c0.32218,-1.1967 -0.20829,-0.051 0.87989,-2.70861c1.08818,-2.65761 4.11489,-3.62274 6.25259,-3.15875c2.1377,0.464 2.52129,4.17634 2.38225,6.23283c-0.30957,4.579 -1.4863,9.09939 -2.4464,14.39844c3.85506,0 6.96755,-0.08496 10.07324,0.02375c3.14307,0.11001 6.18361,1.4169 5.4236,4.85924c-0.38786,1.75681 -3.42907,3.61938 -5.57981,4.12792c-2.97696,0.70388 -6.24497,0.17675 -9.84327,0.17675c0,7.03452 -0.27084,13.78116 0.11358,20.49027c0.19401,3.38609 0.81338,6.83829 -3.25176,7.67142c-4.55507,0.93351 -5.75319,-2.94546 -5.93556,-6.27168c-0.36341,-6.62891 -0.10765,-13.29177 -0.10765,-19.46769c-0.81299,-0.68319 -1.07306,-1.08151 -1.29512,-1.06135c-3.29526,0.29919 -6.80252,0.41522 -7.54717,-3.69532c-0.77412,-4.27334 3.04038,-4.72185 5.88597,-6.06398c1.42884,-0.67392 2.96614,-2.33838 3.32206,-3.82582c0.88317,-3.69083 1.11532,-7.53745 1.67356,-11.72742z" id="svg_8"/>
   <path fill="#090909" d="m266.53577,99.78095c-1.28467,-1.82417 -2.99903,-3.51026 -2.97602,-5.17231c0.09861,-7.12442 0.55435,-14.25559 1.19013,-21.35652c0.38455,-4.29489 2.55102,-6.37235 7.1543,-4.37142c0.76144,0.33099 2.11315,-0.12061 2.94732,-0.61971c10.52109,-6.29512 20.34815,-1.44137 21.32941,10.75717c0.35867,4.4584 0.13308,8.96906 0.06927,13.45439c-0.04303,3.02276 -1.48178,5.72835 -4.6091,5.11572c-1.75445,-0.34369 -3.95456,-3.02594 -4.30447,-4.9539c-0.70181,-3.86703 0.06119,-7.98261 -0.44739,-11.90921c-0.25983,-2.00615 -1.48982,-5.59443 -3.0115,-5.72936c-1.52168,-0.13493 -4.33417,2.47918 -5.15543,4.31939c-2.27774,5.10373 -4.02801,10.47364 -5.59549,15.85239c-0.97885,3.35901 -2.42795,5.40942 -6.59103,4.61337z" id="svg_9"/>
   <path fill="#0A0A0A" d="m179.53841,67.54895c2.56712,-1.20103 4.8499,-2.13486 7.25992,-3.12076c0.31333,-3.89427 0.61497,-7.85375 0.95556,-11.80987c0.27338,-3.17559 1.66237,-5.68095 5.14919,-5.50203c3.67015,0.18832 4.38401,2.9598 4.11667,6.13051c-0.30575,3.626 -0.57377,7.2552 0.33741,10.30471c1.85767,2.37851 4.42932,4.54895 5.21366,7.24028c0.30409,1.04348 -2.69182,4.40621 -3.56198,4.59611c-0.87016,0.1899 -2.56582,-0.20982 -2.96428,-0.49161c0,5.58847 -0.01548,11.17703 0.01135,16.76538c0.00638,1.3277 0.20987,2.65404 0.22626,3.9822c0.03892,3.1577 -0.2721,6.41816 -4.29543,6.62063c-3.99474,0.20101 -4.79198,-2.87182 -4.89171,-6.11632c-0.16347,-5.3174 -0.27905,-10.63635 -0.39477,-15.95508c-0.03551,-1.63214 -0.00553,-3.26572 -0.00553,-4.8819c-8.26907,-0.2655 -9.78662,-1.88847 -7.15632,-7.76225z" id="svg_10"/>
   <path fill="#0B0B0B" d="m359.49298,72.82237c-6.66528,2.08317 -6.14993,1.97065 -4.74194,8.41961c1.07464,4.92217 1.24222,10.24143 0.70187,15.26447c-0.61301,5.69811 -7.10031,9.73179 -12.20346,8.07731c-1.58591,-0.51416 -3.40353,-2.34187 -3.78342,-3.89413c-0.29431,-1.20258 1.12278,-3.50494 2.40775,-4.29182c4.81885,-2.95087 5.95575,-6.44468 3.98773,-12.31653c-0.97555,-2.9107 -1.71158,-6.08945 -1.63943,-9.12516c0.15896,-6.68939 5.40011,-10.88402 12.06472,-10.21972c4.93494,0.4919 6.18183,3.27422 3.20618,8.08597z" id="svg_11"/>
   <path fill="#0A0A0A" d="m254.11276,103.86185c-1.93933,0.95992 -4.236,2.50233 -5.30644,1.89246c-1.50676,-0.85845 -3.03648,-3.36833 -2.93489,-5.07555c0.54219,-9.111 1.40535,-18.21727 2.64935,-27.25751c0.19933,-1.44863 2.92186,-3.58408 4.40744,-3.52818c1.45847,0.05488 3.90934,2.41555 4.02225,3.90824c0.28305,3.74212 -0.50684,7.56598 -0.87244,11.35647c-0.58922,6.10889 -1.1833,12.21732 -1.96527,18.70407z" id="svg_12"/>
   <path fill="#ffffff" d="m323.53552,71.4877c0.81051,0.96543 -0.7731,6.71116 -1.91867,11.67612c-0.3829,1.65941 -2.1853,4.61146 -2.95312,4.56187c-0.76782,-0.04959 -5.15573,-3.25318 -5.08277,-4.75057c0.21134,-4.33591 1.77953,-11.37885 4.52086,-12.13426c2.74132,-0.75541 2.63885,-0.65913 3.3977,-0.66593c0.75885,-0.0068 1.2255,0.34735 2.03601,1.31278l-0.00001,-0.00001z" id="svg_13"/>
   <path fill="#181818" d="m253.4502,59.60487c-2.10589,-0.66065 -4.25312,-1.13664 -5.45353,-2.46698c-0.60672,-0.67239 0.03191,-3.37417 0.96256,-4.27349c0.93089,-0.89954 3.09903,-1.26225 4.42363,-0.86244c3.15449,0.95215 3.22807,4.05253 0.06734,7.60291z" id="svg_14"/>
   <path fill="#ffffff" d="m80.72096,47.38226c0.87397,3.53323 1.67373,6.66677 2.64988,9.74436c0.49859,1.57197 1.63689,2.98427 1.92799,4.57112c1.11523,6.07928 3.72761,10.6794 10.66438,12.37677c-1.07175,0.37916 -2.38741,0.48862 -3.16559,1.1924c-1.73791,1.57177 -3.68245,3.20919 -4.67135,5.2435c-1.35638,2.79029 -1.60673,6.10451 -2.86335,8.95995c-2.46167,5.5937 -3.58525,10.87799 1.81865,15.38071c-0.61293,0.76412 -0.90435,1.44843 -1.20136,1.45086c-8.06099,0.06605 -16.12765,-0.0969 -24.18114,0.16062c-2.65793,0.08498 -5.31125,1.13035 -7.90825,1.92707c-1.13237,0.34738 -2.11763,1.17431 -3.3945,1.91362c-1.02418,-8.0565 -1.0322,-8.04757 -7.80035,-14.12125c-0.72787,-0.65317 -1.69158,-1.40159 -1.87045,-2.24849c-0.93358,-4.42029 -3.70154,-6.47877 -8.9631,-6.48671c0.95369,-2.11359 1.60557,-3.66427 2.34405,-5.17254c1.47066,-3.00373 3.37072,-5.85955 4.39675,-9.0038c1.4849,-4.55039 2.7321,-9.25341 3.34344,-13.98653c0.38637,-2.99141 -0.70763,-6.14955 -0.85938,-9.24654c-0.064,-1.30608 0.18677,-3.23551 1.0269,-3.80943c0.86486,-0.59081 2.62272,0.1168 3.98714,0.27901c0.14364,0.01707 0.26098,0.26013 0.40413,0.27607c8.41463,0.93664 16.82119,2.32466 25.2525,2.49716c2.46941,0.05052 5.00958,-3.35753 8.13237,-5.62749c0.32236,1.14685 0.62591,2.22678 0.93064,3.72956m-11.22611,48.01306c2.90014,-3.16921 6.31391,-6.01105 8.58807,-9.57923c4.09578,-6.4263 5.59674,-13.82867 2.7286,-20.99762c-2.9842,-7.45901 -20.04678,-11.66737 -27.13821,-7.3522c-8.58035,5.22121 -12.96574,20.40936 -8.487,29.39347c4.58496,9.19718 11.86734,11.94321 24.30854,8.53558z" id="svg_15"/>
   <path fill="#ffffff" d="m160.48404,70.21386c2.93012,-0.64781 -0.06716,9.13298 -3.33271,9.71329c-3.26556,0.58031 -2.10701,-0.66203 -2.776,-1.87526c-0.66899,-1.21323 3.17859,-7.19021 6.10871,-7.83803z" id="svg_16" stroke="null"/>
   <path fill="#090909" d="m69.1521,95.58141c-12.09845,3.22154 -19.38083,0.47551 -23.96579,-8.72167c-4.47874,-8.98411 -0.09335,-24.17226 8.487,-29.39347c7.09143,-4.31517 24.15401,-0.10681 27.13821,7.3522c2.86814,7.16895 1.36718,14.57132 -2.7286,20.99762c-2.27416,3.56818 -5.68793,6.41002 -8.93082,9.76532m-16.20811,-15.51459c1.00259,4.77933 3.54044,7.83496 8.8153,7.59061c5.91131,-0.27383 13.20075,-12.52876 10.65,-17.86775c-0.26988,-0.56491 -0.76455,-1.11446 -1.29501,-1.44913c-8.94763,-5.64517 -14.76982,-5.28169 -17.72703,5.94013c-0.4165,1.58047 -0.32526,3.29474 -0.44326,5.78614z" id="svg_17"/>
   <path fill="#F7F7F7" d="m52.9311,79.64729c0.13089,-2.07187 0.03965,-3.78614 0.45615,-5.36661c2.95721,-11.22182 8.7794,-11.5853 17.72703,-5.94013c0.53046,0.33467 1.02513,0.88422 1.29501,1.44913c2.55075,5.33899 -4.73869,17.59392 -10.65,17.86775c-5.27486,0.24435 -7.81271,-2.81128 -8.82819,-8.01014z" id="svg_18"/>
  </g>
 </g>

</svg>