<svg version="1.1" id="Layer_1" xmlns="http://www.w3.org/2000/svg" xmlns:xlink="http://www.w3.org/1999/xlink" x="0px" y="0px"
	 width="100%" viewBox="0 0 200 80" enable-background="new 0 0 200 80" xml:space="preserve">
<path fill="#F9F9F9" opacity="1.000000" stroke="none" 
	d="
M147.000000,81.000000 
	C98.000008,81.000000 49.500011,81.000000 1.000013,81.000000 
	C1.000009,54.333344 1.000009,27.666685 1.000004,1.000020 
	C67.666649,1.000013 134.333298,1.000013 200.999969,1.000007 
	C200.999969,27.666647 200.999969,54.333294 200.999985,80.999969 
	C183.166672,81.000000 165.333328,81.000000 147.000000,81.000000 
M108.527145,74.929237 
	C125.644386,75.186272 142.791504,74.924950 159.866852,75.909065 
	C169.030594,76.437210 177.237106,73.556129 185.751892,71.603081 
	C187.328827,71.241371 189.023590,69.200615 189.689102,67.543320 
	C190.848450,64.656387 191.597488,61.498726 191.899689,58.394299 
	C192.673340,50.447086 192.955368,42.452446 193.706329,34.502499 
	C195.494583,15.571781 189.097473,7.527173 170.017822,7.120230 
	C151.226227,6.719431 132.409760,7.625676 113.602760,7.768432 
	C90.982658,7.940132 68.360916,7.883183 45.740131,7.983004 
	C36.747334,8.022687 27.748625,8.044456 18.764565,8.387501 
	C8.812769,8.767497 4.825140,12.805426 4.601075,22.531090 
	C4.490057,27.349888 4.847563,32.179356 4.988880,37.004120 
	C5.247246,45.825043 5.309284,54.657177 5.815998,63.463760 
	C6.277844,71.490562 9.980688,74.707062 17.883249,74.772270 
	C20.377771,74.792854 22.870110,75.022377 25.364988,75.064163 
	C40.949024,75.325188 56.533344,75.733803 72.117867,75.747017 
	C83.927666,75.757034 95.737900,75.251991 108.527145,74.929237 
z"/>
<path fill="#0C0C0C" opacity="1.000000" stroke="none" 
	d="
M108.037537,74.952698 
	C95.737900,75.251991 83.927666,75.757034 72.117867,75.747017 
	C56.533344,75.733803 40.949024,75.325188 25.364988,75.064163 
	C22.870110,75.022377 20.377771,74.792854 17.883249,74.772270 
	C9.980688,74.707062 6.277844,71.490562 5.815998,63.463760 
	C5.309284,54.657177 5.247246,45.825043 4.988880,37.004120 
	C4.847563,32.179356 4.490057,27.349888 4.601075,22.531090 
	C4.825140,12.805426 8.812769,8.767497 18.764565,8.387501 
	C27.748625,8.044456 36.747334,8.022687 45.740131,7.983004 
	C68.360916,7.883183 90.982658,7.940132 113.602760,7.768432 
	C132.409760,7.625676 151.226227,6.719431 170.017822,7.120230 
	C189.097473,7.527173 195.494583,15.571781 193.706329,34.502499 
	C192.955368,42.452446 192.673340,50.447086 191.899689,58.394299 
	C191.597488,61.498726 190.848450,64.656387 189.689102,67.543320 
	C189.023590,69.200615 187.328827,71.241371 185.751892,71.603081 
	C177.237106,73.556129 169.030594,76.437210 159.866852,75.909065 
	C142.791504,74.924950 125.644386,75.186272 108.037537,74.952698 
M39.077896,15.004245 
	C32.461288,15.010023 25.842993,14.925302 19.228565,15.048356 
	C13.237127,15.159820 11.126937,17.200205 11.177104,23.206747 
	C11.229440,29.472887 11.703881,35.735504 11.781951,42.916607 
	C11.964572,49.405888 11.988051,55.905430 12.405365,62.379581 
	C12.581009,65.104515 12.945190,67.883354 17.114862,68.074371 
	C37.179626,68.993523 57.146938,71.255386 77.344009,68.947548 
	C89.858574,67.517548 102.605072,67.991875 115.249985,67.867432 
	C125.543991,67.766129 135.854965,67.758644 146.134293,68.232719 
	C157.400391,68.752312 168.574234,70.307526 179.673706,66.279961 
	C182.671768,65.192078 184.488449,64.021019 184.694382,61.203644 
	C185.578842,49.103363 186.595062,36.993011 186.811493,24.872906 
	C186.903198,19.737177 183.764313,15.696060 178.081345,14.906132 
	C172.983871,14.197586 167.839798,13.247618 162.728836,13.317820 
	C145.256241,13.557813 127.791489,14.324273 110.319283,14.651472 
	C95.347282,14.931849 80.369164,14.885915 65.393738,14.982718 
	C56.931564,15.037418 48.469376,15.088937 39.077896,15.004245 
z"/>
<path fill="#F7F7F7" opacity="1.000000" stroke="none" 
	d="
M40.007195,15.141888 
	C48.469376,15.088937 56.931564,15.037418 65.393738,14.982718 
	C80.369164,14.885915 95.347282,14.931849 110.319283,14.651472 
	C127.791489,14.324273 145.256241,13.557813 162.728836,13.317820 
	C167.839798,13.247618 172.983871,14.197586 178.081345,14.906132 
	C183.764313,15.696060 186.903198,19.737177 186.811493,24.872906 
	C186.595062,36.993011 185.578842,49.103363 184.694382,61.203644 
	C184.488449,64.021019 182.671768,65.192078 179.673706,66.279961 
	C168.574234,70.307526 157.400391,68.752312 146.134293,68.232719 
	C135.854965,67.758644 125.543991,67.766129 115.249985,67.867432 
	C102.605072,67.991875 89.858574,67.517548 77.344009,68.947548 
	C57.146938,71.255386 37.179626,68.993523 17.114862,68.074371 
	C12.945190,67.883354 12.581009,65.104515 12.405365,62.379581 
	C11.988051,55.905430 11.964572,49.405888 12.217138,42.458866 
	C13.310772,42.003761 13.969218,42.006397 14.669617,42.420444 
	C14.790704,46.110638 15.045255,49.068581 19.114182,50.249912 
	C20.213701,50.569138 21.405369,53.005741 21.351210,54.424515 
	C21.159977,59.434063 24.704556,63.108341 29.603706,61.748394 
	C33.660179,60.622360 36.782009,61.303978 40.275368,63.521446 
	C44.581356,66.254745 52.028275,63.444340 51.427433,59.544872 
	C50.722775,54.971607 52.957829,53.371010 56.386078,51.715343 
	C60.519001,49.719368 61.806320,42.660015 58.330151,40.339046 
	C54.838688,38.007874 55.461269,35.799591 56.982742,32.849823 
	C59.378136,28.205738 56.262814,23.458000 51.088020,23.951569 
	C47.048019,24.336903 44.044025,23.367266 42.332241,19.384066 
	C41.906059,18.392378 40.801357,17.692284 40.012501,16.572128 
	C40.013382,15.904691 40.010288,15.523290 40.007195,15.141888 
M173.037094,49.066219 
	C172.441925,46.505421 172.479019,43.510612 171.093597,41.492260 
	C169.309586,38.893242 166.647156,35.801968 163.888397,35.235840 
	C160.180557,34.474949 159.273697,38.557468 158.574295,41.649426 
	C158.323349,42.758770 158.291489,43.917660 157.429886,45.191025 
	C156.222244,43.405544 155.302750,41.285519 153.726562,39.927872 
	C152.122971,38.546608 149.753540,36.911175 147.925537,37.127613 
	C139.056091,38.177742 138.524979,39.225498 140.368347,48.214279 
	C140.633987,49.509583 140.424652,51.059052 141.077911,52.079357 
	C141.940430,53.426525 143.437637,54.367332 144.662018,55.482819 
	C145.763321,54.234482 147.344315,53.151268 147.845169,51.696247 
	C148.479294,49.854034 148.234894,47.709423 148.369385,45.695229 
	C150.698502,47.550468 151.545349,49.783043 153.039932,51.426544 
	C155.576614,54.215958 157.357239,51.864750 159.555298,50.650410 
	C161.913239,51.256001 164.271179,51.861591 167.405396,52.666553 
	C166.770905,54.042679 165.940674,55.602139 165.329453,57.243172 
	C164.814896,58.624699 163.817078,60.610718 164.367462,61.407635 
	C165.069656,62.424358 167.282532,63.196270 168.549454,62.882690 
	C173.378540,61.687431 174.063904,57.919292 174.107147,54.155766 
	C175.642899,54.144138 177.527985,54.702991 178.650116,54.015881 
	C182.281418,51.792343 183.676620,45.542408 181.975464,41.567284 
	C181.555557,40.586063 181.699692,39.367813 181.558655,38.261818 
	C181.370865,36.789169 181.573853,34.359215 180.867111,34.053059 
	C179.484299,33.454037 177.197525,33.448624 175.979111,34.251247 
	C172.704575,36.408363 172.172607,39.988403 174.301468,42.963825 
	C176.572632,46.138184 175.619720,47.934002 173.037094,49.066219 
M105.712372,52.310188 
	C109.821770,53.020142 109.821770,53.020142 111.497894,42.402393 
	C113.926117,42.617256 116.361580,42.832764 119.148872,43.079403 
	C119.364998,45.298920 119.198769,47.537346 119.882225,49.476265 
	C120.536560,51.332554 122.073631,52.877686 123.222733,54.559578 
	C124.259186,52.761448 125.941864,51.046040 126.185028,49.146366 
	C126.578323,46.073792 126.025467,42.880108 125.917946,40.676056 
	C127.874046,38.758934 129.269897,37.390903 130.665741,36.022869 
	C129.073837,34.420376 127.481918,32.817886 125.890007,31.215395 
	C126.014694,31.155504 126.139381,31.095615 126.264076,31.035725 
	C124.742180,29.050001 123.220284,27.064278 121.698395,25.078556 
	C120.157303,27.065552 118.616211,29.052546 117.075119,31.039541 
	C117.333755,31.224438 117.592392,31.409334 117.851028,31.594231 
	C115.719872,32.308502 113.588722,33.022774 112.406235,33.419090 
	C110.950340,31.227139 109.658607,29.282351 108.366882,27.337566 
	C106.786186,29.500233 105.205498,31.662899 103.624809,33.825565 
	C103.878754,34.320210 104.132698,34.814857 104.386642,35.309502 
	C102.460304,35.086967 100.510902,34.572815 98.614014,34.722778 
	C96.663216,34.877010 94.167770,35.104290 92.981895,36.333267 
	C91.221962,38.157177 90.030128,40.776932 89.272217,43.263863 
	C88.036621,47.318176 88.437088,51.332096 92.318268,53.957870 
	C96.371147,56.699799 99.876945,55.211426 103.641441,51.991600 
	C104.109421,51.988201 104.577408,51.984806 105.712372,52.310188 
M70.108459,24.425623 
	C63.934238,34.278603 68.402458,39.576042 78.788704,42.648895 
	C76.209106,43.951355 74.176468,44.283161 72.369812,45.109211 
	C71.327209,45.585915 70.083542,46.795670 69.968811,47.794735 
	C69.857056,48.767929 70.813423,50.344170 71.744675,50.870892 
	C75.181412,52.814754 82.428902,49.966305 84.259743,46.181190 
	C86.145721,42.282089 84.397018,37.439228 80.154358,35.255630 
	C78.285103,34.293568 76.244820,33.663803 73.206360,32.455261 
	C74.987015,31.100651 76.225769,30.379475 77.164749,29.377409 
	C77.988312,28.498520 79.135361,27.166832 78.950951,26.283197 
	C78.698128,25.071754 77.443726,23.352417 76.400909,23.181913 
	C74.598511,22.887211 72.628754,23.616169 70.108459,24.425623 
M131.978088,52.315136 
	C133.455048,53.233288 134.932007,54.151440 136.408951,55.069592 
	C137.080795,53.530636 138.226944,52.016102 138.307770,50.446712 
	C138.415543,48.353893 138.003036,46.092602 137.209274,44.150879 
	C136.768875,43.073570 134.822647,41.644829 134.044281,41.895191 
	C132.820969,42.288681 131.342957,43.876888 131.176300,45.120499 
	C130.900986,47.175049 131.584778,49.358128 131.978088,52.315136 
M134.716766,27.586428 
	C133.880829,28.781244 132.738297,29.893396 132.381317,31.217356 
	C132.262268,31.658909 134.087570,33.072449 135.148697,33.236794 
	C135.937256,33.358921 137.775009,31.877605 137.687683,31.634752 
	C137.168839,30.192051 136.225128,28.902147 134.716766,27.586428 
z"/>
<path fill="#EEEEEE" opacity="1.000000" stroke="none" 
	d="
M14.627664,42.009033 
	C13.969218,42.006397 13.310772,42.003761 12.323053,42.000393 
	C11.703881,35.735504 11.229440,29.472887 11.177104,23.206747 
	C11.126937,17.200205 13.237127,15.159820 19.228565,15.048356 
	C25.842993,14.925302 32.461288,15.010023 39.542545,15.073067 
	C40.010288,15.523290 40.013382,15.904691 39.581692,16.586460 
	C36.839626,17.404028 33.599667,17.161453 32.426048,18.602154 
	C30.221779,21.308062 27.982578,21.979103 24.824654,21.699583 
	C18.745148,21.161467 15.149673,26.644722 17.470043,32.311974 
	C18.032124,33.684799 17.536686,35.678246 17.054296,37.240150 
	C16.535658,38.919418 15.460176,40.426708 14.627664,42.009033 
z"/>
<path fill="#0A0A0A" opacity="1.000000" stroke="none" 
	d="
M14.669617,42.420448 
	C15.460176,40.426708 16.535658,38.919418 17.054296,37.240150 
	C17.536686,35.678246 18.032124,33.684799 17.470043,32.311974 
	C15.149673,26.644722 18.745148,21.161467 24.824654,21.699583 
	C27.982578,21.979103 30.221779,21.308062 32.426048,18.602154 
	C33.599667,17.161453 36.839626,17.404028 39.577721,16.872498 
	C40.801357,17.692284 41.906059,18.392378 42.332241,19.384066 
	C44.044025,23.367266 47.048019,24.336903 51.088020,23.951569 
	C56.262814,23.458000 59.378136,28.205738 56.982742,32.849823 
	C55.461269,35.799591 54.838688,38.007874 58.330151,40.339046 
	C61.806320,42.660015 60.519001,49.719368 56.386078,51.715343 
	C52.957829,53.371010 50.722775,54.971607 51.427433,59.544872 
	C52.028275,63.444340 44.581356,66.254745 40.275368,63.521446 
	C36.782009,61.303978 33.660179,60.622360 29.603706,61.748394 
	C24.704556,63.108341 21.159977,59.434063 21.351210,54.424515 
	C21.405369,53.005741 20.213701,50.569138 19.114182,50.249912 
	C15.045255,49.068581 14.790704,46.110638 14.669617,42.420448 
M41.312363,28.882265 
	C38.694279,27.035414 36.174950,25.568897 32.677704,27.162424 
	C29.631577,28.550402 25.802038,28.614666 25.014263,33.476837 
	C25.012476,33.660263 25.010687,33.843689 24.899099,34.824554 
	C24.140511,37.555725 23.381924,40.286896 22.540554,43.316109 
	C23.701197,44.553951 25.350441,46.312893 27.089798,48.690254 
	C27.713732,49.122929 28.337666,49.555607 28.918522,50.786594 
	C29.899036,51.633793 30.757120,52.949097 31.882252,53.243378 
	C35.783817,54.263824 39.778179,54.929478 43.122318,55.605766 
	C46.025284,51.914852 48.721859,48.486343 50.822586,45.815418 
	C49.819351,40.973698 48.904118,36.556705 47.963535,32.017345 
	C46.104633,31.127846 44.044937,30.142263 41.312363,28.882265 
z"/>
<path fill="#0B0B0B" opacity="1.000000" stroke="none" 
	d="
M102.939415,51.975101 
	C99.876945,55.211426 96.371147,56.699799 92.318268,53.957870 
	C88.437088,51.332096 88.036621,47.318176 89.272217,43.263863 
	C90.030128,40.776932 91.221962,38.157177 92.981895,36.333267 
	C94.167770,35.104290 96.663216,34.877010 98.614014,34.722778 
	C100.510902,34.572815 102.460304,35.086967 104.386642,35.309502 
	C104.132698,34.814857 103.878754,34.320210 103.624809,33.825565 
	C105.205498,31.662899 106.786186,29.500233 108.366882,27.337564 
	C109.658607,29.282351 110.950340,31.227139 112.406235,33.419090 
	C113.588722,33.022774 115.719872,32.308502 117.851028,31.594231 
	C117.592392,31.409334 117.333755,31.224438 117.075119,31.039541 
	C118.616211,29.052546 120.157303,27.065552 121.698395,25.078556 
	C123.220284,27.064278 124.742180,29.050001 126.264076,31.035725 
	C126.139381,31.095615 126.014694,31.155504 125.890007,31.215395 
	C127.481918,32.817886 129.073837,34.420376 130.665741,36.022869 
	C129.269897,37.390903 127.874046,38.758934 125.917946,40.676056 
	C126.025467,42.880108 126.578323,46.073792 126.185028,49.146366 
	C125.941864,51.046040 124.259186,52.761448 123.222733,54.559578 
	C122.073631,52.877686 120.536560,51.332554 119.882225,49.476265 
	C119.198769,47.537346 119.364998,45.298920 119.148872,43.079403 
	C116.361580,42.832764 113.926117,42.617256 111.497894,42.402393 
	C109.821770,53.020142 109.821770,53.020142 105.302902,51.744926 
	C104.687431,49.237000 104.233841,47.281540 104.333473,45.354683 
	C104.482689,42.468983 103.597382,40.973827 100.424576,41.411221 
	C99.322678,43.167042 98.209473,44.940899 96.948967,46.949459 
	C100.344765,47.138485 103.780968,47.192894 102.939415,51.975101 
z"/>
<path fill="#0D0D0D" opacity="1.000000" stroke="none" 
	d="
M70.418831,24.170652 
	C72.628754,23.616169 74.598511,22.887211 76.400909,23.181913 
	C77.443726,23.352417 78.698128,25.071754 78.950951,26.283197 
	C79.135361,27.166832 77.988312,28.498520 77.164749,29.377409 
	C76.225769,30.379475 74.987015,31.100651 73.206360,32.455261 
	C76.244820,33.663803 78.285103,34.293568 80.154358,35.255630 
	C84.397018,37.439228 86.145721,42.282089 84.259743,46.181190 
	C82.428902,49.966305 75.181412,52.814754 71.744675,50.870892 
	C70.813423,50.344170 69.857056,48.767929 69.968811,47.794735 
	C70.083542,46.795670 71.327209,45.585915 72.369812,45.109211 
	C74.176468,44.283161 76.209106,43.951355 78.788704,42.648895 
	C68.402458,39.576042 63.934238,34.278603 70.418831,24.170652 
z"/>
<path fill="#060606" opacity="1.000000" stroke="none" 
	d="
M158.159637,45.053940 
	C158.291489,43.917660 158.323349,42.758770 158.574295,41.649426 
	C159.273697,38.557468 160.180557,34.474949 163.888397,35.235840 
	C166.647156,35.801968 169.309586,38.893242 171.093597,41.492260 
	C172.479019,43.510612 172.441925,46.505421 173.012985,49.789909 
	C173.143951,51.553493 173.299026,52.593388 173.454102,53.633282 
	C174.063904,57.919292 173.378540,61.687431 168.549454,62.882690 
	C167.282532,63.196270 165.069656,62.424358 164.367462,61.407635 
	C163.817078,60.610718 164.814896,58.624699 165.329453,57.243172 
	C165.940674,55.602139 166.770905,54.042679 167.405396,52.666553 
	C164.271179,51.861591 161.913239,51.256001 159.305481,49.999191 
	C158.756989,47.916626 158.458313,46.485283 158.159637,45.053940 
z"/>
<path fill="#111111" opacity="1.000000" stroke="none" 
	d="
M157.794769,45.122482 
	C158.458313,46.485283 158.756989,47.916626 159.051636,49.675499 
	C157.357239,51.864750 155.576614,54.215958 153.039932,51.426544 
	C151.545349,49.783043 150.698502,47.550468 148.369385,45.695229 
	C148.234894,47.709423 148.479294,49.854034 147.845169,51.696247 
	C147.344315,53.151268 145.763321,54.234482 144.662018,55.482819 
	C143.437637,54.367332 141.940430,53.426525 141.077911,52.079357 
	C140.424652,51.059052 140.633987,49.509583 140.368347,48.214279 
	C138.524979,39.225498 139.056091,38.177742 147.925537,37.127613 
	C149.753540,36.911175 152.122971,38.546608 153.726562,39.927872 
	C155.302750,41.285519 156.222244,43.405544 157.794769,45.122482 
z"/>
<path fill="#121212" opacity="1.000000" stroke="none" 
	d="
M173.780624,53.894524 
	C173.299026,52.593388 173.143951,51.553493 173.025848,50.174866 
	C175.619720,47.934002 176.572632,46.138184 174.301468,42.963825 
	C172.172607,39.988403 172.704575,36.408363 175.979111,34.251247 
	C177.197525,33.448624 179.484299,33.454037 180.867111,34.053059 
	C181.573853,34.359215 181.370865,36.789169 181.558655,38.261818 
	C181.699692,39.367813 181.555557,40.586063 181.975464,41.567284 
	C183.676620,45.542408 182.281418,51.792343 178.650116,54.015881 
	C177.527985,54.702991 175.642899,54.144138 173.780624,53.894524 
z"/>
<path fill="#101010" opacity="1.000000" stroke="none" 
	d="
M131.921234,51.901089 
	C131.584778,49.358128 130.900986,47.175049 131.176300,45.120499 
	C131.342957,43.876888 132.820969,42.288681 134.044281,41.895191 
	C134.822647,41.644829 136.768875,43.073570 137.209274,44.150879 
	C138.003036,46.092602 138.415543,48.353893 138.307770,50.446712 
	C138.226944,52.016102 137.080795,53.530636 136.408966,55.069592 
	C134.932007,54.151440 133.455048,53.233288 131.921234,51.901089 
z"/>
<path fill="#E4E4E4" opacity="1.000000" stroke="none" 
	d="
M103.290428,51.983353 
	C103.780968,47.192894 100.344765,47.138485 96.948967,46.949459 
	C98.209473,44.940899 99.322678,43.167042 100.424576,41.411221 
	C103.597382,40.973827 104.482689,42.468983 104.333473,45.354683 
	C104.233841,47.281540 104.687431,49.237000 104.969414,51.580536 
	C104.577408,51.984806 104.109421,51.988201 103.290428,51.983353 
z"/>
<path fill="#1E1E1E" opacity="1.000000" stroke="none" 
	d="
M135.070465,27.573666 
	C136.225128,28.902147 137.168839,30.192051 137.687683,31.634752 
	C137.775009,31.877605 135.937256,33.358921 135.148697,33.236794 
	C134.087570,33.072449 132.262268,31.658909 132.381317,31.217356 
	C132.738297,29.893396 133.880829,28.781244 135.070465,27.573666 
z"/>
<path fill="#0B0B0B" opacity="1.000000" stroke="none" 
	d="
M25.008900,34.027115 
	C25.010687,33.843689 25.012476,33.660263 25.393539,33.259041 
	C30.114536,29.052870 35.407352,30.077936 40.758911,30.508963 
	C42.319283,32.202591 43.844894,33.495888 44.957279,35.079464 
	C47.486782,38.680428 48.383564,42.675888 45.995300,46.637966 
	C43.577137,50.649658 39.547894,51.451324 35.202259,50.987705 
	C33.110310,50.764523 31.041105,50.328125 28.961599,49.988281 
	C28.337666,49.555607 27.713732,49.122929 27.338667,48.177399 
	C26.727991,43.118736 25.868444,38.572926 25.008900,34.027115 
M32.784046,37.783680 
	C32.847542,38.930141 32.549076,40.285751 33.061592,41.172764 
	C33.783115,42.421497 34.955357,43.856968 36.216766,44.212543 
	C37.331268,44.526711 39.678200,43.767979 39.963985,42.951790 
	C40.395695,41.718853 39.989124,39.265701 39.078869,38.689423 
	C37.372845,37.609341 35.050797,37.502293 32.784046,37.783680 
z"/>
<path fill="#E0E0E0" opacity="1.000000" stroke="none" 
	d="
M28.940060,50.387436 
	C31.041105,50.328125 33.110310,50.764523 35.202259,50.987705 
	C39.547894,51.451324 43.577137,50.649658 45.995300,46.637966 
	C48.383564,42.675888 47.486782,38.680428 44.957279,35.079464 
	C43.844894,33.495888 42.319283,32.202591 41.039886,30.383858 
	C41.394070,29.712376 41.689651,29.434528 41.985237,29.156681 
	C44.044937,30.142263 46.104633,31.127846 47.963535,32.017345 
	C48.904118,36.556705 49.819351,40.973698 50.822586,45.815418 
	C48.721859,48.486343 46.025284,51.914852 43.122318,55.605766 
	C39.778179,54.929478 35.783817,54.263824 31.882252,53.243378 
	C30.757120,52.949097 29.899036,51.633793 28.940060,50.387436 
z"/>
<path fill="#E4E4E4" opacity="1.000000" stroke="none" 
	d="
M41.648800,29.019474 
	C41.689651,29.434528 41.394070,29.712376 40.817505,30.115326 
	C35.407352,30.077936 30.114536,29.052870 25.399998,32.983963 
	C25.802038,28.614666 29.631577,28.550402 32.677704,27.162424 
	C36.174950,25.568897 38.694279,27.035414 41.648800,29.019474 
z"/>
<path fill="#DADADA" opacity="1.000000" stroke="none" 
	d="
M24.953999,34.425835 
	C25.868444,38.572926 26.727991,43.118736 27.293610,47.868191 
	C25.350441,46.312893 23.701197,44.553951 22.540554,43.316109 
	C23.381924,40.286896 24.140511,37.555725 24.953999,34.425835 
z"/>
<path fill="#EFEFEF" opacity="1.000000" stroke="none" 
	d="
M32.884514,37.387100 
	C35.050797,37.502293 37.372845,37.609341 39.078869,38.689423 
	C39.989124,39.265701 40.395695,41.718853 39.963985,42.951790 
	C39.678200,43.767979 37.331268,44.526711 36.216766,44.212543 
	C34.955357,43.856968 33.783115,42.421497 33.061592,41.172764 
	C32.549076,40.285751 32.847542,38.930141 32.884514,37.387100 
z"/>
</svg>