<svg width="400" height="150" xmlns="http://www.w3.org/2000/svg" xml:space="preserve" enable-background="new 0 0 400 150" version="1.1">

 <g>
  <title>Layer 1</title>
  <g id="svg_12">
   <path id="svg_2" d="m44.44701,140.48578c-7.15732,-0.05865 -13.82955,0.06348 -20.47186,-0.32542c-8.4186,-0.49289 -11.64757,-4.34542 -11.85379,-12.73525c-0.45377,-18.46027 -0.30058,-36.98169 -1.84785,-55.35581c-1.53536,-18.23276 -1.49116,-36.18779 1.85446,-54.18388c1.45668,-7.8355 4.3691,-10.74367 12.13726,-10.85935c19.6452,-0.29255 39.29053,-0.59769 58.93348,-1.00938c8.7689,-0.18378 17.54097,-1.0474 26.29579,-0.86084c10.78683,0.22985 21.55977,1.19422 32.33405,1.91112c16.60391,1.10481 33.18933,2.62171 49.80968,3.30692c15.96411,0.65815 31.9689,0.82986 47.94386,0.54523c10.27209,-0.18302 20.5121,-1.75122 30.7863,-2.37c7.44473,-0.44837 14.92224,-0.50005 22.38452,-0.48144c24.98957,0.06231 49.97888,0.23199 74.9682,0.37464c1.66251,0.00949 3.35096,-0.02824 4.98233,0.23483c13.78315,2.22261 15.64035,4.43894 15.64502,18.40086c0.00669,19.98699 0.5188,39.99038 -0.13736,59.95545c-0.46872,14.26152 -2.32245,28.49159 -3.90405,42.69718c-0.93939,8.43733 -3.65909,10.38774 -12.06738,10.52948c-21.90674,0.36926 -43.91907,-0.37389 -65.69278,1.55038c-34.80368,3.07581 -69.58576,1.39922 -104.36725,1.62633c-16.42278,0.10725 -32.8472,-2.31738 -49.29146,-2.69218c-25.31071,-0.57689 -50.63902,-0.41175 -75.96009,-0.48958c-10.66061,-0.03278 -21.32179,0.11748 -32.48108,0.23071m273.49743,-123.2377c-7.49835,-0.00025 -14.99747,-0.06684 -22.49487,0.01718c-8.12989,0.0911 -16.27359,0.06961 -24.38306,0.56173c-8.61197,0.52262 -17.18301,2.1839 -25.78574,2.29656c-17.81404,0.23329 -35.64518,0.039 -53.45416,-0.48967c-15.13989,-0.44943 -30.26617,-1.49922 -45.38414,-2.5001c-11.93098,-0.78988 -23.82544,-2.27063 -35.76413,-2.75637c-8.07334,-0.32847 -16.19246,0.6762 -24.29607,0.84237c-20.3123,0.41653 -40.62694,0.7356 -60.942,0.98062c-2.66426,0.03213 -3.93131,0.78824 -4.16522,3.59042c-0.88454,10.59624 -2.8891,21.19405 -2.72186,31.76354c0.36559,23.10401 1.93766,46.18639 2.74213,69.28716c0.36097,10.36542 0.06171,10.547 10.72258,10.54184c21.99139,-0.01063 43.98265,-0.31506 65.97404,-0.324c18.49178,-0.00752 36.99417,-0.10871 55.47252,0.46045c17.77652,0.54753 35.52754,2.71707 53.29091,2.73114c36.44299,0.02888 72.89256,1.28801 109.32438,-2.50734c17.91575,-1.8664 36.16044,-0.65332 54.25617,-0.64302c3.27731,0.00188 4.84894,-0.81 5.13986,-4.28578c1.13736,-13.5878 3.14655,-27.13833 3.56787,-40.74185c0.60819,-19.63673 0.11478,-39.3075 0.09592,-58.96376c-0.00729,-7.61789 -0.25253,-7.93517 -7.7356,-9.20815c-1.14093,-0.19409 -2.31732,-0.23691 -3.47827,-0.24726c-16.32699,-0.14564 -32.65414,-0.27352 -49.98126,-0.40571z" fill="#080808"/>
   <path id="svg_3" d="m318.44444,17.24808c16.82712,0.13219 33.15427,0.26007 49.48126,0.40571c1.16095,0.01035 2.33734,0.05317 3.47827,0.24726c7.48307,1.27298 7.72831,1.59026 7.7356,9.20815c0.01886,19.65626 0.51227,39.32703 -0.09592,58.96376c-0.42132,13.60352 -2.43051,27.15405 -3.56787,40.74185c-0.29092,3.47578 -1.86255,4.28766 -5.13986,4.28578c-18.09573,-0.0103 -36.34042,-1.22338 -54.25617,0.64302c-36.43182,3.79535 -72.88139,2.53622 -109.32438,2.50734c-17.76337,-0.01407 -35.51439,-2.18361 -53.29091,-2.73114c-18.47835,-0.56916 -36.98074,-0.46797 -55.47252,-0.46045c-21.99139,0.00894 -43.98265,0.31337 -65.97404,0.324c-10.66087,0.00516 -10.36161,-0.17642 -10.72258,-10.54184c-0.80447,-23.10077 -2.37654,-46.18315 -2.74213,-69.28716c-0.16724,-10.56949 1.83732,-21.1673 2.72186,-31.76354c0.23391,-2.80218 1.50096,-3.55829 4.16522,-3.59042c20.31506,-0.24502 40.6297,-0.56409 60.942,-0.98062c8.10361,-0.16617 16.22273,-1.17084 24.29607,-0.84237c11.93869,0.48574 23.83315,1.96649 35.76413,2.75637c15.11797,1.00088 30.24425,2.05067 45.38414,2.5001c17.80898,0.52867 35.64012,0.72296 53.45416,0.48967c8.60273,-0.11266 17.17377,-1.77394 25.78574,-2.29656c8.10947,-0.49212 16.25317,-0.47063 24.38306,-0.56173c7.4974,-0.08402 14.99652,-0.01743 22.99487,-0.01718m-88.87207,81.73787c5.05096,0.62482 6.48816,-0.68769 6.99451,-5.649c0.61912,-6.0661 1.0697,-12.21538 2.50384,-18.10701c0.82929,-3.40677 3.27284,-3.98174 6.11308,-0.64216c3.84266,4.51823 3.94735,9.67888 3.98194,15.04257c0.01906,2.95494 1.10506,5.47879 4.45344,5.52737c3.31571,0.04812 4.53769,-2.39899 4.68784,-5.36019c0.39746,-7.84096 -0.70279,-15.13917 -6.10275,-21.49697c-5.88065,-6.92373 -12.26474,-7.58939 -18.72431,-1.42669c-0.91191,0.87 -2.66093,1.92724 -3.53969,1.60028c-7.59163,-2.82476 -14.30479,-1.06536 -19.28166,2.68639c-2.83044,-2.01189 -5.04226,-4.87061 -7.24585,-4.86429c-3.79174,0.01089 -3.97154,3.81786 -3.862,6.89716c0.26017,7.31276 0.54737,14.6268 0.99926,21.92945c0.1902,3.07363 1.58889,5.7142 5.08752,5.69579c3.52127,-0.01852 4.47134,-2.5748 4.90263,-5.75122c0.51183,-3.76976 1.35242,-7.53944 2.50063,-11.16669c1.35661,-4.28565 4.32918,-7.06964 9.03339,-7.48722c2.66455,-0.23654 4.57078,0.44136 4.51612,3.72867c-0.06079,3.65582 -0.11755,7.34213 0.28168,10.96473c0.27722,2.51555 1.32781,4.94587 2.70038,7.87903m-44.53183,-27.48116c-2.34171,-1.99586 -4.39305,-5.02909 -7.08267,-5.78185c-6.55292,-1.83405 -13.07588,-0.85753 -19.19237,4.39523c0,-4.02188 -0.07036,-6.96567 0.01665,-9.9048c0.12796,-4.32253 0.48556,-8.64077 0.52133,-12.96269c0.02573,-3.10994 -1.11755,-5.8401 -4.74561,-5.77619c-3.33938,0.05883 -4.30519,2.62931 -4.40562,5.57434c-0.02835,0.83155 -0.00871,1.66462 -0.02139,2.49683c-0.2078,13.62493 -0.32697,27.25202 -0.65834,40.87395c-0.21675,8.91026 2.17984,10.65602 10.0599,6.80549c1.84569,0.99182 3.69226,2.13851 5.65935,3.01455c8.75958,3.90108 24.01735,0.71577 22.50986,-13.83081c-0.49341,-4.76112 -1.53801,-9.46512 -2.66109,-14.90405m-116.93633,20.5215c-4.18676,-0.25844 -8.37227,-0.66155 -12.56097,-0.69807c-1.49648,-0.01306 -3.66847,0.42443 -4.33255,1.44038c-0.83207,1.27296 -1.1988,4.01716 -0.39786,4.94505c1.61674,1.87301 4.23815,4.24061 6.30235,4.11199c6.36233,-0.39645 13.2661,-0.57569 18.852,-3.19827c11.64727,-5.46839 11.89957,-23.12496 1.09043,-30.05981c-3.07895,-1.97536 -6.31158,-3.74163 -9.23127,-5.92762c-4.32302,-3.23665 -4.02413,-7.00644 0.98423,-9.07518c3.93445,-1.62516 8.24567,-2.399 12.44218,-3.30788c2.88108,-0.62399 5.76083,-1.82478 4.86793,-4.93346c-0.51931,-1.80799 -3.92118,-4.32698 -5.53381,-4.01135c-6.43548,1.25962 -13.19963,2.54456 -18.86501,5.62008c-7.79298,4.23052 -8.4365,14.73886 -1.88207,20.92871c3.21044,3.03187 7.16113,5.36249 11.01037,7.61055c3.39558,1.98309 5.26084,4.42101 4.64041,8.45737c-0.61019,3.9697 -2.56543,6.77583 -7.38636,8.09751m59.70414,6.70207c2.69084,0.60583 5.54747,2.04367 8.01944,1.55108c1.93571,-0.38573 3.39488,-3.16288 5.06578,-4.87753c-1.74268,-1.37958 -3.41091,-2.87364 -5.26612,-4.08019c-0.70327,-0.45736 -1.83741,-0.25219 -3.25676,-0.39871c0,-2.41294 -0.20001,-4.56312 0.04526,-6.66124c0.40277,-3.44536 1.34648,-6.83928 1.58858,-10.28812c0.21312,-3.03595 -0.98265,-6.25571 -4.44286,-5.89433c-1.88365,0.19673 -3.82251,2.81897 -5.11224,4.76167c-0.93866,1.41388 -0.79195,3.52217 -1.23949,5.29298c-1.52981,6.0532 -5.6,10.17682 -10.83748,12.9954c-4.77347,2.56886 -7.93268,0.2732 -7.35766,-5.05915c0.39062,-3.62245 1.10216,-7.21393 1.75996,-10.80281c0.56795,-3.09859 0.23658,-6.33816 -3.2687,-6.52907c-1.81751,-0.09898 -4.97775,2.34733 -5.46815,4.19221c-1.39453,5.24619 -2.25128,10.76481 -2.34922,16.19371c-0.12519,6.93941 5.59015,12.67384 12.42874,11.90064c5.48884,-0.62059 10.75828,-3.1816 16.61807,-5.03769c0.25919,0.24512 1.34407,1.27111 3.07285,2.74115m181.32069,6.73365c0.49658,-3.35808 1.42538,-6.71949 1.39951,-10.07354c-0.05341,-6.92484 -0.6157,-13.84576 -0.97168,-20.8281c3.28637,-0.34353 6.07666,-0.67123 8.87408,-0.9178c2.98187,-0.26283 5.41748,-1.37009 5.22534,-4.75067c-0.20715,-3.64483 -3.03702,-4.46532 -6.10891,-4.41148c-2.58466,0.04528 -5.16501,0.33601 -8.19123,0.54938c0,-5.50932 0.01703,-10.4786 -0.0061,-15.4477c-0.01489,-3.19502 -0.54074,-6.45725 -4.48569,-6.54857c-4.36181,-0.10097 -4.72244,3.3638 -4.72244,6.73029c0.00003,4.94181 0,9.88362 0,15.31301c-3.07712,0 -5.73047,-0.57082 -7.94455,0.17043c-1.97144,0.66 -3.45654,2.77258 -5.15628,4.24408c1.62649,1.5632 3.00915,3.85932 4.9418,4.50227c2.36408,0.78648 5.18912,0.18731 8.27136,0.18731c0.44428,9.10824 0.83951,17.71869 1.29352,26.32603c0.26807,5.0819 1.91452,6.35323 7.58127,4.95506m-30.14795,-39.92344c-3.93402,-1.50672 -6.52414,0.05572 -6.65799,4.00422c-0.30997,9.14367 -0.31091,18.31366 0.08206,27.45064c0.07032,1.63536 2.56995,4.33335 4.06223,4.41355c1.50442,0.08084 4.45917,-2.43005 4.52301,-3.90313c0.41,-9.46439 0.24936,-18.95627 0.12317,-28.4371c-0.01352,-1.01684 -1.01139,-2.0206 -2.13248,-3.52818m1.57382,-9.54735c2.38208,-2.41256 3.49341,-5.08736 0.65598,-7.77057c-2.57605,-2.43604 -6.04446,-4.07305 -8.75369,-1.00462c-1.44373,1.63512 -2.04245,5.43904 -1.14536,7.40935c1.64935,3.62243 5.09659,4.49925 9.24307,1.36584z" fill="#ffffff"/>
   <path id="svg_4" d="m229.23863,98.75357c-1.03883,-2.70078 -2.08942,-5.1311 -2.36664,-7.64665c-0.39923,-3.6226 -0.34247,-7.30891 -0.28168,-10.96473c0.05466,-3.28731 -1.85157,-3.96521 -4.51612,-3.72867c-4.70421,0.41758 -7.67678,3.20157 -9.03339,7.48722c-1.14821,3.62725 -1.9888,7.39693 -2.50063,11.16669c-0.43129,3.17642 -1.38136,5.7327 -4.90263,5.75122c-3.49863,0.01841 -4.89732,-2.62216 -5.08752,-5.69579c-0.45189,-7.30265 -0.73909,-14.61669 -0.99926,-21.92945c-0.10954,-3.0793 0.07026,-6.88627 3.862,-6.89716c2.20359,-0.00632 4.41541,2.8524 7.24585,4.86429c4.97687,-3.75175 11.69003,-5.51115 19.28166,-2.68639c0.87876,0.32696 2.62778,-0.73028 3.53969,-1.60028c6.45957,-6.1627 12.84366,-5.49704 18.72431,1.42669c5.39996,6.3578 6.50021,13.65601 6.10275,21.49697c-0.15015,2.9612 -1.37213,5.40831 -4.68784,5.36019c-3.34838,-0.04858 -4.43438,-2.57243 -4.45344,-5.52737c-0.03459,-5.36369 -0.13928,-10.52434 -3.98194,-15.04257c-2.84024,-3.33958 -5.28379,-2.76461 -6.11308,0.64216c-1.43414,5.89163 -1.88472,12.04091 -2.50384,18.10701c-0.50635,4.96131 -1.94355,6.27382 -7.32825,5.41662z" fill="#0A0A0A"/>
   <path id="svg_5" d="m185.20582,71.85919c2.40358,4.6026 2.0024,9.78853 2.49581,14.54965c1.50749,14.54658 -13.75028,17.73189 -22.50986,13.83081c-1.96709,-0.87604 -3.81366,-2.02273 -5.65935,-3.01455c-7.88006,3.85053 -10.27665,2.10477 -10.0599,-6.80549c0.33137,-13.62193 0.45054,-27.24902 0.65834,-40.87395c0.01268,-0.83221 -0.00696,-1.66528 0.02139,-2.49683c0.10043,-2.94503 1.06624,-5.51551 4.40562,-5.57434c3.62806,-0.06391 4.77134,2.66625 4.74561,5.77619c-0.03577,4.32192 -0.39337,8.64016 -0.52133,12.96269c-0.08701,2.93913 -0.01665,5.88292 -0.01665,9.9048c6.11649,-5.25276 12.63945,-6.22928 19.19237,-4.39523c2.68962,0.75276 4.98192,2.58117 7.24795,6.13625m-13.89656,20.52728c6.79029,-0.2478 7.53795,-0.93713 7.18756,-7.50515c-0.13092,-2.45382 -0.3728,-5.05801 -1.3358,-7.25543c-0.62698,-1.43067 -2.54774,-3.01756 -4.05859,-3.21134c-6.24436,-0.80086 -11.2401,4.09901 -13.04218,12.583c3.40953,1.73128 6.92212,3.51489 11.24901,5.38892z" fill="#090909"/>
   <path id="svg_6" d="m68.51372,91.93012c4.41142,-1.22551 6.36666,-4.03164 6.97685,-8.00134c0.62043,-4.03636 -1.24483,-6.47428 -4.64041,-8.45737c-3.84924,-2.24806 -7.79993,-4.57868 -11.01037,-7.61055c-6.55443,-6.18985 -5.91091,-16.69819 1.88207,-20.92871c5.66538,-3.07552 12.42953,-4.36046 18.86501,-5.62008c1.61263,-0.31563 5.0145,2.20336 5.53381,4.01135c0.8929,3.10868 -1.98685,4.30947 -4.86793,4.93346c-4.19651,0.90888 -8.50773,1.68272 -12.44218,3.30788c-5.00836,2.06874 -5.30725,5.83853 -0.98423,9.07518c2.91969,2.18599 6.15232,3.95226 9.23127,5.92762c10.80914,6.93485 10.55684,24.59142 -1.09043,30.05981c-5.5859,2.62258 -12.48967,2.80182 -18.852,3.19827c-2.0642,0.12862 -4.68561,-2.23898 -6.30235,-4.11199c-0.80094,-0.92789 -0.43421,-3.67209 0.39786,-4.94505c0.66408,-1.01595 2.83607,-1.45344 4.33255,-1.44038c4.1887,0.03652 8.37421,0.43963 12.97048,0.6019z" fill="#0A0A0A"/>
   <path id="svg_7" d="m127.4864,98.50633c-1.40683,-1.24801 -2.49171,-2.274 -2.7509,-2.51912c-5.85979,1.85609 -11.12923,4.4171 -16.61807,5.03769c-6.83859,0.7732 -12.55393,-4.96123 -12.42874,-11.90064c0.09794,-5.4289 0.95469,-10.94752 2.34922,-16.19371c0.4904,-1.84488 3.65064,-4.29119 5.46815,-4.19221c3.50528,0.19091 3.83665,3.43048 3.2687,6.52907c-0.6578,3.58888 -1.36934,7.18036 -1.75996,10.80281c-0.57502,5.33235 2.58419,7.62801 7.35766,5.05915c5.23748,-2.81858 9.30767,-6.9422 10.83748,-12.9954c0.44754,-1.77081 0.30083,-3.8791 1.23949,-5.29298c1.28973,-1.9427 3.22859,-4.56494 5.11224,-4.76167c3.46021,-0.36138 4.65598,2.85838 4.44286,5.89433c-0.2421,3.44884 -1.18581,6.84276 -1.58858,10.28812c-0.24527,2.09812 -0.04526,4.2483 -0.04526,6.66124c0.21453,-0.57637 -0.82,0.42328 3.25676,0.39871c4.07676,-0.02457 4.24633,2.45965 5.26612,4.08019c0.01585,2.67851 -3.13007,4.4918 -5.06578,4.87753c-2.47197,0.49259 -5.3286,-0.94525 -8.34139,-1.77311z" fill="#0B0B0B"/>
   <path id="svg_8" d="m308.79243,105.7298c-5.33014,1.13038 -6.97659,-0.14095 -7.24466,-5.22285c-0.45401,-8.60734 -0.84924,-17.21779 -1.29352,-26.32603c-3.08224,0 -5.90728,0.59917 -8.27136,-0.18731c-1.93265,-0.64295 -4.0382,-1.25232 -4.9418,-4.50227c0.97685,-2.67632 3.18484,-3.58408 5.15628,-4.24408c2.21408,-0.74125 4.86743,-0.17043 7.94455,-0.17043c0,-5.42939 0.00003,-10.3712 0,-15.31301c0,-3.36649 0.36063,-6.83126 4.72244,-6.73029c3.94495,0.09132 4.4708,3.35355 4.48569,6.54857c0.02313,4.9691 0.0061,9.93838 0.0061,15.4477c3.02622,-0.21337 5.60657,-0.5041 8.19123,-0.54938c3.07189,-0.05384 5.90176,0.76665 6.10891,4.41148c0.19214,3.38058 -2.24347,4.48784 -5.22534,4.75067c-2.79742,0.24657 -5.58771,0.57427 -8.87408,0.9178c0.35598,6.98234 0.91827,13.90326 0.97168,20.8281c0.02587,3.35405 0.30189,7.67932 -1.73612,10.34133z" fill="#090909"/>
   <path id="svg_9" d="m279.27101,65.78745c0.83117,1.2587 1.82904,2.26246 1.84256,3.2793c0.12619,9.48083 0.28683,18.97271 -0.12317,28.4371c-0.06384,1.47308 -3.01859,3.98397 -4.52301,3.90313c-1.49228,-0.0802 -3.99191,-2.77819 -4.06223,-4.41355c-0.39297,-9.13698 -0.39203,-18.30697 -0.08206,-27.45064c0.13385,-3.9485 2.72397,-5.51094 6.94791,-3.75534z" fill="#090909"/>
   <path id="svg_10" d="m280.28508,56.22846c-3.87665,2.89617 -7.32389,2.01935 -8.97324,-1.60308c-0.89709,-1.97031 -0.29837,-5.77423 1.14536,-7.40935c2.70923,-3.06843 6.17764,-1.43142 8.75369,1.00462c2.83743,2.68321 1.7261,5.35801 -0.92581,8.00781z" fill="#0E0E0E"/>
   <path id="svg_11" d="m170.90211,92.34127c-3.91974,-1.82883 -7.43233,-3.61244 -10.84186,-5.34372c1.80208,-8.48399 6.79782,-13.38386 13.04218,-12.583c1.51085,0.19378 3.43161,1.78067 4.05859,3.21134c0.963,2.19742 1.20488,4.80161 1.3358,7.25543c0.35039,6.56802 -0.39727,7.25735 -7.59471,7.45995z" fill="#ffffff"/>
  </g>
 </g>
</svg>